<svg xmlns="http://www.w3.org/2000/svg" xmlns:xlink="http://www.w3.org/1999/xlink" width="98" height="48" viewBox="0 0 98 48">
    <defs>
        <path id="prefix__a" d="M0 0.208L52.644 0.208 52.644 41.913 0 41.913z"/>
    </defs>
    <g fill="none" fill-rule="evenodd">
        <mask id="prefix__b" fill="#fff">
            <use xlink:href="#prefix__a"/>
        </mask>
        <path fill="#005B94" d="M42.972.208h-33.3C4.33.208 0 4.596 0 10.01v14.972c0 5.413 4.33 9.8 9.672 9.8H35.68V40.4c0 .835.67 1.513 1.495 1.513.491 0 .95-.242 1.229-.652.78-1.154 2.367-3.695 3.256-6.48h1.312c5.341 0 9.672-4.387 9.672-9.8V10.01c0-5.413-4.33-9.8-9.672-9.8" mask="url(#prefix__b)" transform="matrix(-1 0 0 1 52.644 0)"/>
        <path fill="#FFF" d="M19.783 14.532c.398-1.467 1.31-2.593 1.957-3.243.375-.378.397-.983.041-1.38l-.11-.121c-.296-.33-.777-.426-1.167-.218-7.762 4.128-7.665 9.726-7.588 10.676-.005.105-.016.209-.016.315 0 3.369 2.695 6.099 6.02 6.099 3.325 0 6.02-2.73 6.02-6.099 0-3.07-2.243-5.604-5.157-6.03M34.403 14.532c.398-1.467 1.31-2.593 1.957-3.243.376-.378.397-.983.041-1.38l-.109-.121c-.296-.33-.777-.426-1.168-.218-7.762 4.128-7.665 9.726-7.588 10.676-.005.105-.016.209-.016.315 0 3.369 2.695 6.099 6.02 6.099 3.325 0 6.02-2.73 6.02-6.099 0-3.07-2.243-5.604-5.157-6.03"/>
        <text fill="#44444F" font-family="SVN-PoppinsSemiBold, SVN-Poppins" font-size="11" font-weight="500" letter-spacing=".8">
            <tspan x="19" y="45">DAILY QUOTE</tspan>
        </text>
    </g>
</svg>
