<svg xmlns="http://www.w3.org/2000/svg" xmlns:xlink="http://www.w3.org/1999/xlink" width="100" height="40" viewBox="0 0 100 40">
    <defs>
        <filter id="yuagtq27ua">
            <feColorMatrix in="SourceGraphic" values="0 0 0 0 1.000000 0 0 0 0 1.000000 0 0 0 0 1.000000 0 0 0 1.000000 0"/>
        </filter>
        <path id="o59kyo1ugb" d="M0 0.083L19.804 0.083 19.804 23.98 0 23.98z"/>
    </defs>
    <g fill="none" fill-rule="evenodd" filter="url(#yuagtq27ua)" transform="translate(-150 -42)">
        <g>
            <path fill="#005B94" d="M31.615 19.518c-.393-.072-.822-.107-1.108-.107-2.823 0-4.717 3.806-4.717 6.368 0 1.636.715 2.49 1.75 2.49 1.109 0 2.574-1.103 3.36-5.23l.715-3.521zm-1.287 13.234c.036-.997.107-2.028.143-3.024H30.4c-1.501 2.597-3.681 3.415-5.54 3.415-3.144 0-5.431-2.42-5.431-6.226 0-5.834 3.716-12.06 12.757-12.06 2.287 0 4.718.463 6.29.96l-1.894 9.18c-.358 1.885-.75 5.478-.679 7.755h-5.575zM39.904 27.51c1.07.5 3.105 1.248 4.924 1.248 1.214 0 1.713-.463 1.713-1.034 0-.64-.535-1.14-2.07-1.817-1.998-.963-3.925-2.424-3.925-4.74 0-3.85 3.426-6.31 8.279-6.31 2.249 0 3.926.428 4.89.927l-1.393 4.242c-.82-.357-2.105-.75-3.711-.75-1.177 0-1.927.358-1.927 1.07 0 .464.643.998 1.998 1.605 1.892.926 4.211 2.21 4.211 4.847 0 4.135-3.604 6.38-8.636 6.344-2.355-.07-4.639-.605-5.78-1.46l1.427-4.171z" transform="translate(150 42)"/>
            <g transform="translate(150 42) translate(0 8.762)">
                <mask id="yg5631tfbc" fill="#fff">
                    <use xlink:href="#o59kyo1ugb"/>
                </mask>
                <path fill="#005B94" d="M16.534 14.336L8.016 14.336 7.117 18.839 16.713 18.839 15.707 23.98 0 23.98 4.601 0.083 19.804 0.083 18.798 5.224 9.74 5.224 8.95 9.23 17.54 9.23z" mask="url(#yg5631tfbc)"/>
            </g>
            <path fill="#005B94" d="M66.23 24.574c-.618 2.354-1.85 3.763-3.207 3.763-1.423 0-1.982-1.675-1.659-3.279l2.085-9.82h-5.984l-2.341 11.197c-.754 3.743.911 6.843 4.436 6.843 2.252 0 3.915-.98 5.4-2.762l-.473 2.346c-.37 1.842-2.043 3.09-4.087 3.09-2.393 0-3.607-.625-4.975-1.486l-3.235 2.757C54.674 39.298 57.845 40 60.275 40c5.161 0 9.475-3.843 10.378-8.328l2.109-9.996c-4.18 0-5.656 1.735-6.532 2.898" transform="translate(150 42)"/>
            <path fill="#005B94" d="M75.462 15.238c-6.36 0-8.376 4.329-8.376 4.329l-.8 3.29c1.703-1.727 3.38-2.656 7.139-2.656h5.934c2.91 0 5.412-2.08 5.974-4.963h-9.871z" transform="translate(150 42)"/>
            <path fill="#EF4136" d="M76.805 4.32c-.055 0-.113.002-.173.006l-.067.005c-.019 0-.044 0-.88.103-1.638.2-2.618.303-2.897.304-.171-.022-.347-.033-.523-.033-.141 0-.297.04-.462.121-.187.091-.291.186-.319.278-.026.052-.043.115-.053.193-.018.14 0 .278.054.412.051.126.084.187.111.224-.034.183-.173.762-.6 2.374-.384 1.448-.676 2.393-.867 2.806-.132.28-.142.332-.142.37l-.005.17c-.008.289.06.508.198.653.142.149.372.221.703.222h.016c.552 0 1.154-.064 1.78-.189.703-.087 1.305-.145 1.79-.171.65-.037 1.175-.137 1.59-.311.15-.105.237-.258.262-.455.03-.242-.024-.663-.74-.763-.161 0-.489.049-1.002.15-.178.034-.64.096-1.371.185-.729.088-1.182.133-1.352.133-.087 0-.087-.019-.089-.041.021-.172.099-.482.23-.923.182-.61.233-.717.245-.736.025-.042.05-.053.04-.054h.022l.021-.007c.121-.04.524-.116 1.753-.249.209-.02.383-.04.524-.062.26-.04.493-.07.7-.09.361-.036.627-.103.814-.203.208-.113.332-.313.366-.596.02-.159-.018-.292-.111-.398-.144-.161-.408-.24-.813-.24-.291 0-.71.06-1.242.18-.177.04-.483.082-.91.126-.327.033-.596.053-.807.06.048-.174.12-.384.215-.626.168-.444.27-.747.311-.93.038-.186.067-.238.06-.238.025-.012.138-.051.631-.129.414-.065.914-.113 1.487-.143l1.685-.082c.135-.034.273-.118.423-.257.158-.148.239-.272.254-.39.026-.215-.018-.39-.134-.52-.143-.16-.38-.239-.726-.239m15.677.991c-.07-.163-.166-.308-.286-.432-.121-.124-.265-.224-.427-.297-.164-.072-.344-.11-.534-.11-.16 0-.326.027-.495.079-.114.035-.23.078-.344.127l-.012-.015-.188.11c-.12.062-.24.127-.354.198l-.316.195-.053.031c-.208.122-.428.29-.653.502-.22.206-.441.444-.66.707-.215.261-.43.552-.636.863-.206.31-.396.637-.563.97-.13.255-.224.523-.277.798-.05.264-.076.507-.076.72 0 .306.053.593.158.85.103.254.266.512.485.767.038.044.087.099.149.162.07.071.154.14.251.203.097.064.207.119.328.165.134.05.28.076.437.076.208 0 .382-.004.519-.013.143-.009.266-.022.37-.038.101-.017.19-.033.263-.05l.21-.046c.101-.019.231-.054.387-.105.152-.05.317-.109.492-.18.176-.07.357-.152.536-.243.186-.094.356-.197.506-.305.157-.113.29-.236.394-.367.128-.16.193-.329.193-.504 0-.092-.02-.18-.058-.264-.035-.074-.081-.141-.14-.202-.057-.06-.122-.108-.195-.145-.085-.044-.174-.066-.262-.066h-.213l-.068.041c-.226.142-.445.274-.658.398-.202.118-.412.222-.625.308-.21.085-.433.154-.662.205-.224.05-.475.075-.743.075-.097 0-.177-.013-.238-.038-.042-.017-.078-.05-.11-.1-.046-.075-.089-.165-.128-.269-.034-.09-.051-.201-.051-.33 0-.188.02-.372.06-.547.04-.177.098-.351.173-.52.075-.17.167-.34.272-.508.107-.168.226-.336.348-.492.09-.102.197-.217.32-.346.125-.128.261-.26.405-.389.147-.132.302-.263.46-.387.157-.125.315-.236.47-.33.15-.092.298-.167.44-.222.099-.038.19-.06.282-.068.013.03.023.065.032.102.02.08.049.155.086.222.044.08.104.147.177.202.119.09.284.104.373.104.055 0 .109-.005.154-.013.104-.018.195-.07.264-.152.056-.068.093-.151.114-.256.016-.078.024-.173.024-.3 0-.187-.036-.365-.107-.53m-9.475-1.056l-.061-.031h-.07c-.178 0-.346.037-.5.111-.17.083-.306.219-.409.42l-.016.05c-.054.241-.11.47-.167.69-.057.22-.118.438-.18.651-.032.1-.068.221-.11.364-.04.14-.085.29-.135.452-.05.164-.1.334-.152.512l-.15.525c-.051.175-.097.343-.14.506-.044.164-.082.314-.112.449l-.622 2.69c-.005.025-.009.049-.011.07-.003.025-.004.05-.004.078 0 .1.02.195.059.283.036.082.085.157.144.22.07.079.163.128.275.147.064.011.132.017.204.017.084 0 .171-.015.26-.045.086-.028.167-.068.245-.12.075-.052.144-.116.205-.19.068-.084.115-.18.141-.286.05-.194.092-.39.127-.582.035-.19.066-.377.094-.564.027-.18.056-.36.086-.54.03-.177.064-.352.105-.528.033-.146.065-.276.098-.387l.094-.316c.028-.091.055-.177.082-.257.028-.084.054-.169.08-.252.088-.298.182-.59.278-.87l.287-.836c.05-.149.101-.294.155-.434.056-.148.106-.288.152-.422.046-.138.085-.266.116-.387.035-.137.052-.258.052-.37 0-.177-.046-.34-.138-.485-.089-.14-.21-.252-.362-.333m-18.99 2.096c.083-.032.157-.077.218-.132.058-.052.107-.113.145-.182.023-.043.044-.084.062-.122.15.01.278.04.382.092.127.063.229.147.305.25.08.108.139.237.174.38.039.158.059.326.059.5 0 .11-.008.228-.022.35-.013.115-.035.23-.067.342-.084.317-.195.62-.332.901-.137.283-.296.548-.47.788-.175.238-.367.453-.571.64-.205.188-.42.35-.638.481-.214.13-.436.23-.66.297-.216.066-.443.1-.657.1-.17 0-.328-.02-.47-.062-.133-.039-.247-.096-.34-.17-.087-.07-.153-.155-.202-.26-.05-.108-.075-.237-.075-.386 0-.117.017-.25.05-.397.06-.26.158-.537.294-.82.14-.292.305-.585.493-.872.187-.288.395-.57.618-.842.221-.269.45-.525.687-.768.02-.022.05-.047.087-.08.087-.073.185-.108.31-.108.115 0 .228.03.328.056.078.02.146.038.206.038.032 0 .06-.004.085-.014m1.879-1.374c-.134-.125-.292-.223-.467-.292-.173-.067-.369-.101-.582-.101-.08 0-.159.004-.238.013-.111.012-.21.037-.286.074-.038.016-.074.037-.105.063-.091-.077-.186-.135-.282-.172-.115-.043-.252-.066-.398-.066-.119 0-.24.015-.354.044-.124.033-.254.095-.403.197-.237.185-.477.39-.713.61-.238.222-.469.46-.687.704-.222.247-.434.507-.63.772-.196.263-.378.537-.542.816-.161.276-.304.555-.424.83-.122.28-.216.557-.28.824-.038.145-.065.291-.082.434-.016.14-.024.282-.024.42 0 .335.053.645.158.921.107.283.266.53.472.738.206.207.46.368.753.48.289.11.616.166.972.166.373 0 .745-.052 1.105-.156.356-.101.704-.245 1.032-.428.326-.182.638-.402.926-.655.287-.25.55-.533.784-.838.233-.302.438-.632.612-.98.174-.349.309-.713.401-1.082.108-.421.163-.82.163-1.187 0-.42-.075-.818-.222-1.185-.15-.371-.371-.696-.66-.964m-8.311-.941c-.084-.023-.182-.043-.292-.06-.105-.016-.214-.03-.324-.038-.11-.009-.215-.015-.318-.018-.103-.004-.191-.006-.266-.006-.908 0-1.825.108-2.726.32-.901.213-1.805.552-2.685 1.008-.092.048-.169.095-.233.14-.078.056-.143.119-.192.186-.053.071-.092.152-.116.24-.022.079-.032.17-.032.268 0 .201.063.37.19.504.127.135.304.207.511.207.055 0 .11-.005.162-.015.063-.011.133-.03.208-.06.066-.024.145-.06.235-.106l.302-.153c.145-.075.302-.15.471-.223.172-.075.335-.142.491-.202l.26-.096-.012.116c-.017.12-.041.254-.074.402-.033.154-.074.324-.123.512-.049.19-.106.401-.17.634-.153.563-.311 1.13-.473 1.702-.163.578-.311 1.154-.437 1.702-.033.111-.038.227-.016.342.018.103.056.203.112.295.059.095.134.173.224.234.105.07.222.106.35.106.171 0 .325-.038.457-.112.163-.092.259-.208.294-.366.024-.172.051-.347.083-.525.032-.176.076-.376.132-.595l.246-.987c.108-.439.208-.818.297-1.126.09-.313.168-.581.236-.806l.178-.576c.053-.166.098-.321.135-.464.038-.148.069-.298.09-.446.02-.131.035-.282.046-.452.26-.05.517-.082.766-.094l.11-.005c.229-.011.459-.022.687-.022.223 0 .417.01.593.033.16.02.303.038.457.053.121 0 .23-.027.323-.081.088-.052.16-.12.212-.201.05-.076.084-.166.104-.269.015-.079.022-.162.022-.248 0-.147-.048-.284-.144-.408-.094-.12-.21-.201-.351-.244m41.7 4.783c-1.321 7.664-7.609 11.37-15.09 11.37h-1.46c3.993-1.368 4.553-4.854 4.553-4.854.781 0 1.804-.01 2.389-.01 5.71 0 7.652-4.335 8.12-6.986.45-2.55-.533-6.969-8.267-6.969H57.746c-4.725 0-8.319.57-10.681 3.101-2.526 2.705-2.994 6.188-3.07 7.767-.02.428-.427.727-.84.614-.286-.079-.488-.34-.488-.638-.003-1.39.28-5.329 3.39-8.668C48.688.72 52.62 0 57.746 0h31.56c1.43 0 11.439.348 9.977 8.82" transform="translate(150 42)"/>
        </g>
    </g>
</svg>
