<svg xmlns="http://www.w3.org/2000/svg" xmlns:xlink="http://www.w3.org/1999/xlink" width="106" height="33" viewBox="0 0 106 33">
    <defs>
        <path id="prefix__a" d="M0 0.007L20.216 0.007 20.216 24.705 0 24.705z"/>
        <path id="prefix__c" d="M0.075 0.018L21.37 0.018 21.37 25.159 0.075 25.159z"/>
        <path id="prefix__e" d="M0.095 0.007L35.752 0.007 35.752 9.196 0.095 9.196z"/>
    </defs>
    <g fill="none" fill-rule="evenodd">
        <path fill="#005B94" d="M32.428 11.017c-.405-.074-.847-.111-1.142-.111-2.911 0-4.865 3.95-4.865 6.61 0 1.698.738 2.584 1.806 2.584 1.143 0 2.653-1.145 3.464-5.428l.737-3.655zm-1.327 13.736c.037-1.035.11-2.105.148-3.139h-.074c-1.548 2.695-3.795 3.545-5.712 3.545-3.243 0-5.6-2.511-5.6-6.462 0-6.056 3.832-12.518 13.154-12.518 2.359 0 4.865.48 6.486.997l-1.953 9.527c-.368 1.957-.774 5.686-.7 8.05h-5.749zM41.192 19.313c1.101.518 3.193 1.295 5.064 1.295 1.247 0 1.761-.481 1.761-1.073 0-.666-.55-1.184-2.128-1.887-2.055-.999-4.036-2.516-4.036-4.92 0-3.996 3.522-6.549 8.513-6.549 2.312 0 4.036.444 5.027.962l-1.431 4.403c-.844-.37-2.165-.777-3.816-.777-1.211 0-1.982.37-1.982 1.11 0 .48.66 1.036 2.055 1.665 1.945.962 4.33 2.293 4.33 5.03 0 4.293-3.706 6.623-8.88 6.586-2.422-.073-4.77-.628-5.945-1.517l1.468-4.328z"/>
        <mask id="prefix__b" fill="#fff">
            <use xlink:href="#prefix__a"/>
        </mask>
        <path fill="#005B94" d="M16.877 14.738L8.182 14.738 7.265 19.392 17.061 19.392 16.034 24.705 0 24.705 4.696 0.007 20.216 0.007 19.189 5.32 9.943 5.32 9.136 9.461 17.905 9.461z" mask="url(#prefix__b)"/>
        <g transform="translate(53.628 6.841)">
            <mask id="prefix__d" fill="#fff">
                <use xlink:href="#prefix__c"/>
            </mask>
            <path fill="#005B94" d="M14.609 9.497c-.64 2.39-1.916 3.82-3.321 3.82-1.472 0-2.05-1.7-1.717-3.33L11.73.018H5.535l-2.424 11.37c-.78 3.799.944 6.947 4.593 6.947 2.33 0 4.052-.995 5.59-2.805l-.49 2.383c-.383 1.87-2.115 3.136-4.231 3.136-2.477 0-3.734-.634-5.15-1.508L.075 22.339c2.57 2.107 5.853 2.82 8.368 2.82 5.344 0 9.81-3.902 10.744-8.456l2.183-10.15c-4.326 0-5.855 1.762-6.761 2.944" mask="url(#prefix__d)"/>
        </g>
        <path fill="#005B94" d="M77.86 6.841c-6.547 0-8.622 4.389-8.622 4.389l-.824 3.336c1.753-1.752 3.48-2.694 7.35-2.694h22.992l.996-5.03H77.86z"/>
        <g transform="translate(69.738)">
            <mask id="prefix__f" fill="#fff">
                <use xlink:href="#prefix__e"/>
            </mask>
            <path fill="#EF4136" d="M11.499.007S2.065.067.463 7.498c-.252 1.17-.206.96-.368 1.698 0 0 2.03-4.17 9.344-4.17h25.353l.96-5.019H11.499z" mask="url(#prefix__f)"/>
        </g>
        <path fill="#55A5C4" d="M83.062 21.181L80.19 21.181 79.738 23.55 82.967 23.55 82.742 24.717 78.124 24.717 79.644 16.772 84.083 16.772 83.857 17.939 80.807 17.939 80.403 20.026 83.288 20.026zM87.184 23.347c.267.034.558.046.86.046 1.057 0 1.904-.337 2.474-.976.615-.65.929-1.58.929-2.601 0-1.301-.685-2.172-2.323-2.172-.314 0-.65.023-.871.07l-1.069 5.633zm-.104-6.633c.638-.104 1.335-.162 2.067-.162 1.254 0 2.242.313 2.869.929.534.488.894 1.231.894 2.311 0 1.475-.604 2.823-1.59 3.636-.907.743-2.057 1.069-3.66 1.069-.825 0-1.591-.058-2.032-.128l1.452-7.655zM97.886 16.772l-.877 4.558c-.059.302-.094.627-.094.951 0 .8.48 1.3 1.287 1.3.97 0 1.648-.638 1.953-2.239l.877-4.57h1.368l-.877 4.547c-.456 2.354-1.556 3.398-3.497 3.398-1.473.012-2.467-.766-2.467-2.4 0-.337.046-.731.105-1.09l.854-4.455h1.368z"/>
    </g>
</svg>
