<svg xmlns="http://www.w3.org/2000/svg" width="68" height="68" viewBox="0 0 68 68">
    <defs>
        <filter id="prefix__a">
            <feColorMatrix in="SourceGraphic" values="0 0 0 0 0.000000 0 0 0 0 0.356863 0 0 0 0 0.580392 0 0 0 1.000000 0"/>
        </filter>
        <filter id="prefix__b">
            <feColorMatrix in="SourceGraphic" values="0 0 0 0 0.000000 0 0 0 0 0.356863 0 0 0 0 0.580392 0 0 0 1.000000 0"/>
        </filter>
    </defs>
    <g fill="none" fill-rule="evenodd" filter="url(#prefix__a)" transform="translate(2 2)">
        <circle cx="32" cy="32" r="32" stroke="#FFF" stroke-width="2.341"/>
        <g filter="url(#prefix__b)">
            <path fill="#92929D" d="M23.958 37.896H22.4c-2.062 0-3.733-1.671-3.733-3.733V30.77c0-2.061 1.671-3.733 3.733-3.733h1.41c.584 0 1.152-.191 1.616-.545l6.025-4.589c1.172-.892 2.845-.666 3.737.506.354.464.545 1.032.545 1.616v16.163c0 1.473-1.194 2.667-2.666 2.667-.523 0-1.034-.154-1.47-.442l-6.17-4.075c-.435-.288-.946-.442-1.469-.442zm-.491-8.192h-.887c-.689 0-1.247.558-1.247 1.246v3.033c0 .688.558 1.247 1.247 1.247h.887v-5.526zm2.618-.51c.032.165.048.336.048.51v5.526c0 .152-.012.301-.037.447.278.121.546.267.802.436l6.169 4.075V24.025l-6.025 4.588c-.3.228-.62.423-.957.581zM38 36c-.736 0-1.333-.597-1.333-1.333 0-.737.597-1.334 1.333-1.334.556 0 1.067-.567 1.067-1.333s-.511-1.333-1.067-1.333c-.736 0-1.333-.597-1.333-1.334 0-.736.597-1.333 1.333-1.333 2.095 0 3.733 1.82 3.733 4 0 2.18-1.638 4-3.733 4zm0 4c-.736 0-1.333-.597-1.333-1.333 0-.737.597-1.334 1.333-1.334 2.544 0 4.667-2.358 4.667-5.333S40.544 26.667 38 26.667c-.736 0-1.333-.597-1.333-1.334 0-.736.597-1.333 1.333-1.333 4.083 0 7.333 3.611 7.333 8 0 4.389-3.25 8-7.333 8z"/>
        </g>
    </g>
</svg>
