<svg xmlns="http://www.w3.org/2000/svg" xmlns:xlink="http://www.w3.org/1999/xlink" width="330" height="190" viewBox="0 0 330 190">
    <defs>
        <path id="tce162pdda" d="M23.247 6.774c-1.812-.01-3.571-.243-4.813-2.022-2.437-3.49-6.157-6.623-10.328-3.074C5.7 3.725 7.51 7.935 5.44 9.96c-1.832 1.79-4.16 1.494-5.096 4.467-1.377 4.373 2.964 8.205 4.358 11.987 1.17 3.174-1.46 4.382-2.643 6.855-.91 1.907-.443 3.949.55 5.772 1.752 3.213 5.632 5.8 4.734 9.962-.751 3.473-1.45 6.568 1.615 9.2 2.1 1.805 5.999 3.45 5.702 6.789-.105 1.182-.924 2.19-1.147 3.354-.355 1.844.839 3.64 2.227 4.905 3.155 2.88 5.927 5.595 8.291 9.218 1.01 1.549 5.055 5.044 3.44 7.16 2.936-3.847 6.042-7.578 8.712-11.622 2.195-3.327 5.506-8.193 3.252-12.29-.7-1.273-2.004-2.223-2.361-3.633-.645-2.546 1.857-4.907 2.786-7.073 1.46-3.4.389-7.35-2.183-9.902-1.216-1.209-2.536-2.537-2.716-4.241-.195-1.863.972-3.598 1.502-5.316.488-1.583.793-3.267.971-4.911.125-1.16.174-2.35-.098-3.485-.52-2.16-2.465-3.361-3.905-4.894-3.428-3.648-1.626-7.939-3.123-12.178-1.198-3.392-3.647-3.355-6.143-3.319-.306.005-.613.01-.917.008"/>
        <path id="7tzj22rjfc" d="M21.041 3.315c1.316.242 2.625.317 3.77-.8 2.252-2.196 5.384-3.954 7.918-.801 1.463 1.817-.433 4.621.789 6.376 1.08 1.553 2.81 1.66 3.077 3.946.394 3.364-3.285 5.542-4.82 8.092-1.287 2.14.453 3.382.969 5.34.396 1.508-.226 2.924-1.198 4.109-1.715 2.089-4.889 3.429-4.813 6.572.064 2.623.142 4.964-2.445 6.45-1.774 1.018-4.829 1.67-5.076 4.134-.087.872.367 1.717.368 2.593.003 1.386-1.113 2.522-2.293 3.25-2.689 1.65-5.075 3.237-7.292 5.538-.948.982-4.364 2.958-3.484 4.717-1.6-3.196-3.336-6.332-4.712-9.636-1.133-2.717-2.86-6.704-.658-9.364.684-.827 1.761-1.336 2.215-2.31.82-1.757-.668-3.815-1.043-5.516-.587-2.668.737-5.384 2.956-6.88 1.049-.708 2.191-1.49 2.557-2.7.399-1.325-.208-2.745-.354-4.065-.136-1.215-.122-2.478-.024-3.696.07-.86.198-1.728.553-2.514.677-1.496 2.254-2.097 3.51-3.01 2.992-2.171 2.278-5.534 3.951-8.402 1.502-2.575 3.55-1.798 5.58-1.423"/>
    </defs>
    <g fill="none" fill-rule="evenodd">
        <path fill="#E0E0E0" d="M256.245 36.497L264.553 36.497 264.553 3.308 256.245 3.308zM268.464 36.497L276.772 36.497 276.772 10.547 268.464 10.547zM280.87 36.497L289.178 36.497 289.178 16.475 280.87 16.475zM292.354 36.497L300.663 36.497 300.663 24.607 292.354 24.607z"/>
        <g>
            <path fill="#FAFAFA" d="M0.361 49.413L79.598 49.413 79.598 0.371 0.361 0.371z" transform="translate(25 3.28)"/>
            <path fill="#EBEBEB" d="M60.469 35.83c-5.495-2.084-11.814 3.678-17.2 1.329-3.135-1.368-4.556-4.913-6.092-7.968-1.535-3.055-4.181-6.278-7.582-5.923-3.43.357-6.204 4.33-9.518 3.372-2.088-.603-3.13-2.92-3.654-5.03-.524-2.11-.887-4.441-2.48-5.921-1.592-1.48-4.91-1.083-5.16 1.076v25.998h61.964S62.37 36.551 60.47 35.83" transform="translate(25 3.28)"/>
            <path fill="#E0E0E0" d="M72.402 42.763c0 .056-15.019.101-33.542.101-18.53 0-33.545-.045-33.545-.101 0-.055 15.016-.1 33.545-.1 18.523 0 33.542.045 33.542.1M72.402 31.408c0 .055-15.019.1-33.542.1-18.53 0-33.545-.045-33.545-.1 0-.056 15.016-.101 33.545-.101 18.523 0 33.542.045 33.542.1M72.402 20.052c0 .056-15.019.1-33.542.1-18.53 0-33.545-.044-33.545-.1 0-.056 15.016-.1 33.545-.1 18.523 0 33.542.044 33.542.1M72.402 9.26c0 .055-15.019.1-33.542.1-18.53 0-33.545-.045-33.545-.1 0-.056 15.016-.1 33.545-.1 18.523 0 33.542.044 33.542.1" transform="translate(25 3.28)"/>
        </g>
        <path fill="#171725" d="M258.76 22.141H73.035c-3.202 0-5.797 2.596-5.797 5.797V159.12c0 3.202 2.595 5.798 5.797 5.798h71.281s4.534 17.54-9.522 24.795h66.652s-15.87-8.96-11.79-24.795h69.105c3.201 0 5.797-2.596 5.797-5.797V27.939c0-3.202-2.596-5.798-5.798-5.798"/>
        <path fill="#455A64" d="M168.377 151.121c2.527 3.611-1.428 7.566-5.039 5.04-.119-.084-.227-.192-.31-.312-2.52-3.61 1.43-7.559 5.039-5.038.119.083.227.191.31.31"/>
        <path fill="#FAFAFA" d="M70.436 140.919L262.021 140.919 262.021 24.552 70.436 24.552z"/>
        <path fill="#E8505B" d="M233.978 121.9L239.602 121.9 239.602 114.154 233.978 114.154z"/>
        <path fill="#FFF" d="M233.978 121.9L239.602 121.9 239.602 114.154 233.978 114.154z"/>
        <path fill="#E8505B" d="M222.097 121.9L227.721 121.9 227.721 109.592 222.097 109.592z"/>
        <path fill="#FFF" d="M222.097 121.9L227.721 121.9 227.721 109.592 222.097 109.592z"/>
        <path fill="#E8505B" d="M209.281 121.696L214.905 121.696 214.905 105.888 209.281 105.888z"/>
        <path fill="#FFF" d="M209.281 121.696L214.905 121.696 214.905 105.888 209.281 105.888z"/>
        <path fill="#E8505B" d="M90.43 121.696L96.055 121.696 96.055 111.013 90.43 111.013z"/>
        <path fill="#FFF" d="M90.43 121.696L96.055 121.696 96.055 111.013 90.43 111.013z"/>
        <path fill="#E8505B" d="M102.642 121.696L108.267 121.696 108.267 115.383 102.642 115.383z"/>
        <path fill="#FFF" d="M102.642 121.696L108.267 121.696 108.267 115.383 102.642 115.383z"/>
        <path fill="#E8505B" d="M113.99 121.9L119.614 121.9 119.614 107.411 113.99 107.411z"/>
        <path fill="#FFF" d="M113.99 121.9L119.614 121.9 119.614 107.411 113.99 107.411z"/>
        <path fill="#E8505B" d="M125.87 121.696L131.495 121.696 131.495 114.154 125.87 114.154z"/>
        <path fill="#FFF" d="M125.87 121.696L131.495 121.696 131.495 114.154 125.87 114.154z"/>
        <path fill="#E8505B" d="M137.55 121.696L143.174 121.696 143.174 107.411 137.55 107.411zM149.118 121.696L154.742 121.696 154.742 89.143 149.118 89.143z"/>
        <path fill="#009DFF" d="M161.178 121.696L166.803 121.696 166.803 75.784 161.178 75.784z"/>
        <path fill="#E8505B" d="M173.183 121.696L178.808 121.696 178.808 94.62 173.183 94.62z"/>
        <path fill="#FFF" d="M149.118 121.696L154.742 121.696 154.742 89.143 149.118 89.143zM173.183 121.696L178.808 121.696 178.808 94.62 173.183 94.62z"/>
        <path fill="#005B94" d="M196.722 121.696L202.346 121.696 202.346 90.16 196.722 90.16z"/>
        <path fill="#E8505B" d="M185.169 121.696L190.794 121.696 190.794 80.565 185.169 80.565z"/>
        <path fill="#263238" d="M86.618 70.209L85.742 70.209 85.742 69.794 87.985 69.794 87.985 70.209 87.109 70.209 87.109 72.437 86.618 72.437zM89.61 71.429c0-.385-.258-.63-.6-.63-.34 0-.597.245-.597.63s.256.63.596.63c.343 0 .6-.245.6-.63m-1.673 0c0-.604.454-1.031 1.073-1.031.627 0 1.076.427 1.076 1.03 0 .605-.45 1.035-1.076 1.035-.62 0-1.073-.43-1.073-1.034M92.05 71.429c0-.385-.261-.63-.6-.63-.34 0-.6.245-.6.63s.26.63.6.63c.339 0 .6-.245.6-.63zm.464-1.794v2.802h-.453v-.26c-.159.192-.393.286-.668.286-.585 0-1.02-.408-1.02-1.034 0-.627.435-1.031 1.02-1.031.26 0 .49.087.649.272v-1.035h.472zM94.35 71.806v-.234h-.487c-.32 0-.408.12-.408.268 0 .17.144.28.386.28.23 0 .43-.106.51-.314m.471-.551v1.182h-.445v-.245c-.114.173-.333.271-.635.271-.46 0-.75-.252-.75-.604 0-.336.226-.6.837-.6h.521v-.03c0-.276-.166-.438-.502-.438-.226 0-.46.075-.611.2l-.186-.344c.216-.166.529-.249.854-.249.581 0 .917.276.917.857M97.277 70.42l-.944 2.18c-.184.456-.44.596-.777.596-.2 0-.412-.068-.54-.185l.189-.348c.09.087.219.14.347.14.166 0 .265-.08.355-.28l.034-.078-.88-2.024h.49l.636 1.491.637-1.491h.453z"/>
        <path fill="#E0E0E0" d="M86.2 130.799L86.2 132.146 86.061 132.146 86.061 130.922 85.744 130.922 85.744 130.799zM93.477 132.023v.123h-.945v-.098l.56-.549c.152-.15.18-.24.18-.332 0-.156-.109-.252-.315-.252-.157 0-.279.048-.367.15l-.098-.085c.103-.123.27-.192.477-.192.273 0 .446.138.446.363 0 .13-.04.245-.221.421l-.458.45h.74zM100.381 131.76c0 .224-.163.397-.488.397-.195 0-.382-.066-.485-.173l.067-.109c.087.09.242.155.418.155.223 0 .346-.103.346-.27 0-.162-.114-.268-.364-.268h-.096v-.102l.373-.468h-.688v-.123h.865v.098l-.38.48c.288.014.432.167.432.382M107.416 131.792L107.171 131.792 107.171 132.146 107.045 132.146 107.045 131.792 106.352 131.792 106.352 131.692 107.002 130.799 107.143 130.799 106.515 131.669 107.048 131.669 107.048 131.357 107.171 131.357 107.171 131.669 107.416 131.669zM114.261 131.75c0 .228-.16.407-.489.407-.194 0-.378-.067-.482-.173l.067-.11c.086.091.24.156.414.156.229 0 .35-.11.35-.274 0-.174-.108-.281-.45-.281h-.287l.069-.676h.737v.123h-.616l-.046.43h.174c.406 0 .56.159.56.398M121.11 131.748c0-.177-.13-.29-.338-.29-.206 0-.346.126-.346.294 0 .148.123.288.356.288.194 0 .329-.113.329-.292m.136-.004c0 .252-.198.413-.46.413-.357 0-.552-.248-.552-.673 0-.458.25-.696.616-.696.121 0 .235.02.32.073l-.056.111c-.07-.046-.162-.063-.262-.063-.29 0-.477.186-.477.552 0 .03.002.07.006.11.067-.148.225-.231.411-.231.268 0 .454.157.454.404M128.135 130.799L128.135 130.898 127.571 132.146 127.421 132.146 127.975 130.922 127.282 130.922 127.282 131.174 127.146 131.174 127.146 130.799z"/>
        <path fill="#263238" d="M86.2 77.979L86.2 79.325 86.061 79.325 86.061 78.102 85.744 78.102 85.744 77.979zM87.454 78.652c0-.36-.161-.558-.396-.558-.235 0-.396.198-.396.558 0 .36.161.558.396.558.235 0 .396-.198.396-.558m-.933 0c0-.43.225-.685.537-.685.312 0 .539.256.539.685 0 .429-.227.685-.54.685-.311 0-.536-.256-.536-.685M87.776 79.23c0-.06.046-.105.101-.105.056 0 .105.045.105.104 0 .06-.049.106-.105.106-.055 0-.101-.046-.101-.106M89.094 78.652c0-.36-.162-.558-.397-.558-.234 0-.396.198-.396.558 0 .36.162.558.396.558.235 0 .397-.198.397-.558m-.934 0c0-.43.225-.685.537-.685.312 0 .54.256.54.685 0 .429-.228.685-.54.685-.312 0-.537-.256-.537-.685M90.367 78.652c0-.36-.161-.558-.396-.558-.235 0-.396.198-.396.558 0 .36.161.558.396.558.235 0 .396-.198.396-.558m-.933 0c0-.43.225-.685.537-.685.311 0 .539.256.539.685 0 .429-.228.685-.54.685-.311 0-.536-.256-.536-.685M91.64 78.652c0-.36-.16-.558-.396-.558-.234 0-.396.198-.396.558 0 .36.162.558.396.558.235 0 .397-.198.397-.558m-.933 0c0-.43.225-.685.536-.685.312 0 .54.256.54.685 0 .429-.228.685-.54.685-.311 0-.536-.256-.536-.685"/>
        <path fill="#E0E0E0" d="M134.578 131.39c.21 0 .335-.095.335-.24 0-.153-.133-.245-.335-.245-.204 0-.333.092-.333.242 0 .148.123.243.333.243m.381.379c0-.166-.142-.27-.38-.27-.24 0-.38.104-.38.27 0 .168.14.271.38.271.238 0 .38-.103.38-.271m.143.002c0 .239-.202.386-.524.386-.323 0-.52-.147-.52-.386 0-.162.093-.275.26-.331-.136-.054-.211-.156-.211-.296 0-.22.186-.357.471-.357s.476.137.476.357c0 .14-.078.242-.216.296.17.056.264.171.264.33M141.805 131.194c0-.149-.123-.29-.356-.29-.194 0-.329.114-.329.294 0 .176.13.29.339.29.206 0 .346-.127.346-.294m.19.267c0 .458-.25.696-.615.696-.121 0-.235-.02-.32-.072l.056-.112c.07.046.162.063.262.063.29 0 .477-.186.477-.552 0-.03-.002-.07-.006-.11-.067.149-.225.231-.412.231-.267 0-.453-.157-.453-.403 0-.253.198-.414.46-.414.357 0 .551.248.551.673M148.287 130.799L148.287 132.146 148.148 132.146 148.148 130.922 147.831 130.922 147.831 130.799zM149.54 131.473c0-.36-.16-.558-.395-.558-.235 0-.396.198-.396.558 0 .36.161.557.396.557.234 0 .396-.198.396-.557m-.933 0c0-.43.225-.685.537-.685.311 0 .538.256.538.685 0 .429-.227.684-.538.684-.312 0-.537-.255-.537-.684M155.017 130.799L155.017 132.146 154.878 132.146 154.878 130.922 154.561 130.922 154.561 130.799zM155.711 130.799L155.711 132.146 155.573 132.146 155.573 130.922 155.255 130.922 155.255 130.799zM161.95 130.799L161.95 132.146 161.812 132.146 161.812 130.922 161.494 130.922 161.494 130.799zM163.191 132.023v.123h-.944v-.098l.56-.549c.152-.15.18-.24.18-.332 0-.156-.11-.252-.315-.252-.158 0-.279.048-.367.15l-.098-.085c.104-.123.27-.192.477-.192.273 0 .446.138.446.363 0 .13-.04.245-.221.421l-.458.45h.74zM168.8 130.799L168.8 132.146 168.674 132.146 168.674 130.922 168.385 130.922 168.385 130.799zM169.905 131.76c0 .224-.149.397-.444.397-.178 0-.348-.066-.443-.173l.062-.109c.079.09.221.155.38.155.203 0 .316-.103.316-.27 0-.162-.103-.268-.331-.268h-.088v-.102l.34-.468h-.628v-.123h.79v.098l-.348.48c.263.014.394.167.394.382M175.807 130.799L175.807 132.146 175.669 132.146 175.669 130.922 175.351 130.922 175.351 130.799zM177.274 131.792L177.004 131.792 177.004 132.146 176.866 132.146 176.866 131.792 176.106 131.792 176.106 131.692 176.819 130.799 176.974 130.799 176.285 131.669 176.869 131.669 176.869 131.357 177.004 131.357 177.004 131.669 177.274 131.669zM182.695 130.799L182.695 132.146 182.557 132.146 182.557 130.922 182.239 130.922 182.239 130.799zM183.93 131.75c0 .228-.16.407-.488.407-.195 0-.38-.067-.483-.173l.067-.11c.086.091.24.156.414.156.229 0 .35-.11.35-.274 0-.174-.108-.281-.45-.281h-.287l.07-.676h.736v.123h-.615l-.047.43h.173c.406 0 .56.159.56.398M189.644 130.799L189.644 132.146 189.506 132.146 189.506 130.922 189.188 130.922 189.188 130.799zM190.84 131.748c0-.177-.13-.29-.338-.29-.206 0-.346.126-.346.294 0 .148.123.288.356.288.194 0 .329-.113.329-.292m.136-.004c0 .252-.198.413-.46.413-.357 0-.551-.248-.551-.673 0-.458.25-.696.615-.696.122 0 .235.02.32.073l-.056.111c-.07-.046-.162-.063-.262-.063-.29 0-.477.186-.477.552 0 .03.002.07.006.11.067-.148.225-.231.412-.231.267 0 .453.157.453.404M196.526 130.799L196.526 132.146 196.388 132.146 196.388 130.922 196.07 130.922 196.07 130.799zM197.798 130.799L197.798 130.898 197.234 132.146 197.084 132.146 197.638 130.922 196.946 130.922 196.946 131.174 196.809 131.174 196.809 130.799zM203.483 130.799L203.483 132.146 203.345 132.146 203.345 130.922 203.027 130.922 203.027 130.799zM204.317 131.39c.21 0 .334-.095.334-.24 0-.153-.132-.245-.334-.245-.205 0-.333.092-.333.242 0 .148.123.243.333.243m.38.379c0-.166-.142-.27-.38-.27-.24 0-.38.104-.38.27 0 .168.14.271.38.271.238 0 .38-.103.38-.271m.143.002c0 .239-.202.386-.523.386-.324 0-.52-.147-.52-.386 0-.162.093-.275.26-.331-.137-.054-.212-.156-.212-.296 0-.22.187-.357.472-.357.284 0 .475.137.475.357 0 .14-.077.242-.215.296.168.056.263.171.263.33M209.978 130.799L209.978 132.146 209.84 132.146 209.84 130.922 209.522 130.922 209.522 130.799zM211.08 131.194c0-.149-.122-.29-.355-.29-.194 0-.33.114-.33.294 0 .176.132.29.339.29.206 0 .347-.127.347-.294m.19.267c0 .458-.25.696-.616.696-.121 0-.234-.02-.32-.072l.057-.112c.069.046.161.063.262.063.29 0 .476-.186.476-.552 0-.03-.001-.07-.005-.11-.068.149-.225.231-.412.231-.268 0-.454-.157-.454-.403 0-.253.198-.414.46-.414.357 0 .552.248.552.673M217.02 132.023v.123h-.945v-.098l.56-.549c.152-.15.18-.24.18-.332 0-.156-.11-.252-.315-.252-.158 0-.279.048-.367.15l-.098-.085c.104-.123.27-.192.477-.192.273 0 .446.138.446.363 0 .13-.04.245-.221.421l-.458.45h.74zM218.118 131.473c0-.36-.162-.558-.396-.558-.235 0-.397.198-.397.558 0 .36.162.557.397.557.234 0 .396-.198.396-.557m-.933 0c0-.43.225-.685.537-.685.311 0 .538.256.538.685 0 .429-.227.684-.538.684-.312 0-.537-.255-.537-.684M223.514 132.023v.123h-.945v-.098l.56-.549c.152-.15.18-.24.18-.332 0-.156-.109-.252-.314-.252-.158 0-.28.048-.368.15l-.098-.085c.104-.123.271-.192.477-.192.274 0 .446.138.446.363 0 .13-.04.245-.22.421l-.459.45h.741zM224.06 130.799L224.06 132.146 223.922 132.146 223.922 130.922 223.604 130.922 223.604 130.799zM230.009 132.023v.123h-.945v-.098l.56-.549c.152-.15.18-.24.18-.332 0-.156-.11-.252-.315-.252-.157 0-.279.048-.367.15l-.098-.085c.104-.123.27-.192.477-.192.273 0 .446.138.446.363 0 .13-.04.245-.221.421l-.458.45h.74zM231.101 132.023v.123h-.945v-.098l.56-.549c.152-.15.181-.24.181-.332 0-.156-.11-.252-.315-.252-.158 0-.28.048-.368.15l-.098-.085c.104-.123.271-.192.477-.192.274 0 .446.138.446.363 0 .13-.04.245-.22.421l-.458.45h.74zM236.503 132.023v.123h-.945v-.098l.56-.549c.152-.15.18-.24.18-.332 0-.156-.11-.252-.315-.252-.157 0-.279.048-.367.15l-.098-.085c.104-.123.27-.192.477-.192.273 0 .446.138.446.363 0 .13-.04.245-.221.421l-.458.45h.74zM237.567 131.76c0 .224-.164.397-.49.397-.193 0-.38-.066-.484-.173l.067-.109c.087.09.243.155.418.155.223 0 .346-.103.346-.27 0-.162-.113-.268-.363-.268h-.097v-.102l.374-.468h-.69v-.123h.866v.098l-.38.48c.288.014.433.167.433.382M240.167 128.646c0 .063-34.575.113-77.216.113-42.656 0-77.224-.05-77.224-.113 0-.062 34.568-.112 77.224-.112 42.641 0 77.216.05 77.216.112"/>
        <path fill="#FFF" d="M185.169 121.696L190.794 121.696 190.794 80.565 185.169 80.565zM137.55 121.696L143.174 121.696 143.174 107.411 137.55 107.411z"/>
        <path fill="#263238" d="M96.882 78.943c0 .062-.58.113-1.295.113s-1.295-.05-1.295-.113c0-.062.58-.112 1.295-.112s1.295.05 1.295.112M107.198 78.943c0 .062-1.154.113-2.579.113-1.424 0-2.58-.05-2.58-.113 0-.062 1.156-.112 2.58-.112 1.425 0 2.58.05 2.58.112M117.517 78.943c0 .062-1.155.113-2.58.113s-2.58-.05-2.58-.113c0-.062 1.155-.112 2.58-.112s2.58.05 2.58.112M127.836 78.943c0 .062-1.155.113-2.58.113s-2.58-.05-2.58-.113c0-.062 1.155-.112 2.58-.112s2.58.05 2.58.112M138.155 78.943c0 .062-1.155.113-2.58.113s-2.58-.05-2.58-.113c0-.062 1.155-.112 2.58-.112s2.58.05 2.58.112M148.475 78.943c0 .062-1.155.113-2.58.113s-2.58-.05-2.58-.113c0-.062 1.155-.112 2.58-.112s2.58.05 2.58.112M158.795 78.943c0 .062-1.155.113-2.58.113s-2.58-.05-2.58-.113c0-.062 1.155-.112 2.58-.112s2.58.05 2.58.112M169.113 78.943c0 .062-1.155.113-2.58.113-1.424 0-2.58-.05-2.58-.113 0-.062 1.156-.112 2.58-.112 1.425 0 2.58.05 2.58.112M179.432 78.943c0 .062-1.155.113-2.58.113-1.424 0-2.58-.05-2.58-.113 0-.062 1.156-.112 2.58-.112 1.425 0 2.58.05 2.58.112M189.751 78.943c0 .062-1.155.113-2.58.113-1.424 0-2.58-.05-2.58-.113 0-.062 1.156-.112 2.58-.112 1.425 0 2.58.05 2.58.112M200.07 78.943c0 .062-1.154.113-2.58.113-1.424 0-2.58-.05-2.58-.113 0-.062 1.156-.112 2.58-.112 1.426 0 2.58.05 2.58.112M210.39 78.943c0 .062-1.155.113-2.58.113s-2.58-.05-2.58-.113c0-.062 1.155-.112 2.58-.112s2.58.05 2.58.112M220.711 78.943c0 .062-1.155.113-2.58.113s-2.58-.05-2.58-.113c0-.062 1.155-.112 2.58-.112s2.58.05 2.58.112M231.034 78.943c0 .062-1.155.113-2.58.113-1.426 0-2.581-.05-2.581-.113 0-.062 1.155-.112 2.58-.112 1.426 0 2.581.05 2.581.112M238.778 78.943c0 .062-.58.113-1.295.113s-1.295-.05-1.295-.113c0-.062.58-.112 1.295-.112s1.295.05 1.295.112"/>
        <path fill="#E8505B" d="M96.055 116.099c.044.044-1.175 1.334-2.722 2.88-1.547 1.548-2.836 2.766-2.88 2.722-.044-.044 1.174-1.333 2.722-2.881 1.546-1.546 2.836-2.765 2.88-2.721M108.23 116.193c.044.044-1.175 1.334-2.722 2.88-1.547 1.548-2.836 2.766-2.88 2.722-.044-.044 1.174-1.334 2.722-2.88 1.546-1.547 2.836-2.766 2.88-2.722M131.483 116.094c.044.044-1.174 1.334-2.721 2.88-1.547 1.548-2.837 2.766-2.88 2.722-.045-.044 1.174-1.333 2.721-2.88 1.547-1.547 2.836-2.766 2.88-2.722M95.979 111.123c.044.044-1.175 1.333-2.722 2.88s-2.836 2.765-2.88 2.722c-.044-.044 1.174-1.334 2.722-2.881 1.546-1.547 2.836-2.765 2.88-2.721M119.7 116.18c.045.044-1.174 1.334-2.72 2.88-1.548 1.548-2.837 2.766-2.881 2.722-.044-.044 1.174-1.333 2.721-2.88 1.547-1.547 2.836-2.766 2.88-2.722M119.625 111.204c.044.044-1.175 1.334-2.722 2.88-1.547 1.547-2.836 2.766-2.88 2.722-.044-.044 1.174-1.333 2.721-2.88 1.547-1.547 2.837-2.766 2.88-2.722M117.872 107.41c.044.045-.783.943-1.845 2.005-1.063 1.064-1.96 1.89-2.004 1.845-.044-.044.782-.94 1.845-2.004 1.063-1.063 1.96-1.89 2.004-1.845"/>
        <path fill="#FFF" d="M166.829 116.094c.044.044-1.175 1.334-2.721 2.88-1.547 1.548-2.837 2.766-2.88 2.722-.045-.044 1.173-1.333 2.72-2.88 1.547-1.547 2.837-2.766 2.881-2.722M166.753 111.118c.044.044-1.174 1.334-2.721 2.88-1.547 1.548-2.837 2.766-2.88 2.722-.044-.044 1.173-1.333 2.72-2.88 1.547-1.547 2.837-2.766 2.881-2.722M166.753 105.573c.044.044-1.174 1.333-2.721 2.88-1.547 1.547-2.837 2.765-2.88 2.722-.044-.044 1.173-1.334 2.72-2.881 1.547-1.547 2.837-2.766 2.881-2.721M166.829 100.21c.044.044-1.175 1.333-2.721 2.88-1.547 1.547-2.837 2.765-2.88 2.722-.045-.044 1.173-1.334 2.72-2.881 1.547-1.547 2.837-2.766 2.881-2.722M166.753 95.233c.044.044-1.174 1.334-2.721 2.88-1.547 1.548-2.837 2.766-2.88 2.723-.044-.045 1.173-1.334 2.72-2.882 1.547-1.546 2.837-2.765 2.881-2.72M166.753 89.688c.044.044-1.174 1.333-2.721 2.88-1.547 1.547-2.837 2.766-2.88 2.722-.044-.044 1.173-1.334 2.72-2.881 1.547-1.547 2.837-2.765 2.881-2.721"/>
        <path fill="#E8505B" d="M178.71 116.094c.044.044-1.174 1.334-2.721 2.88-1.547 1.548-2.837 2.766-2.88 2.722-.044-.044 1.174-1.333 2.721-2.88 1.547-1.547 2.836-2.766 2.88-2.722M178.634 111.118c.045.044-1.174 1.334-2.72 2.88-1.548 1.548-2.837 2.766-2.882 2.722-.043-.044 1.175-1.333 2.722-2.88s2.836-2.766 2.88-2.722M178.634 105.573c.045.044-1.174 1.333-2.72 2.88-1.548 1.547-2.837 2.765-2.882 2.722-.043-.044 1.175-1.334 2.722-2.881 1.547-1.547 2.836-2.766 2.88-2.721M178.71 100.21c.044.044-1.174 1.333-2.721 2.88-1.547 1.547-2.837 2.765-2.88 2.722-.044-.044 1.174-1.334 2.721-2.881 1.547-1.547 2.836-2.766 2.88-2.722M178.634 95.233c.045.044-1.174 1.334-2.72 2.88-1.548 1.548-2.837 2.766-2.882 2.723-.043-.045 1.175-1.334 2.722-2.882 1.547-1.546 2.836-2.765 2.88-2.72"/>
        <path fill="#263238" d="M202.299 116.094c.044.044-1.175 1.334-2.721 2.88-1.548 1.548-2.837 2.766-2.881 2.722-.044-.044 1.174-1.333 2.722-2.88 1.546-1.547 2.836-2.766 2.88-2.722M202.223 111.118c.044.044-1.175 1.334-2.721 2.88-1.548 1.548-2.837 2.766-2.881 2.722-.044-.044 1.174-1.333 2.722-2.88 1.546-1.547 2.836-2.766 2.88-2.722M202.223 105.573c.044.044-1.175 1.333-2.721 2.88-1.548 1.547-2.837 2.765-2.881 2.722-.044-.044 1.174-1.334 2.722-2.881 1.546-1.547 2.836-2.766 2.88-2.721M202.299 100.21c.044.044-1.175 1.333-2.721 2.88-1.548 1.547-2.837 2.765-2.881 2.722-.044-.044 1.174-1.334 2.722-2.881 1.546-1.547 2.836-2.766 2.88-2.722M202.223 95.233c.044.044-1.175 1.334-2.721 2.88-1.548 1.548-2.837 2.766-2.881 2.723-.044-.045 1.174-1.334 2.722-2.882 1.546-1.546 2.836-2.765 2.88-2.72M202.223 90.486c.044.044-1.175 1.333-2.721 2.88-1.548 1.547-2.837 2.766-2.881 2.722-.044-.044 1.174-1.334 2.722-2.881 1.546-1.547 2.836-2.765 2.88-2.721"/>
        <path fill="#E8505B" d="M154.713 116.094c.044.044-1.175 1.334-2.721 2.88-1.547 1.548-2.837 2.766-2.88 2.722-.045-.044 1.174-1.333 2.72-2.88 1.548-1.547 2.837-2.766 2.881-2.722M154.637 111.118c.044.044-1.174 1.334-2.721 2.88-1.547 1.548-2.837 2.766-2.88 2.722-.045-.044 1.174-1.333 2.72-2.88 1.548-1.547 2.837-2.766 2.881-2.722M154.637 105.573c.044.044-1.174 1.333-2.721 2.88-1.547 1.547-2.837 2.765-2.88 2.722-.045-.044 1.174-1.334 2.72-2.881 1.548-1.547 2.837-2.766 2.881-2.721M143.311 116.094c.044.044-1.175 1.334-2.721 2.88-1.548 1.548-2.837 2.766-2.881 2.722-.044-.044 1.175-1.333 2.722-2.88s2.836-2.766 2.88-2.722M143.235 111.118c.044.044-1.174 1.334-2.721 2.88-1.547 1.548-2.837 2.766-2.88 2.722-.045-.044 1.174-1.333 2.72-2.88 1.548-1.547 2.837-2.766 2.881-2.722M141.445 107.363c.044.044-.774.933-1.827 1.985-1.052 1.053-1.941 1.87-1.985 1.826-.044-.043.774-.932 1.826-1.985 1.053-1.052 1.941-1.87 1.986-1.826M154.713 100.21c.044.044-1.175 1.333-2.721 2.88-1.547 1.547-2.837 2.765-2.88 2.722-.045-.044 1.174-1.334 2.72-2.881 1.548-1.547 2.837-2.766 2.881-2.722M154.713 90.237c.044.044-1.175 1.333-2.721 2.88-1.547 1.547-2.837 2.766-2.88 2.722-.045-.044 1.174-1.334 2.72-2.88 1.548-1.548 2.837-2.766 2.881-2.722M154.637 95.233c.044.044-1.174 1.334-2.721 2.88-1.547 1.548-2.837 2.766-2.88 2.723-.045-.045 1.174-1.334 2.72-2.882 1.548-1.546 2.837-2.765 2.881-2.72M190.861 116.094c.044.044-1.174 1.334-2.721 2.88-1.547 1.548-2.837 2.766-2.88 2.722-.044-.044 1.174-1.333 2.72-2.88 1.548-1.547 2.837-2.766 2.881-2.722M190.785 111.118c.044.044-1.174 1.334-2.721 2.88-1.547 1.548-2.837 2.766-2.88 2.722-.044-.044 1.174-1.333 2.721-2.88 1.547-1.547 2.836-2.766 2.88-2.722M190.785 105.573c.044.044-1.174 1.333-2.721 2.88-1.547 1.547-2.837 2.765-2.88 2.722-.044-.044 1.174-1.334 2.721-2.881 1.547-1.547 2.836-2.766 2.88-2.721M190.861 100.21c.044.044-1.174 1.333-2.721 2.88-1.547 1.547-2.837 2.765-2.88 2.722-.044-.044 1.174-1.334 2.72-2.881 1.548-1.547 2.837-2.766 2.881-2.722M190.785 95.233c.044.044-1.174 1.334-2.721 2.88-1.547 1.548-2.837 2.766-2.88 2.723-.044-.045 1.174-1.334 2.721-2.882 1.547-1.546 2.836-2.765 2.88-2.72M190.785 89.688c.044.044-1.174 1.333-2.721 2.88-1.547 1.547-2.837 2.766-2.88 2.722-.044-.044 1.174-1.334 2.721-2.881 1.547-1.547 2.836-2.765 2.88-2.721M190.785 84.648c.044.044-1.174 1.333-2.721 2.88-1.547 1.547-2.837 2.766-2.88 2.722-.044-.044 1.174-1.334 2.721-2.88 1.547-1.548 2.836-2.766 2.88-2.722M189.828 80.565c.044.044-.96 1.12-2.243 2.402-1.282 1.283-2.358 2.287-2.402 2.243-.043-.044.96-1.12 2.243-2.402 1.282-1.282 2.358-2.287 2.402-2.243"/>
        <path fill="#FFF" d="M166.829 84.054c.044.044-1.175 1.334-2.721 2.88-1.547 1.548-2.837 2.766-2.88 2.722-.045-.044 1.173-1.333 2.72-2.88 1.547-1.547 2.837-2.766 2.881-2.722M166.753 79.078c.044.044-1.174 1.333-2.721 2.88-1.547 1.547-2.837 2.766-2.88 2.722-.044-.044 1.173-1.334 2.72-2.88 1.547-1.548 2.837-2.766 2.881-2.722M164.5 75.784c.045.044-.67.83-1.594 1.755-.926.925-1.71 1.64-1.755 1.595-.043-.044.67-.829 1.596-1.754.925-.925 1.71-1.64 1.754-1.596"/>
        <path fill="#E8505B" d="M214.932 116.298c.044.044-1.174 1.334-2.721 2.88-1.547 1.548-2.837 2.766-2.88 2.722-.045-.044 1.174-1.333 2.72-2.88 1.547-1.547 2.837-2.766 2.881-2.722M214.856 111.322c.044.044-1.174 1.334-2.721 2.88-1.547 1.548-2.837 2.766-2.88 2.722-.044-.044 1.174-1.333 2.72-2.88 1.548-1.547 2.837-2.766 2.881-2.722M214.825 105.808c.044.044-1.168 1.326-2.706 2.864-1.538 1.539-2.82 2.75-2.865 2.706-.044-.044 1.168-1.326 2.706-2.865 1.538-1.538 2.82-2.75 2.865-2.705M227.734 116.298c.044.044-1.175 1.334-2.721 2.88-1.548 1.548-2.837 2.766-2.881 2.722-.044-.044 1.175-1.333 2.722-2.88s2.836-2.766 2.88-2.722M227.658 111.322c.045.044-1.174 1.334-2.721 2.88-1.547 1.548-2.836 2.766-2.88 2.722-.045-.044 1.174-1.333 2.72-2.88 1.548-1.547 2.837-2.766 2.881-2.722M223.831 109.603c.022.022-.058.142-.205.318-.074.088-.164.19-.267.302l-.163.172-.088.09-.045.045-.023.023-.011.012-.006.006-.003.002h.001c-.07-.072.16.158-.158-.16l.001-.002.002-.001.159.158h.001l-.002.002-.006.006-.012.011-.023.023-.045.045-.09.088-.173.163c-.11.103-.213.193-.3.267-.177.147-.297.227-.319.205-.022-.022.058-.142.206-.318.073-.088.164-.19.267-.3l.163-.173.087-.09.046-.046.022-.023.012-.011.006-.006.002-.003v.001h-.001l.159.16-.002.001-.001.002c-.318-.318-.089-.088-.16-.159v.001l.002-.002.005-.006.012-.012.023-.022.046-.045.09-.088.172-.163c.11-.103.213-.194.301-.267.177-.147.296-.228.318-.206M239.59 116.298c.044.044-1.175 1.334-2.721 2.88-1.548 1.548-2.837 2.766-2.881 2.722-.044-.044 1.175-1.333 2.722-2.88s2.836-2.766 2.88-2.722M236.619 114.217c.044.044-.527.686-1.274 1.433-.748.747-1.389 1.318-1.433 1.274-.044-.044.526-.686 1.274-1.433.747-.747 1.389-1.318 1.433-1.274"/>
        <path fill="#263238" d="M262.02 35.172c0 .062-42.89.113-95.787.113-52.916 0-95.797-.05-95.797-.113 0-.062 42.881-.112 95.797-.112 52.896 0 95.788.05 95.788.112"/>
        <path fill="#EF4136" d="M136.67 61.678h-36.184c-1.106 0-2.003-.897-2.003-2.003v-9.437c0-1.106.897-2.003 2.003-2.003h36.183c1.107 0 2.003.897 2.003 2.003v9.437c0 1.106-.896 2.003-2.003 2.003"/>
        <path fill="#FFF" d="M106.053 55.015l1.207 2.049.808-.494-1.42-1.92 1.202-.365-2.918-1.802-.223.022.215-.018.275 3.498.854-.97zm1.058 2.646l-1.125-1.91-.452.52c-.116.133-.299.183-.467.129-.167-.056-.285-.205-.298-.381l-.275-3.498c-.013-.164.066-.32.208-.406.14-.087.315-.087.456 0l2.92 1.792c.148.091.226.255.204.429-.022.172-.14.31-.306.362l-.617.188 1.338 1.806-1.586.969zM113.478 60.696c-.063 0-.113-2.634-.113-5.882 0-3.249.05-5.882.113-5.882.062 0 .112 2.633.112 5.882 0 3.248-.05 5.882-.112 5.882M115.712 52.277c0-.436.332-.758.78-.758.218 0 .414.072.545.217l-.1.1c-.12-.123-.27-.176-.44-.176-.36 0-.63.264-.63.617s.27.617.63.617c.17 0 .32-.053.44-.179l.1.1c-.131.145-.327.22-.546.22-.447 0-.78-.322-.78-.758M117.343 53.022L117.495 53.022 117.495 51.442 117.343 51.442zM117.916 53.022h.152v-1.12h-.152v1.12zm-.033-1.473c0-.057.049-.107.11-.107.062 0 .11.047.11.105 0 .062-.046.11-.11.11-.061 0-.11-.048-.11-.108zM118.377 52.462c0-.334.243-.568.577-.568.189 0 .349.074.438.221l-.113.077c-.076-.113-.196-.166-.325-.166-.245 0-.424.174-.424.436 0 .264.179.436.424.436.13 0 .249-.051.325-.164l.113.077c-.09.145-.25.221-.438.221-.334 0-.577-.236-.577-.57M120.087 52.46L119.823 52.702 119.823 53.022 119.672 53.022 119.672 51.442 119.823 51.442 119.823 52.513 120.491 51.902 120.679 51.902 120.2 52.36 120.724 53.022 120.538 53.022zM120.763 52.894l.068-.12c.09.071.24.126.398.126.213 0 .3-.072.3-.183 0-.291-.725-.061-.725-.504 0-.183.157-.32.442-.32.145 0 .303.041.396.105l-.066.121c-.098-.068-.215-.096-.33-.096-.202 0-.291.08-.291.186 0 .302.726.074.726.504 0 .194-.17.32-.462.32-.186 0-.364-.06-.456-.14M116.934 55.084L116.934 58.345 116.328 58.345 116.328 55.592 115.639 55.592 115.639 55.084zM119.695 56.715c0-.787-.307-1.15-.755-1.15-.442 0-.75.363-.75 1.15 0 .787.308 1.15.75 1.15.448 0 .755-.363.755-1.15m-2.115 0c0-1.071.587-1.677 1.36-1.677.778 0 1.365.606 1.365 1.677 0 1.071-.587 1.677-1.365 1.677-.773 0-1.36-.606-1.36-1.677M120.639 57.991c0-.233.172-.387.382-.387.21 0 .382.154.382.387 0 .224-.173.387-.382.387-.21 0-.382-.163-.382-.387M124.164 57.344c0 .573-.414 1.048-1.29 1.048-.461 0-.927-.14-1.225-.378l.256-.47c.238.196.592.321.96.321.433 0 .69-.19.69-.498 0-.312-.201-.508-.876-.508h-.788l.168-1.774h1.915v.507h-1.403l-.07.755h.313c.964 0 1.35.419 1.35.997M126.627 56.715c0-.787-.307-1.15-.755-1.15-.442 0-.75.363-.75 1.15 0 .787.308 1.15.75 1.15.448 0 .755-.363.755-1.15m-2.115 0c0-1.071.587-1.677 1.36-1.677.778 0 1.365.606 1.365 1.677 0 1.071-.587 1.677-1.365 1.677-.773 0-1.36-.606-1.36-1.677M129.76 56.715c0-.787-.307-1.15-.755-1.15-.442 0-.75.363-.75 1.15 0 .787.308 1.15.75 1.15.448 0 .755-.363.755-1.15m-2.115 0c0-1.071.587-1.677 1.36-1.677.778 0 1.365.606 1.365 1.677 0 1.071-.587 1.677-1.365 1.677-.773 0-1.36-.606-1.36-1.677"/>
        <path fill="#E8505B" d="M184.977 61.678h-37.79c-.663 0-1.2-.537-1.2-1.2V49.435c0-.663.537-1.2 1.2-1.2h37.79c.663 0 1.2.537 1.2 1.2v11.043c0 .663-.537 1.2-1.2 1.2"/>
        <path fill="#2F3F45" d="M184.702 61.678h-37.24c-.815 0-1.475-.66-1.475-1.475V49.71c0-.814.66-1.474 1.475-1.474h37.24c.815 0 1.475.66 1.475 1.474v10.494c0 .815-.66 1.475-1.475 1.475"/>
        <path fill="#FFF" d="M164.357 52.043c0-.239-.158-.375-.456-.375h-.395v.745h.395c.298 0 .456-.136.456-.37m.157 0c0 .317-.23.508-.608.508h-.4v.47h-.158v-1.49h.558c.379 0 .608.193.608.512M164.856 52.396h.794c-.019-.22-.178-.372-.398-.372-.217 0-.376.153-.396.372m.937.113h-.937c.018.234.196.39.441.39.136 0 .258-.05.343-.148l.085.098c-.1.12-.255.183-.432.183-.35 0-.588-.238-.588-.57 0-.332.232-.568.547-.568.315 0 .543.232.543.568l-.002.047M166.669 51.894v.146l-.036-.002c-.235 0-.377.15-.377.413v.57h-.151v-1.119h.144v.22c.07-.15.213-.228.42-.228M167.131 51.77v.132h.345v.128h-.34v.992h-.151v-.992h-.2v-.128h.2v-.138c0-.2.12-.332.338-.332.083 0 .168.023.224.07l-.052.113c-.042-.036-.102-.055-.165-.055-.13 0-.199.072-.199.21M168.535 52.462c0-.262-.177-.436-.415-.436-.239 0-.417.174-.417.436s.178.436.417.436c.238 0 .415-.174.415-.436m-.986 0c0-.332.243-.568.57-.568.329 0 .569.236.569.568 0 .332-.24.57-.568.57-.328 0-.57-.238-.57-.57M169.562 51.894v.146l-.036-.002c-.234 0-.377.15-.377.413v.57H169v-1.119h.144v.22c.07-.15.213-.228.42-.228M171.682 52.372v.65h-.15v-.634c0-.237-.12-.358-.322-.358-.23 0-.374.149-.374.404v.587h-.152v-.633c0-.237-.119-.358-.323-.358-.228 0-.375.149-.375.404v.587h-.15v-1.119h.144v.204c.079-.133.223-.212.41-.212.186 0 .33.079.399.236.08-.145.24-.236.442-.236.273 0 .451.157.451.478M172.79 52.685v-.183h-.351c-.218 0-.288.085-.288.2 0 .13.105.21.283.21.17 0 .296-.08.356-.227m.15-.357v.694h-.144v-.175c-.068.115-.2.185-.385.185-.253 0-.408-.132-.408-.326 0-.172.11-.316.431-.316h.356v-.069c0-.191-.109-.296-.317-.296-.145 0-.281.051-.373.133l-.068-.113c.113-.096.279-.151.455-.151.29 0 .454.144.454.434M174.383 52.372v.65h-.151v-.634c0-.237-.124-.358-.336-.358-.241 0-.392.149-.392.404v.587h-.151v-1.119h.145v.207c.08-.136.232-.215.425-.215.273 0 .46.157.46.478M174.687 52.462c0-.334.242-.568.576-.568.19 0 .35.074.44.221l-.114.077c-.077-.113-.196-.166-.326-.166-.244 0-.423.174-.423.436 0 .264.179.436.423.436.13 0 .25-.051.326-.164l.113.077c-.09.145-.25.221-.439.221-.334 0-.576-.236-.576-.57M176.018 52.396h.794c-.02-.22-.179-.372-.398-.372-.217 0-.377.153-.396.372m.936.113h-.936c.017.234.196.39.44.39.137 0 .258-.05.343-.148l.086.098c-.101.12-.256.183-.433.183-.349 0-.587-.238-.587-.57 0-.332.232-.568.547-.568.315 0 .543.232.543.568 0 .013-.003.03-.003.047M164.005 55.974c0 .28.232.457.614.457.387 0 .625-.177.625-.457 0-.293-.252-.461-.625-.461-.372 0-.614.168-.614.461m1.341 1.417c0-.322-.28-.523-.727-.523-.447 0-.717.2-.717.523 0 .33.27.526.717.526.448 0 .727-.196.727-.526m.61.018c0 .606-.526.983-1.337.983-.81 0-1.327-.377-1.327-.983 0-.359.186-.624.522-.778-.261-.144-.406-.377-.406-.684 0-.56.49-.909 1.211-.909.727 0 1.221.35 1.221.909 0 .307-.15.54-.415.684.34.154.532.42.532.778M166.374 57.991c0-.233.172-.387.382-.387.21 0 .382.154.382.387 0 .224-.173.387-.382.387-.21 0-.382-.163-.382-.387M169.9 57.344c0 .573-.415 1.048-1.29 1.048-.462 0-.928-.14-1.226-.378l.256-.47c.238.196.592.321.96.321.433 0 .69-.19.69-.498 0-.312-.201-.508-.876-.508h-.788l.168-1.774h1.915v.507h-1.403l-.07.755h.312c.964 0 1.351.419 1.351.997M172.362 56.715c0-.787-.308-1.15-.755-1.15-.442 0-.75.363-.75 1.15 0 .787.308 1.15.75 1.15.447 0 .755-.363.755-1.15m-2.115 0c0-1.071.587-1.677 1.36-1.677.778 0 1.365.606 1.365 1.677 0 1.071-.587 1.677-1.365 1.677-.773 0-1.36-.606-1.36-1.677M175.495 56.715c0-.787-.308-1.15-.754-1.15-.443 0-.75.363-.75 1.15 0 .787.307 1.15.75 1.15.446 0 .754-.363.754-1.15m-2.115 0c0-1.071.587-1.677 1.36-1.677.779 0 1.365.606 1.365 1.677 0 1.071-.586 1.677-1.364 1.677-.774 0-1.36-.606-1.36-1.677M153.93 51.992h-.003c-.019 0-.053.008-.07.047l-.64 1.416c-.069.153-.21.263-.375.293l-1.528.276c-.043.008-.057.039-.062.056-.006.018-.01.053.022.081l1.15 1.046c.124.113.185.28.162.447l-.21 1.539c-.005.043.02.066.035.077.016.01.048.024.084.003l1.35-.77c.146-.083.323-.09.475-.016l1.4.675c.039.018.068.002.083-.01.014-.01.038-.036.028-.078l-.315-1.521c-.034-.165.015-.336.132-.458l1.074-1.122c.03-.03.024-.065.017-.082-.006-.018-.023-.047-.066-.052l-1.544-.17c-.167-.019-.314-.118-.394-.266L154 52.034c-.02-.036-.051-.042-.07-.042m-1.475 5.724c-.1 0-.199-.03-.286-.088-.162-.11-.246-.3-.22-.493l.21-1.54c.003-.025-.007-.051-.026-.069l-1.15-1.045c-.144-.132-.2-.331-.147-.52.055-.188.208-.327.401-.362l1.529-.276c.025-.005.047-.022.058-.046l.639-1.416c.08-.179.253-.294.449-.3.193-.006.375.096.468.269l.735 1.368c.012.023.035.039.062.042l1.544.17c.194.021.357.149.424.333.067.184.025.387-.11.529l-1.075 1.122c-.018.019-.026.045-.02.07l.315 1.522c.04.192-.032.386-.186.507-.156.121-.361.143-.538.057l-1.399-.674c-.024-.012-.05-.01-.074.002l-1.349.77c-.079.045-.166.068-.254.068"/>
        <path fill="#005B94" d="M232.11 61.678h-37.048c-.867 0-1.57-.703-1.57-1.57V49.805c0-.867.703-1.57 1.57-1.57h37.049c.867 0 1.57.703 1.57 1.57v10.303c0 .867-.703 1.57-1.57 1.57"/>
        <path fill="#FFF" d="M208.486 60.696c-.062 0-.112-2.634-.112-5.882 0-3.249.05-5.882.112-5.882.063 0 .113 2.633.113 5.882 0 3.248-.05 5.882-.113 5.882"/>
        <text fill="#FFF" font-family="SVN-Poppins" font-size="2.159" letter-spacing=".009">
            <tspan x="210.682" y="53.955">Study</tspan>
        </text>
        <path fill="#FFF" d="M212.832 57.362c0-.34-.256-.554-.652-.554-.391 0-.662.238-.662.56 0 .307.243.549.676.549.377 0 .638-.214.638-.555m.587-.027c0 .647-.526 1.057-1.192 1.057-.89 0-1.412-.573-1.412-1.621 0-1.118.652-1.733 1.598-1.733.326 0 .638.07.857.21l-.223.456c-.177-.116-.392-.158-.62-.158-.615 0-1.002.381-1.002 1.122v.005c.196-.228.508-.34.872-.34.642 0 1.122.391 1.122 1.002M213.762 57.991c0-.233.172-.387.382-.387.21 0 .382.154.382.387 0 .224-.173.387-.382.387-.21 0-.382-.163-.382-.387M217.288 57.344c0 .573-.415 1.048-1.29 1.048-.462 0-.928-.14-1.226-.378l.256-.47c.238.196.592.321.96.321.433 0 .69-.19.69-.498 0-.312-.2-.508-.876-.508h-.788l.168-1.774h1.915v.507h-1.402l-.07.755h.312c.964 0 1.35.419 1.35.997M219.75 56.715c0-.787-.307-1.15-.754-1.15-.443 0-.75.363-.75 1.15 0 .787.307 1.15.75 1.15.447 0 .754-.363.754-1.15m-2.115 0c0-1.071.587-1.677 1.36-1.677.779 0 1.365.606 1.365 1.677 0 1.071-.586 1.677-1.364 1.677-.774 0-1.36-.606-1.36-1.677M222.883 56.715c0-.787-.307-1.15-.754-1.15-.443 0-.75.363-.75 1.15 0 .787.307 1.15.75 1.15.447 0 .754-.363.754-1.15m-2.114 0c0-1.071.586-1.677 1.36-1.677.778 0 1.364.606 1.364 1.677 0 1.071-.586 1.677-1.364 1.677-.774 0-1.36-.606-1.36-1.677M201.512 52.838c-1.459 0-2.646 1.187-2.646 2.645 0 1.46 1.187 2.647 2.646 2.647 1.46 0 2.647-1.188 2.647-2.647 0-1.458-1.188-2.645-2.647-2.645m0 5.723c-1.697 0-3.078-1.38-3.078-3.078 0-1.697 1.38-3.077 3.078-3.077s3.078 1.38 3.078 3.077c0 1.698-1.38 3.078-3.078 3.078"/>
        <path fill="#FFF" d="M201.496 57.363c-.064 0-.125-.028-.166-.078l-1.306-1.578c-.076-.092-.063-.228.029-.305.09-.076.228-.063.303.03l1.128 1.362 1.03-1.437c.07-.097.205-.119.302-.049.096.07.119.204.05.301l-1.194 1.664c-.04.054-.101.088-.168.09h-.008"/>
        <path fill="#FFF" d="M201.477 57.304c-.12 0-.216-.097-.216-.216V54.05c0-.12.096-.216.216-.216.119 0 .215.097.215.216v3.038c0 .12-.096.216-.215.216"/>
        <path fill="#263238" d="M82.138 29.7c0 .64-.518 1.158-1.158 1.158-.64 0-1.157-.518-1.157-1.158 0-.64.518-1.158 1.157-1.158.64 0 1.158.519 1.158 1.158M86.167 29.7c0 .64-.518 1.158-1.158 1.158-.64 0-1.158-.518-1.158-1.158 0-.64.519-1.158 1.158-1.158.64 0 1.158.519 1.158 1.158M90.196 29.7c0 .64-.518 1.158-1.158 1.158-.64 0-1.158-.518-1.158-1.158 0-.64.519-1.158 1.158-1.158.64 0 1.158.519 1.158 1.158M234.474.861L234.453.855 234.696 0 234.717.006z"/>
        <g>
            <path fill="#FAFAFA" d="M0 45.584L96 45.584 96 1.584 0 1.584z" transform="translate(0 63)"/>
            <g>
                <path fill="#263238" d="M96.565 44.89s-.007-.272-.01-.793l-.01-2.306c-.007-2.028-.015-5.008-.026-8.845L96.466.503l.1.1L.4.638H.392L.53.503.522 44.89l-.13-.129 69.049.062 19.945.036 5.329.016c.603.003 1.063.005 1.378.008.31.002.472.007.472.007s-.151.006-.456.008l-1.363.008-5.302.016-19.917.036-69.135.062H.264v-.13L.257.503V.367H.4l96.165.037h.1v.099l-.054 32.504-.025 8.822-.01 2.288c-.004.515-.01.773-.01.773" transform="translate(0 63) translate(0 .584)"/>
                <path fill="#263238" d="M7.159 31.163L7.159 32.565 7.014 32.565 7.014 31.291 6.683 31.291 6.683 31.163zM8.468 31.864c0-.374-.168-.58-.413-.58-.245 0-.413.206-.413.58s.168.58.413.58c.245 0 .413-.206.413-.58m-.973 0c0-.446.235-.713.56-.713.324 0 .56.267.56.713 0 .447-.236.713-.56.713-.325 0-.56-.266-.56-.713M7.728 23.723v.128h-.984v-.102l.583-.57c.158-.156.189-.25.189-.346 0-.163-.115-.263-.329-.263-.165 0-.291.05-.383.156l-.102-.088c.108-.128.282-.2.497-.2.284 0 .465.144.465.378 0 .134-.042.254-.23.439l-.478.468h.772zM8.875 23.15c0-.374-.168-.58-.413-.58-.244 0-.413.206-.413.58 0 .375.169.581.413.581.245 0 .413-.206.413-.58m-.972 0c0-.447.235-.713.56-.713.324 0 .56.266.56.713 0 .446-.236.712-.56.712-.325 0-.56-.266-.56-.712M7.698 14.735c0 .234-.17.415-.51.415-.201 0-.396-.07-.504-.18l.07-.115c.09.094.253.162.435.162.233 0 .361-.108.361-.282 0-.168-.119-.278-.38-.278h-.1v-.106l.39-.487h-.718v-.128h.902v.102l-.397.499c.301.016.451.174.451.398M8.875 14.437c0-.374-.168-.58-.413-.58-.244 0-.413.206-.413.58s.169.58.413.58c.245 0 .413-.206.413-.58m-.972 0c0-.446.235-.713.56-.713.324 0 .56.267.56.713 0 .446-.236.712-.56.712-.325 0-.56-.266-.56-.712M14.328 36.462c0-.374-.168-.58-.413-.58-.245 0-.413.206-.413.58s.168.58.413.58c.245 0 .413-.206.413-.58m-.972 0c0-.446.234-.713.559-.713.324 0 .561.267.561.713 0 .446-.237.712-.561.712-.325 0-.56-.266-.56-.712M23.745 35.761L23.745 37.162 23.601 37.162 23.601 35.889 23.27 35.889 23.27 35.761zM34.696 37.034v.129h-.985v-.102l.584-.571c.158-.156.189-.25.189-.346 0-.163-.115-.263-.33-.263-.164 0-.29.05-.382.157l-.102-.089c.107-.128.282-.2.496-.2.285 0 .466.144.466.379 0 .133-.042.254-.23.438l-.478.468h.772zM45.048 36.76c0 .234-.171.415-.51.415-.202 0-.397-.07-.505-.18l.07-.115c.09.094.253.162.435.162.233 0 .362-.108.362-.282 0-.168-.12-.278-.38-.278h-.1v-.106l.389-.487h-.718v-.128h.902v.102l-.397.499c.301.016.452.174.452.398M55.694 36.794L55.413 36.794 55.413 37.163 55.269 37.163 55.269 36.794 54.477 36.794 54.477 36.69 55.221 35.761 55.381 35.761 54.663 36.666 55.273 36.666 55.273 36.342 55.413 36.342 55.413 36.666 55.694 36.666zM65.835 36.75c0 .238-.167.425-.51.425-.202 0-.395-.07-.503-.18l.07-.115c.09.094.251.162.431.162.24 0 .366-.116.366-.286 0-.18-.113-.292-.47-.292h-.299l.073-.703h.768v.128h-.642l-.048.447h.18c.423 0 .584.166.584.414M76.176 36.748c0-.184-.136-.302-.353-.302-.214 0-.36.132-.36.306 0 .154.128.3.37.3.203 0 .343-.118.343-.304m.143-.004c0 .262-.207.43-.48.43-.372 0-.575-.258-.575-.7 0-.477.26-.725.641-.725.127 0 .245.022.333.076l-.058.116c-.072-.048-.168-.066-.272-.066-.303 0-.498.195-.498.575 0 .032.002.072.006.114.07-.154.235-.24.43-.24.278 0 .473.164.473.42M86.636 35.761L86.636 35.863 86.049 37.162 85.892 37.162 86.47 35.889 85.748 35.889 85.748 36.152 85.605 36.152 85.605 35.761zM86.711 31.932c0 .075-16.247.136-36.284.136-20.045 0-36.288-.061-36.288-.136 0-.076 16.243-.136 36.288-.136 20.037 0 36.284.06 36.284.136M86.711 23.173c0 .076-16.247.136-36.284.136-20.045 0-36.288-.06-36.288-.136 0-.075 16.243-.136 36.288-.136 20.037 0 36.284.061 36.284.136M86.711 14.415c0 .075-16.247.136-36.284.136-20.045 0-36.288-.061-36.288-.136 0-.076 16.243-.136 36.288-.136 20.037 0 36.284.06 36.284.136" transform="translate(0 63) translate(0 .584)"/>
                <path fill="#E8505B" d="M14.139 31.804c0 .257-.209.465-.466.465-.258 0-.466-.208-.466-.465 0-.258.208-.466.466-.466.257 0 .466.208.466.466M24.573 31.804c0 .257-.208.465-.467.465-.257 0-.465-.208-.465-.465 0-.258.208-.466.465-.466.259 0 .467.208.467.466M35.007 31.804c0 .257-.209.465-.466.465-.258 0-.466-.208-.466-.465 0-.258.208-.466.466-.466.257 0 .466.208.466.466M45.44 31.804c0 .257-.207.465-.466.465-.257 0-.465-.208-.465-.465 0-.258.208-.466.465-.466.259 0 .467.208.467.466M55.875 31.804c0 .257-.208.465-.466.465-.257 0-.466-.208-.466-.465 0-.258.209-.466.466-.466.258 0 .466.208.466.466M76.743 31.804c0 .257-.208.465-.466.465-.257 0-.466-.208-.466-.465 0-.258.209-.466.466-.466.258 0 .466.208.466.466M66.309 31.804c0 .257-.208.465-.466.465s-.466-.208-.466-.465c0-.258.208-.466.466-.466s.466.208.466.466M87.178 31.804c0 .257-.21.465-.467.465s-.466-.208-.466-.465c0-.258.209-.466.466-.466.258 0 .467.208.467.466" transform="translate(0 63) translate(0 .584)"/>
                <path fill="#E0E0E0" d="M18.893 31.932c0 .169-.137.305-.305.305-.17 0-.307-.136-.307-.305 0-.169.137-.306.307-.306.168 0 .305.137.305.306M29.367 31.932c0 .169-.137.305-.306.305-.169 0-.306-.136-.306-.305 0-.169.137-.306.306-.306.169 0 .306.137.306.306M39.84 31.932c0 .169-.137.305-.306.305-.169 0-.306-.136-.306-.305 0-.169.137-.306.306-.306.169 0 .306.137.306.306M50.314 31.932c0 .169-.137.305-.307.305-.168 0-.305-.136-.305-.305 0-.169.137-.306.305-.306.17 0 .307.137.307.306M60.787 31.932c0 .169-.137.305-.306.305-.169 0-.306-.136-.306-.305 0-.169.137-.306.306-.306.169 0 .306.137.306.306M71.26 31.932c0 .169-.137.305-.306.305-.168 0-.306-.136-.306-.305 0-.169.138-.306.306-.306.17 0 .306.137.306.306M81.734 31.932c0 .169-.138.305-.306.305-.17 0-.306-.136-.306-.305 0-.169.137-.306.306-.306.168 0 .306.137.306.306" transform="translate(0 63) translate(0 .584)"/>
                <path fill="#E8505B" d="M25.25 28.06c0 .63-.512 1.141-1.144 1.141-.63 0-1.142-.51-1.142-1.141 0-.63.511-1.141 1.142-1.141.632 0 1.144.51 1.144 1.141M34.353 22.697c0 .63-.512 1.14-1.143 1.14s-1.143-.51-1.143-1.14c0-.63.512-1.141 1.143-1.141s1.143.51 1.143 1.14M45.652 23.173c0 .63-.512 1.141-1.143 1.141-.632 0-1.143-.51-1.143-1.14 0-.631.511-1.142 1.143-1.142.631 0 1.143.51 1.143 1.141M56.683 13.424c0 .63-.512 1.141-1.143 1.141-.632 0-1.143-.51-1.143-1.141 0-.63.511-1.141 1.143-1.141.631 0 1.143.51 1.143 1.14M66.986 19.624c0 .63-.512 1.141-1.143 1.141s-1.143-.51-1.143-1.14c0-.631.512-1.142 1.143-1.142.63 0 1.143.511 1.143 1.141M77.42 21.275c0 .63-.512 1.141-1.143 1.141s-1.143-.51-1.143-1.14c0-.631.512-1.142 1.143-1.142s1.143.51 1.143 1.141" transform="translate(0 63) translate(0 .584)"/>
                <path fill="#E8505B" d="M87.178 28.06s-.092.01-.27 0c-.176-.013-.44-.034-.779-.105-.668-.137-1.698-.425-2.713-1.287-.505-.427-.967-1.018-1.333-1.731-.37-.701-.813-1.445-1.397-2.159-.588-.692-1.349-1.402-2.359-1.643-.497-.12-1.04-.099-1.56.056-.521.162-1.01.448-1.448.818-.89.742-1.544 1.796-2.406 2.753-.432.475-.934.937-1.567 1.216-.63.272-1.362.356-2.06.17-.714-.191-1.257-.789-1.568-1.439-.323-.655-.503-1.367-.676-2.08-.176-.71-.319-1.445-.622-2.11-.152-.329-.363-.636-.668-.8-.312-.168-.684-.206-1.055-.204-.752.04-1.508.256-2.294.405-.393.07-.794.14-1.21.137-.41.002-.843-.048-1.23-.239-.404-.162-.712-.485-.977-.816-.236-.35-.44-.721-.598-1.109-.33-.77-.55-1.58-.85-2.356-.156-.383-.32-.768-.553-1.103-.232-.332-.535-.612-.905-.753-.095-.028-.188-.062-.285-.086l-.301-.028c-.2-.011-.383.027-.558.114-.35.178-.614.517-.836.871-.432.728-.718 1.557-.969 2.395-.249.84-.458 1.7-.66 2.568-.334 1.436-.63 2.87-1.001 4.271-.187.701-.387 1.395-.643 2.07-.26.669-.558 1.344-1.083 1.88-.267.258-.632.458-1.03.456-.38 0-.744-.135-1.055-.32-.627-.377-1.089-.931-1.482-1.497-.79-1.14-1.298-2.412-1.79-3.627-.5-1.203-1.065-2.395-1.999-3.21-.914-.81-2.229-1.113-3.354-.818-.568.143-1.104.397-1.596.702-.498.296-.959.643-1.393 1.006-.87.727-1.646 1.522-2.327 2.336l-.004.005-.002.003c-1.114 1.11-2.28 2.05-3.447 2.859-1.168.803-2.349 1.462-3.53 1.909-1.178.435-2.363.693-3.455.575-1.085-.106-2.04-.402-2.878-.695-1.677-.608-2.908-1.263-3.739-1.707-.413-.226-.725-.408-.932-.534-.207-.126-.308-.2-.308-.2s.112.055.325.172l.946.506c.837.424 2.075 1.06 3.748 1.647.837.284 1.787.567 2.85.662 1.06.107 2.224-.152 3.381-.589 1.161-.447 2.326-1.105 3.48-1.908 1.151-.805 2.31-1.75 3.402-2.847l-.006.007c.691-.833 1.467-1.634 2.349-2.376.44-.37.907-.725 1.419-1.031.503-.315 1.057-.582 1.659-.734 1.208-.318 2.592 0 3.577.861.99.865 1.565 2.09 2.072 3.3.497 1.221.998 2.465 1.77 3.576.38.55.83 1.078 1.399 1.418.283.167.599.283.923.282.314 0 .603-.156.84-.383.467-.475.765-1.128 1.018-1.781.249-.661.447-1.349.632-2.044.367-1.392.664-2.824.999-4.263.202-.87.412-1.735.664-2.585.254-.847.542-1.689.999-2.458.237-.375.52-.752.946-.972.21-.107.46-.156.69-.141l.34.033c.112.026.221.065.33.098.434.166.78.491 1.032.853.251.365.42.765.58 1.159.304.794.523 1.6.844 2.35.317.738.725 1.486 1.44 1.79.699.338 1.524.219 2.285.087.77-.143 1.533-.363 2.333-.403.399-.003.814.037 1.183.237.374.204.61.564.77.913.321.711.458 1.45.633 2.159.17.71.346 1.409.652 2.032.297.62.782 1.15 1.422 1.325.633.172 1.326.099 1.909-.153.59-.256 1.074-.694 1.5-1.158.85-.933 1.514-1.994 2.436-2.758.456-.381.973-.68 1.52-.846.549-.16 1.127-.18 1.654-.049 1.068.265 1.84 1.006 2.435 1.714.589.731 1.03 1.486 1.395 2.196.355.708.797 1.286 1.287 1.712.985.856 1.997 1.16 2.656 1.313.334.078.596.109.77.13.176.02.267.022.267.028" transform="translate(0 63) translate(0 .584)"/>
                <path fill="#263238" d="M25.36 8.413c0 .075-4.05.136-9.047.136-4.997 0-9.047-.06-9.047-.136 0-.075 4.05-.136 9.047-.136 4.996 0 9.047.06 9.047.136" transform="translate(0 63) translate(0 .584)"/>
            </g>
        </g>
        <g>
            <path fill="#FFFFFE" d="M9.192 89.342c.733-1.514.603-3.107.14-4.55-.444-1.477-1.236-2.748-2.094-4.137-.868-1.37-1.752-2.864-2.295-4.661-.55-1.82-.392-3.859.113-5.583 1.092-3.517 3.328-6.11 4.868-8.762.772-1.341 1.404-2.704 1.652-4.212.28-1.494.185-3.086-.549-4.585 1.273 1.114 1.89 2.918 1.972 4.665.08 1.766-.366 3.557-1.042 5.13-1.338 3.196-3.342 5.788-4.122 8.592-.441 1.388-.55 2.732-.237 4.078.262 1.38.984 2.773 1.633 4.284.689 1.474 1.348 3.178 1.494 4.93.15 1.728-.246 3.68-1.533 4.811" transform="translate(254 70)"/>
            <path fill="#D83847" d="M14.832 119.568H4.92c-2.717 0-4.919-2.203-4.919-4.92V91.275h19.752v23.373c0 2.717-2.203 4.92-4.92 4.92" transform="translate(254 70)"/>
            <path fill="#D83847" d="M21.13 111.975c-3.047 0-5.517-2.506-5.517-5.599 0-3.092 2.47-5.599 5.517-5.599 3.048 0 5.518 2.507 5.518 5.6 0 3.092-2.47 5.598-5.518 5.598m0-14.3c-4.736 0-8.575 3.895-8.575 8.701 0 4.806 3.84 8.702 8.575 8.702 4.737 0 8.577-3.896 8.577-8.702s-3.84-8.702-8.577-8.702" transform="translate(254 70)"/>
            <path fill="#DF5B66" d="M2.953 108.83c-.588 0-1.068-.482-1.068-1.07V93.991c0-.587.48-1.067 1.068-1.067.588 0 1.068.48 1.068 1.067v13.77c0 .587-.48 1.068-1.068 1.068" transform="translate(254 70)"/>
            <path fill="#C4242B" d="M14.749 119.568h-4.562c2.763 0 5.003-2.24 5.003-5.003v-1.912c1.223 1.192 2.796 2.02 4.546 2.31-.204 2.577-2.358 4.605-4.987 4.605m5.003-7.77c-2.38-.621-4.14-2.813-4.14-5.422 0-2.608 1.76-4.8 4.14-5.423v10.845m-4.562-11.699v-8.824h4.562v6.51c-1.757.29-3.335 1.118-4.562 2.314" transform="translate(254 70)"/>
            <path fill="#C4242B" d="M19.736 114.964c-1.75-.29-3.323-1.119-4.546-2.311v-12.554c1.227-1.196 2.805-2.025 4.562-2.313v3.167c-2.38.622-4.14 2.815-4.14 5.423 0 2.609 1.76 4.801 4.14 5.422v2.767c0 .134-.006.267-.016.399" transform="translate(254 70)"/>
            <path fill="#3DC8E8" d="M37.486 6.774c-1.812-.01-3.57-.243-4.813-2.022-2.437-3.49-6.157-6.623-10.328-3.074-2.405 2.047-.596 6.257-2.667 8.283-1.832 1.79-4.16 1.494-5.096 4.467-1.377 4.373 2.964 8.205 4.359 11.987 1.17 3.174-1.462 4.382-2.644 6.855-.91 1.907-.442 3.949.55 5.772 1.752 3.213 5.633 5.8 4.734 9.962-.751 3.473-1.45 6.568 1.615 9.2 2.101 1.805 6 3.45 5.703 6.789-.105 1.182-.924 2.19-1.148 3.354-.355 1.844.84 3.64 2.227 4.905 3.155 2.88 5.927 5.595 8.293 9.218 1.009 1.549 5.053 5.044 3.438 7.16 2.937-3.847 6.043-7.578 8.712-11.622 2.195-3.327 5.506-8.193 3.252-12.29-.7-1.273-2.003-2.223-2.36-3.633-.646-2.546 1.856-4.907 2.786-7.073 1.46-3.4.388-7.35-2.183-9.902-1.217-1.209-2.538-2.537-2.717-4.241-.195-1.862.972-3.598 1.503-5.316.488-1.583.792-3.267.97-4.911.125-1.16.175-2.35-.098-3.485-.52-2.16-2.465-3.361-3.905-4.894-3.427-3.648-1.626-7.939-3.123-12.178-1.344-3.807-4.265-3.295-7.06-3.311" transform="translate(254 70)"/>
            <g transform="translate(254 70) translate(14.24)">
                <mask id="qyxjutzfnb" fill="#fff">
                    <use xlink:href="#tce162pdda"/>
                </mask>
                <path fill="#26A8D1" d="M28.165 93.997c.35-4.02.516-8.047.516-12.072 0-10.625-1.154-21.24-3.111-31.675-2.574-13.717-5.951-27.49-11.078-40.51-1.694-4.3-3.598-8.526-5.76-12.617l-.587.311c2.15 4.066 4.042 8.268 5.729 12.55 5.104 12.964 8.473 26.695 11.041 40.388 1.952 10.401 3.101 20.977 3.101 31.553 0 4.008-.165 8.015-.513 12.013l.662.059" mask="url(#qyxjutzfnb)"/>
                <path fill="#26A8D1" d="M-3.19 17.152c7.153 2.525 13.977 5.985 20.24 10.262.81.553 1.436.91 2.009 1.296.574.387 1.102.799 1.75 1.482l.483-.457c-.68-.718-1.261-1.173-1.862-1.577-.602-.403-1.218-.755-2.005-1.293-6.311-4.31-13.185-7.795-20.393-10.339l-.222.626M24.636 45.312c-6.93-4.478-14.787-7.51-22.929-8.85l-.108.656c8.05 1.324 15.825 4.324 22.677 8.752l.36-.558M27.4 64.158c-6.457-5.595-14.323-9.543-22.667-11.377l-.142.649c8.234 1.81 16.002 5.709 22.373 11.23l.435-.502" mask="url(#qyxjutzfnb)"/>
                <path fill="#26A8D1" d="M21.027 29.504c.498-7.677 2.409-15.262 5.608-22.258l-.605-.277c-3.232 7.07-5.163 14.734-5.667 22.492l.664.043M24.67 45.096c3.238-6.93 7.92-13.185 13.654-18.246l-.439-.499c-5.805 5.124-10.54 11.45-13.818 18.464l.603.281M27.935 65.013c.443-2.12 1.22-4.17 2.293-6.05 1.25-2.19 2.895-4.145 4.583-6.062 1.217-1.382 2.453-2.744 3.71-4.088l-.486-.455c-1.261 1.35-2.502 2.717-3.722 4.103-1.694 1.926-3.372 3.914-4.662 6.171-1.107 1.942-1.91 4.057-2.368 6.244l.652.137" mask="url(#qyxjutzfnb)"/>
            </g>
            <path fill="#26A8D1" d="M59.744 33.362c1.316.242 2.624.318 3.77-.8 2.251-2.195 5.384-3.953 7.918-.8 1.462 1.817-.434 4.62.788 6.376 1.081 1.553 2.811 1.66 3.078 3.946.394 3.363-3.285 5.541-4.82 8.091-1.288 2.14.453 3.383.969 5.34.396 1.509-.226 2.925-1.198 4.11-1.715 2.088-4.89 3.428-4.813 6.571.064 2.623.142 4.965-2.445 6.45-1.774 1.018-4.83 1.671-5.076 4.135-.087.872.366 1.716.368 2.592.002 1.387-1.113 2.522-2.294 3.25-2.688 1.65-5.074 3.237-7.29 5.538-.949.983-4.366 2.959-3.486 4.718-1.599-3.197-3.335-6.333-4.711-9.637-1.133-2.716-2.86-6.703-.659-9.364.685-.827 1.762-1.336 2.215-2.31.82-1.757-.667-3.815-1.042-5.515-.588-2.669.737-5.385 2.956-6.88 1.049-.708 2.19-1.49 2.556-2.701.4-1.324-.207-2.744-.353-4.064-.136-1.216-.123-2.479-.024-3.697.069-.86.198-1.728.553-2.514.677-1.495 2.253-2.096 3.51-3.01 2.991-2.17 2.277-5.533 3.951-8.401 1.501-2.575 3.55-1.799 5.579-1.424" transform="translate(254 70)"/>
            <g transform="translate(254 70) translate(38.703 30.047)">
                <mask id="myu0n1pcnd" fill="#fff">
                    <use xlink:href="#7tzj22rjfc"/>
                </mask>
                <path fill="#3DC8E8" d="M5.976 65.96c1.092-10.72 3.966-21.195 7.9-31.22 3.758-9.573 8.101-19.063 13.594-27.753 1.814-2.87 3.767-5.653 5.887-8.303l-.519-.415C30.7.94 28.734 3.743 26.908 6.632c-5.525 8.741-9.883 18.269-13.65 27.865C9.307 44.567 6.414 55.1 5.314 65.893l.662.068" mask="url(#myu0n1pcnd)"/>
                <path fill="#3DC8E8" d="M38.693 13.93c-5.588.85-11.063 2.427-16.245 4.683-.641.28-1.136.45-1.631.661-.496.212-.99.466-1.587.895l.387.54c.561-.402.993-.624 1.46-.823.465-.198.97-.372 1.637-.662 5.13-2.234 10.55-3.796 16.08-4.636l-.1-.657M14.916 31.612c5.23-2.12 10.873-3.218 16.517-3.218.37 0 .74.005 1.109.014l.017-.665c-.376-.009-.751-.014-1.126-.014-5.73 0-11.457 1.114-16.767 3.266l.25.617M10.376 44.864c5.372-3.115 11.535-4.865 17.742-5.038l-.018-.663c-6.32.175-12.587 1.954-18.058 5.126l.334.575" mask="url(#myu0n1pcnd)"/>
                <path fill="#3DC8E8" d="M20.079 20.181c.24-1.936.36-3.886.36-5.837 0-3.8-.455-7.602-1.359-11.294l-.646.158c.89 3.64 1.34 7.388 1.34 11.136 0 1.923-.118 3.847-.355 5.755l.66.082M15.264 30.773c-1.409-5.553-3.974-10.807-7.482-15.337l-.525.407c3.452 4.456 5.976 9.63 7.364 15.094l.643-.164M10.158 44.9c-.03-1.66-.32-3.313-.858-4.884-.627-1.826-1.571-3.506-2.534-5.137-.694-1.175-1.405-2.34-2.134-3.494l-.562.355c.726 1.149 1.433 2.307 2.123 3.477.959 1.623 1.879 3.265 2.478 5.015.516 1.503.794 3.09.822 4.68l.665-.012" mask="url(#myu0n1pcnd)"/>
            </g>
            <path fill="#FFDB85" d="M31.551 92.248L58.446 92.248 53.728 119.164 36.27 119.164 31.551 92.248M28.259 92.248L61.738 92.248 61.738 84.694 28.259 84.694z" transform="translate(254 70)"/>
            <path fill="#E8E8E3" d="M57.82 95.818l.626-3.57-.626 3.57m-25.643 0l-.626-3.57.626 3.57" transform="translate(254 70)"/>
            <path fill="#DFB040" d="M57.82 95.818L32.177 95.818 31.551 92.248 58.446 92.248 57.82 95.818" transform="translate(254 70)"/>
        </g>
    </g>
</svg>
