<svg xmlns="http://www.w3.org/2000/svg" xmlns:xlink="http://www.w3.org/1999/xlink" width="421" height="281" viewBox="0 0 421 281">
    <defs>
        <path id="oko91xq92a" d="M0.565 0.555L62.359 0.555 62.359 57.867 0.565 57.867z"/>
        <path id="5jei0d7agc" d="M0.056 0.192L16.743 0.192 16.743 13.976 0.056 13.976z"/>
    </defs>
    <g fill="none" fill-rule="evenodd">
        <g>
            <path fill="#ECECEC" d="M80.422 236.96C95.619 223.64 97 201.875 94.231 182.751c-.462-3.19-.482-6.608-2.316-9.252-1.835-2.641-5.602-4.17-8.323-2.505-2.255 1.383-2.987 4.266-4.066 6.7-1.435 3.242-3.795 6.053-6.723 8.007-1.923 1.284-4.376 2.21-6.512 1.32-2.933-1.22-3.68-5.001-4.01-8.191L60.425 161c-.331-3.188-.681-6.443-2.006-9.358-1.324-2.915-3.824-5.483-6.949-5.998-3.126-.514-6.682 1.647-6.977 4.837-.124 1.327.289 2.645.346 3.977.059 1.333-.397 2.865-1.613 3.372-1.23.514-2.605-.249-3.66-1.077-3.644-2.854-6.334-6.753-8.874-10.645-2.54-3.892-5.03-7.889-8.402-11.069-3.371-3.18-7.806-5.506-12.398-5.26-4.593.244-9.145 3.598-9.804 8.205-.661 4.62 2.464 8.889 5.716 12.21 4.827 4.93 10.36 9.15 16.368 12.484 1.082.603 2.256 1.253 2.77 2.391.927 2.048-.853 4.38-2.874 5.31-2.288 1.053-4.893 1.09-7.344 1.657-2.453.566-5.024 1.96-5.705 4.412-.946 3.4 2.154 6.514 5.081 8.454 5.862 3.887 12.38 6.748 19.183 8.422 2.438.6 4.989 1.08 7.06 2.518 2.072 1.438 3.53 4.177 2.635 6.547-.896 2.373-3.747 3.415-6.254 3.23-2.504-.184-4.85-1.275-7.287-1.9-4.56-1.17-10.183-.245-12.571 3.85-1.569 2.691-1.349 6.173-.09 9.035 1.259 2.864 3.432 5.209 5.7 7.343 7.927 7.461 17.644 13.1 28.192 15.501 10.546 2.403 20.064 2.317 29.753-2.488" opacity=".5" transform="translate(0 .163)"/>
            <path fill="#E1E1E1" d="M82.243 251.163c-1.534-7.527-4.192-16.324-8.103-25.69-3.893-9.375-9.014-19.297-14.725-29.491l-4.258-7.534c-1.402-2.468-2.793-4.917-4.302-7.227-2.998-4.636-6.233-8.865-9.43-12.782-3.195-3.921-6.372-7.525-9.365-10.872-3.003-3.343-5.86-6.407-8.583-9.087-5.431-5.384-10.317-9.2-13.778-11.682-1.729-1.248-3.101-2.17-4.04-2.784l-1.072-.691c-.243-.152-.37-.226-.376-.218-.006.009.11.1.343.269l1.04.74c.915.645 2.266 1.598 3.972 2.871 3.414 2.537 8.242 6.39 13.62 11.795 2.697 2.693 5.53 5.765 8.512 9.118 2.976 3.36 6.133 6.97 9.31 10.89 3.176 3.917 6.39 8.137 9.364 12.752 1.497 2.3 2.873 4.728 4.278 7.204l4.252 7.53c5.707 10.186 10.83 20.078 14.739 29.413 3.926 9.325 6.614 18.072 8.195 25.562" transform="translate(0 .163)"/>
            <path fill="#E1E1E1" d="M50.685 181.217c.04.001.095-.494.161-1.394.07-.9.129-2.203.178-3.815.101-3.222.088-7.677.055-12.589-.034-4.915.017-9.357.167-12.569.07-1.606.14-2.905.2-3.803.054-.898.065-1.398.025-1.403-.04-.005-.128.487-.253 1.38-.13.892-.264 2.192-.387 3.8-.257 3.216-.374 7.677-.34 12.596l.116 12.58c.005 1.515.008 2.79.01 3.815.005.9.027 1.4.068 1.402" transform="translate(0 .163)"/>
            <path fill="#E1E1E1" d="M8.87 178.078c.004.041.594.045 1.656.016 1.061-.023 2.597-.063 4.496-.053 3.797-.008 9.043.163 14.822.605 5.78.453 10.994 1.086 14.751 1.652 1.882.27 3.398.53 4.448.702 1.049.177 1.632.257 1.642.217.008-.042-.561-.196-1.598-.445-1.04-.242-2.548-.566-4.427-.89-3.752-.676-8.975-1.376-14.774-1.832-5.795-.442-11.063-.548-14.87-.43-1.905.044-3.443.148-4.504.242-1.06.1-1.644.174-1.642.216M73.553 224.775c.02.007.096-.176.225-.53l.538-1.56c.46-1.356 1.076-3.336 1.803-5.792 1.459-4.91 3.26-11.759 5.147-19.342 1.888-7.587 3.623-14.442 4.978-19.376.666-2.4 1.214-4.374 1.62-5.842l.434-1.592c.091-.365.131-.56.112-.568-.02-.005-.097.177-.227.532l-.537 1.559c-.46 1.356-1.075 3.336-1.803 5.792-1.459 4.912-3.26 11.76-5.147 19.346-1.888 7.584-3.623 14.438-4.977 19.374-.667 2.399-1.214 4.374-1.621 5.84l-.433 1.592c-.092.366-.131.56-.112.567" transform="translate(0 .163)"/>
            <path fill="#E1E1E1" d="M17.175 213.233c-.003.021.191.077.565.164l1.639.356 6.039 1.246c5.098 1.054 12.124 2.589 19.884 4.296 7.762 1.71 14.809 3.182 19.93 4.13 2.561.474 4.637.838 6.076 1.06l1.66.246c.38.05.582.064.585.044.003-.02-.192-.075-.565-.164-.44-.094-.982-.211-1.639-.354l-6.038-1.247c-5.098-1.053-12.125-2.588-19.887-4.297-7.76-1.708-14.806-3.18-19.927-4.128-2.562-.476-4.637-.839-6.078-1.06-.665-.098-1.213-.181-1.66-.246-.379-.05-.58-.066-.584-.046" transform="translate(0 .163)"/>
            <g transform="translate(0 .163) translate(68.205)">
                <mask id="5e1m96sveb" fill="#fff">
                    <use xlink:href="#oko91xq92a"/>
                </mask>
                <path fill="#ECECEC" d="M19.238 0.555L62.359 27.916 44.741 57.867 0.565 28.802z" mask="url(#5e1m96sveb)"/>
            </g>
            <path fill="#E1E1E1" d="M130.564 27.915c.001.007-.053.022-.16.045l-.475.095-1.836.333-6.78 1.155-22.519 3.697-.154.025-.052-.148-.361-1.039-7.699-22.266-2.292-6.761-.606-1.845c-.06-.194-.109-.352-.148-.483-.032-.11-.045-.166-.039-.168.006-.002.03.05.075.156l.183.47.672 1.822 2.405 6.722 7.801 22.23.362 1.038-.206-.122 22.536-3.585 6.799-1.04 1.847-.263.482-.06c.108-.01.165-.013.165-.008" transform="translate(0 .163)"/>
            <path fill="#E1E1E1" d="M68.77 28.802c-.025-.1 5.827-1.65 13.069-3.46 7.244-1.81 13.135-3.196 13.16-3.095.025.1-5.826 1.648-13.07 3.459-7.242 1.809-13.134 3.196-13.16 3.096M112.947 57.867c-.102.016-1.091-5.815-2.21-13.023-1.117-7.21-1.94-13.065-1.839-13.081.102-.016 1.091 5.814 2.21 13.024 1.117 7.207 1.94 13.065 1.839 13.08" transform="translate(0 .163)"/>
            <path fill="#F5F5F5" d="M373.422 82.505L414.716 75.791 420.229 103.718 377.361 109.963z" transform="translate(0 .163)"/>
            <path fill="#E1E1E1" d="M414.716 75.79c.01.009-.096.159-.308.437l-.938 1.206-3.515 4.404-11.768 14.525-.099.121-.137-.076-.787-.439-16.827-9.453-5.077-2.901-1.371-.806c-.313-.187-.473-.291-.467-.303.006-.011.18.07.503.238l1.406.743c1.247.68 2.993 1.632 5.135 2.798l16.88 9.357c.27.151.539.3.787.44l-.236.045 11.856-14.453 3.605-4.33.993-1.163c.23-.263.355-.397.365-.39" transform="translate(0 .163)"/>
            <path fill="#E1E1E1" d="M377.361 109.963c-.085-.058 2.643-4.2 6.092-9.249 3.45-5.051 6.316-9.098 6.401-9.04.085.059-2.642 4.199-6.092 9.25-3.45 5.05-6.316 9.097-6.401 9.039" transform="translate(0 .163)"/>
            <g transform="translate(0 .163) translate(403.487 89.744)">
                <mask id="oe4e3z4s8d" fill="#fff">
                    <use xlink:href="#5jei0d7agc"/>
                </mask>
                <path fill="#E1E1E1" d="M16.742 13.975c-.066.08-3.854-2.941-8.461-6.746C3.672 3.423-.01.274.057.194.123.114 3.91 3.134 8.518 6.94c4.608 3.806 8.29 6.955 8.224 7.035" mask="url(#oe4e3z4s8d)"/>
            </g>
        </g>
        <path fill="#EF4136" d="M258.539 48.297L329.148 29.374 343.635 76.957 270.207 95.34z"/>
        <g>
            <path fill="#1A2E35" d="M260.874 66.46c-.09-.05 3.796-7.362 8.68-16.33 4.884-8.97 8.916-16.2 9.007-16.151.09.05-3.795 7.36-8.68 16.33-4.883 8.968-8.916 16.2-9.007 16.15M334.302 48.076c-.057.086-7.16-4.565-15.862-10.389-8.705-5.824-15.713-10.614-15.656-10.7.058-.085 7.158 4.566 15.863 10.39 8.703 5.823 15.713 10.613 15.655 10.7" transform="translate(9.333 28.88)"/>
            <path fill="#1A2E35" d="M249.206 19.416c.003-.005.082.027.235.096l.674.314 2.576 1.238 9.443 4.619 31.091 15.362.378.188-.24.066 18.649-28.911 5.679-8.725 1.56-2.36.412-.61c.095-.136.147-.203.152-.2.005.003-.036.078-.12.222l-.382.628-1.5 2.398-5.58 8.79-18.556 28.97-.09.14-.15-.073c-.12-.06-.248-.124-.378-.187L262.017 25.92l-9.39-4.725-2.545-1.302-.658-.347c-.147-.08-.221-.124-.218-.13" transform="translate(9.333 28.88)"/>
            <path fill="#EF4136" d="M5.63 39.361L74.919 46.29 71.796 93.568 0.177 85.209z" transform="translate(9.333 28.88)"/>
            <path fill="#1A2E35" d="M.177 85.209c-.067-.079 5.856-5.287 13.229-11.633C20.78 67.23 26.812 62.15 26.879 62.227c.068.078-5.854 5.286-13.23 11.633C6.278 80.205.246 85.287.178 85.209M71.796 93.568c-.084.06-4.848-6.476-10.64-14.596C55.362 70.85 50.735 64.22 50.819 64.16c.084-.06 4.847 6.474 10.641 14.597 5.792 8.12 10.42 14.753 10.336 14.812" transform="translate(9.333 28.88)"/>
            <path fill="#1A2E35" d="M5.63 39.36c.004-.003.065.052.178.165l.496.506 1.88 1.97 6.86 7.295c5.779 6.199 13.737 14.735 22.528 24.162.093.1.186.202.273.294l-.248-.023 26.359-19.474 8.001-5.86 2.185-1.576.574-.402c.13-.089.199-.132.203-.127.004.005-.057.058-.18.157l-.552.433c-.509.387-1.228.934-2.144 1.633l-7.93 5.953L37.819 74.03l-.134.1-.114-.122-.274-.294L14.85 49.476 8.076 42.1 6.25 40.082l-.469-.53c-.104-.122-.154-.187-.15-.191" transform="translate(9.333 28.88)"/>
        </g>
        <g>
            <path fill="#EF4136" d="M386.892.735s-6.217-4.038-13.633 10.816c-7.416 14.855-10.2 23.41-10.2 23.41s-1.968 3.116-4.114 1.107c-2.145-2.008-5.109-7.73-8.719-6.665-3.744 1.104-4.945 5.302-4.178 11.451.767 6.148 1.953 19.681 2.055 20.906.101 1.201-.573 2.978-2.254 1.844-1.681-1.134-11.384-11.76-16.152-6.855-4.768 4.906.183 21.685.689 23.53.506 1.844.151 2.636-.724 3.1-.874.466-3.8-3.414-6.682-6.323-2.884-2.91-6.738-5.778-9.251-2.717-2.514 3.061-3.222 15.687 8.958 36.084l6.263 9.082 11.058-.707c23.572-2.953 33.089-11.28 33.955-15.145.865-3.865-3.767-5.137-7.835-5.62-4.068-.482-8.926-.4-9.098-1.375-.172-.975.234-1.743 2-2.48 1.765-.735 18.036-7.159 18.969-13.936.933-6.778-13.416-7.886-15.344-8.512-1.928-.628-.941-2.253.067-2.913 1.028-.672 12.424-8.066 17.742-11.246 5.318-3.18 7.888-6.71 6.455-10.34-1.383-3.501-7.717-2.315-10.62-2.771-2.904-.455-1.657-3.923-1.657-3.923s5.027-7.46 12.172-22.447C393.958 3.103 386.76.661 386.76.661" transform="translate(23.692 138.727)"/>
            <path fill="#1A2E35" d="M380.229 14.026s-.04.112-.133.322l-.423.93c-.386.83-.945 2.025-1.66 3.558-1.445 3.089-3.569 7.542-6.215 13.034-5.287 10.988-12.72 26.103-20.986 42.769-8.268 16.671-15.739 31.768-21.088 42.725-2.662 5.47-4.82 9.9-6.32 12.981l-1.723 3.527-.456.913c-.105.205-.168.306-.168.306s.04-.112.133-.322l.423-.93 1.66-3.557c1.445-3.088 3.568-7.542 6.214-13.035 5.288-10.986 12.723-26.103 20.99-42.774 8.265-16.667 15.736-31.762 21.084-42.718l6.32-12.981c.744-1.52 1.322-2.706 1.724-3.528l.456-.914c.105-.204.168-.306.168-.306" transform="translate(23.692 138.727)"/>
            <path fill="#1A2E35" d="M354.05 37.575c.025-.008.127.258.29.744.166.486.383 1.195.644 2.074.516 1.758 1.167 4.206 1.833 6.921l1.677 6.956.518 2.105c.124.496.18.775.156.782-.024.008-.129-.256-.295-.742-.165-.486-.383-1.196-.634-2.077-.5-1.765-1.118-4.22-1.784-6.935l-1.726-6.941-.529-2.102c-.12-.5-.175-.778-.15-.785M360.183 57.345c-.03-.099 4.957-1.665 11.137-3.497 6.18-1.833 11.213-3.238 11.243-3.138.03.1-4.956 1.664-11.138 3.496-6.178 1.833-11.213 3.238-11.242 3.14M346.334 82.37c.001-.025.29-.043.814-.05l2.214-.016c1.868-.014 4.448-.043 7.294-.178 2.848-.127 5.42-.331 7.282-.491l2.206-.188c.521-.04.811-.05.815-.025.003.025-.282.085-.799.17-.516.084-1.265.193-2.194.305-1.858.229-4.437.475-7.293.603-2.854.135-5.444.122-7.314.069-.936-.031-1.693-.064-2.215-.104-.523-.036-.81-.07-.81-.095M336.85 65.709c.022-.014.179.205.442.61.264.406.636.999 1.087 1.736.904 1.473 2.128 3.522 3.462 5.796 1.334 2.275 2.523 4.345 3.368 5.852.421.754.758 1.367.983 1.796.225.428.338.671.317.683-.022.014-.179-.204-.442-.61-.264-.406-.635-.998-1.087-1.735-.903-1.473-2.128-3.522-3.462-5.797-1.333-2.274-2.523-4.344-3.367-5.852-.422-.754-.759-1.367-.984-1.795-.225-.428-.338-.671-.316-.684M321.818 86.248c.022-.013.22.268.557.788l1.399 2.218c1.167 1.884 2.757 4.496 4.493 7.395 1.738 2.9 3.292 5.535 4.402 7.452l1.297 2.28c.3.543.454.85.431.862-.021.014-.219-.267-.556-.787l-1.399-2.219c-1.167-1.882-2.757-4.496-4.495-7.395-1.736-2.899-3.29-5.534-4.4-7.451l-1.297-2.281c-.299-.543-.454-.849-.432-.862M334.239 106.657c-.001-.026.366-.056 1.028-.088l2.807-.12c2.369-.103 5.64-.255 9.246-.523 3.608-.262 6.867-.583 9.225-.83l2.794-.29c.66-.066 1.028-.09 1.03-.064.004.026-.356.098-1.01.208-.656.11-1.606.252-2.782.408-2.353.315-5.615.679-9.23.942-3.612.268-6.892.378-9.265.413-1.188.015-2.148.016-2.812.001-.664-.013-1.031-.032-1.031-.057" transform="translate(23.692 138.727)"/>
            <path fill="#FF4F5B" d="M25.881 98.946c-3.417.466-6.49 2.371-8.953 4.786-1.323 1.298-2.569 2.84-2.8 4.679-.228 1.839.967 3.952 2.814 4.098 1.1.086 2.131-.507 3.027-1.151 2.163-1.556 4.312-3.638 6.975-3.548 1.52.051 3.054.832 4.501.366 1.416-.456 2.247-2.062 2.127-3.544-.12-1.483-1.02-2.808-2.137-3.789 0 0-2.111-2.365-5.554-1.897" transform="translate(23.692 138.727)"/>
            <path fill="#000" d="M25.881 98.946c-3.417.466-6.49 2.371-8.953 4.786-1.323 1.298-2.569 2.84-2.8 4.679-.228 1.839.967 3.952 2.814 4.098 1.1.086 2.131-.507 3.027-1.151 2.163-1.556 4.312-3.638 6.975-3.548 1.52.051 3.054.832 4.501.366 1.416-.456 2.247-2.062 2.127-3.544-.12-1.483-1.02-2.808-2.137-3.789 0 0-2.111-2.365-5.554-1.897" transform="translate(23.692 138.727)"/>
            <path fill="#FF4F5B" d="M23.843 83.815c.003 3.269-3.488 4.635-5.809 4.267-2.32-.367-4.266-1.895-6.095-3.37C7.76 81.34 3.425 77.768 1.31 72.832.679 71.357.26 69.738.495 68.15c.234-1.588 1.225-3.131 2.73-3.687 1.783-.658 3.75.16 5.41 1.086 4.874 2.726 9.128 6.553 12.351 11.113 1.505 2.13 2.825 4.546 2.857 7.153" transform="translate(23.692 138.727)"/>
            <path fill="#FFF" d="M23.843 83.815c.003 3.269-3.488 4.635-5.809 4.267-2.32-.367-4.266-1.895-6.095-3.37C7.76 81.34 3.425 77.768 1.31 72.832.679 71.357.26 69.738.495 68.15c.234-1.588 1.225-3.131 2.73-3.687 1.783-.658 3.75.16 5.41 1.086 4.874 2.726 9.128 6.553 12.351 11.113 1.505 2.13 2.825 4.546 2.857 7.153" opacity=".4" transform="translate(23.692 138.727)"/>
            <path fill="#EF4136" d="M30.263 84.003c-3.053-.808-5.393-3.47-6.39-6.467-.996-2.997-.8-6.28-.077-9.353.848-3.605 2.407-7.041 4.561-10.053.847-1.185 1.816-2.33 3.083-3.05 1.267-.72 2.89-.952 4.184-.284 1.915.987 2.46 3.433 2.694 5.575.415 3.773.532 7.579.35 11.37-.146 3.05-.534 6.23-2.243 8.76-1.708 2.532-4.207 4.13-6.58 3.378" transform="translate(23.692 138.727)"/>
            <path fill="#1A2E35" d="M47.141 116.8c-.028.021-.323-.301-.838-.9l-2.17-2.53c-.93-1.055-2.051-2.3-3.409-3.558-1.353-1.256-2.973-2.51-4.75-3.688-1.792-1.153-3.626-2.056-5.389-2.571-1.76-.526-3.443-.618-4.808-.394-1.369.21-2.423.646-3.117.998-.68.38-1.072.58-1.092.552-.02-.028.333-.282.998-.724.677-.41 1.74-.912 3.154-1.177 1.409-.277 3.168-.218 4.99.3 1.828.506 3.714 1.421 5.538 2.594 1.807 1.2 3.43 2.475 4.793 3.773 1.36 1.296 2.463 2.575 3.363 3.664.896 1.094 1.584 2.005 2.052 2.64.468.636.712 1 .685 1.02" transform="translate(23.692 138.727)"/>
            <path fill="#1A2E35" d="M45.486 114.84c-.014.01-.135-.144-.35-.444l-.924-1.324c-.801-1.148-1.966-2.807-3.465-4.813-2.977-4.027-7.3-9.437-12.343-15.177-5.051-5.738-9.887-10.695-13.533-14.126-.902-.87-1.735-1.637-2.476-2.299-.735-.67-1.367-1.249-1.902-1.701l-1.21-1.068c-.273-.248-.412-.385-.401-.399.01-.013.17.098.465.321l1.272.997c.555.43 1.207.988 1.962 1.64.76.644 1.612 1.394 2.532 2.248C18.83 82.069 23.719 87 28.78 92.75c5.055 5.752 9.344 11.21 12.254 15.3 1.465 2.037 2.588 3.73 3.341 4.915l.846 1.377c.189.317.28.488.265.498" transform="translate(23.692 138.727)"/>
            <path fill="#1A2E35" d="M37.781 103.917c-.029.018-.368-.476-.958-1.388-.571-.923-1.35-2.29-2.201-4.036-.834-1.752-1.77-3.872-2.607-6.301-.87-2.417-1.648-5.14-2.245-8.046-1.256-5.808-1.26-11.275-.619-15.112.101-.97.38-1.814.547-2.567.098-.374.17-.727.274-1.041l.315-.85c.382-1.018.608-1.572.64-1.559.129.043-.876 2.252-1.425 6.07-.543 3.807-.485 9.198.76 14.958.592 2.88 1.35 5.587 2.19 7.995.807 2.421 1.702 4.54 2.49 6.302.806 1.755 1.532 3.14 2.049 4.088.536.938.82 1.468.79 1.487" transform="translate(23.692 138.727)"/>
        </g>
        <g>
            <path fill="#1A2E35" d="M290.456 191.7H22.953c-5.777 0-10.459-4.682-10.459-10.459V11.428C12.494 5.653 17.176.97 22.954.97h267.502c5.776 0 10.459 4.683 10.459 10.458v169.813c0 5.777-4.683 10.459-10.459 10.459" transform="translate(55 85.163)"/>
            <path fill="#1A2E35" d="M300.137 194.282H13.21c-7.058 0-12.778-5.72-12.778-12.778v-3.91h312.482v3.91c0 7.057-5.721 12.778-12.778 12.778" transform="translate(55 85.163)"/>
            <path fill="#375A64" d="M20.237 169.616L292.367 169.616 292.367 8.547 20.237 8.547zM128.272 177.593L132.15 183.762 186.713 183.762 190.314 177.593z" transform="translate(55 85.163)"/>
            <path fill="#ECECEC" d="M284.972 169.101H28.192c-1.299 0-2.351-1.052-2.351-2.35v-150.4c0-1.298 1.052-2.35 2.35-2.35h256.78c1.299 0 2.35 1.052 2.35 2.35v150.4c0 1.298-1.051 2.35-2.35 2.35" transform="translate(55 85.163)"/>
            <path fill="#FAFAFA" d="M25.841 169.101L287.321 169.101 287.321 25.365 25.841 25.365z" transform="translate(55 85.163)"/>
            <path fill="#375A64" d="M47.287 19.99c0 1.154-.935 2.089-2.089 2.089-1.153 0-2.088-.935-2.088-2.089 0-1.153.935-2.087 2.088-2.087 1.154 0 2.089.934 2.089 2.087M34.63 19.99c0 1.154-.934 2.089-2.088 2.089-1.153 0-2.089-.935-2.089-2.089 0-1.153.936-2.087 2.089-2.087 1.154 0 2.088.934 2.088 2.087M40.705 19.99c0 1.154-.934 2.089-2.088 2.089-1.153 0-2.088-.935-2.088-2.089 0-1.153.935-2.087 2.088-2.087 1.154 0 2.088.934 2.088 2.087M298.437 177.593c0 .104-64.016.188-142.965.188-78.976 0-142.978-.084-142.978-.188 0-.103 64.002-.187 142.978-.187 78.949 0 142.965.084 142.965.187" transform="translate(55 85.163)"/>
        </g>
        <g>
            <path fill="#FAFAFA" d="M14.632 177.935c-.103-.007-.024-2.352.175-5.236.2-2.886.445-5.218.548-5.211.104.007.025 2.352-.174 5.237-.2 2.884-.445 5.218-.549 5.21" transform="translate(117.744 25.291)"/>
            <path fill="#005B94" d="M149.286 187.362l2.578-25.143 16.24 25.195-18.818-.052zm-93.548-28.429l-.589 26.47-16.501.045 17.09-26.515zM198.043 164c-14.683-22.714-29.94-48.19-29.94-48.19-13.265-16.186-23.985-21.84-44.894-22.718h-.001l-40.69-.17c-7.997.448-26.575-3.674-43.792 21.041l-.078-.12s-15.256 25.477-29.94 48.19C-7.754 187.5 2.096 213.948 19.685 215.49c17.787 1.56 28.813 2.034 34.723 2.167l-.281 11.403 94.334-.156-.964-12.77c9.464-.015 35.661-.103 39.532-.582 17.523-2.17 27.479-26.085 11.015-51.552z" transform="translate(117.744 25.291)"/>
            <path fill="#1A2E35" d="M121.625 91.88c.013 0 .016.203.008.592.006.389-.035.96-.118 1.693-.09.733-.254 1.622-.512 2.64-.292 1.008-.658 2.15-1.223 3.348-1.12 2.384-2.913 5.08-5.654 7.29-2.714 2.215-6.427 3.812-10.485 4.045-4.047.256-7.964-.857-10.855-2.856-2.922-1.98-4.856-4.605-6.05-6.952-1.175-2.378-1.662-4.492-1.85-5.952-.09-.733-.137-1.304-.134-1.693-.011-.388-.011-.591.002-.591s.037.202.072.587c.023.386.093.95.204 1.675.23 1.442.752 3.523 1.942 5.854 1.208 2.3 3.133 4.863 6.007 6.786 2.84 1.94 6.672 3.02 10.639 2.769 3.978-.23 7.617-1.782 10.292-3.94 2.703-2.155 4.495-4.795 5.63-7.135.574-1.176.953-2.3 1.262-3.29.274-1.003.457-1.88.57-2.605.103-.725.167-1.291.186-1.677.032-.385.054-.588.067-.588M151.563 165.79c-.103-.004.29-10.867.878-24.26.59-13.398 1.15-24.252 1.253-24.247.102.004-.29 10.866-.88 24.263-.587 13.394-1.147 24.25-1.25 24.245M57.668 117.283c.013 0 .026.15.038.433l.036 1.242c.024 1.079.037 2.64.034 4.569-.007 3.858-.104 9.189-.376 15.07-.274 5.883-.67 11.2-1.02 15.043-.176 1.92-.333 3.474-.457 4.546l-.151 1.233c-.038.282-.065.429-.078.427-.012-.001-.011-.15.003-.434l.08-1.24.339-4.555c.283-3.844.637-9.16.91-15.038.272-5.875.412-11.2.485-15.055l.085-4.566.035-1.242c.012-.284.024-.433.037-.433M144.012 215.16c-.012 0-.036-.183-.073-.535l-.148-1.553-.49-5.804-1.57-19.913-.015-.198.198.004 9.282.145 26.29.484c3.341.079 6.056.143 7.967.19.918.03 1.642.052 2.165.07l.563.027c.127.009.193.016.193.023 0 .006-.066.011-.193.016l-.563.009h-2.166l-7.968-.071-26.292-.373c-3.224-.056-6.353-.109-9.282-.158l.183-.195 1.437 19.922.385 5.812.087 1.557c.018.355.02.54.01.541" transform="translate(117.744 25.291)"/>
            <path fill="#1A2E35" d="M184.78 182.657c-.005.066-1.018 0-2.646.087-1.625.084-3.867.38-6.245 1.099-2.375.728-4.402 1.732-5.798 2.569-1.4.834-2.205 1.453-2.245 1.401-.016-.02.172-.192.526-.485.352-.297.89-.69 1.58-1.142 1.375-.903 3.416-1.962 5.829-2.7 2.413-.73 4.699-.99 6.344-1.006.823-.01 1.49.016 1.948.068.457.046.708.084.706.11M59.803 217.836c-.005-.001-.003-.056.006-.165l.052-.48.232-1.851.927-6.85 3.248-23.068.179.211-5.028-.07c-10.423-.071-19.862.12-26.695.085-3.416-.008-6.181-.051-8.092-.097l-2.198-.072-.572-.029c-.129-.008-.195-.015-.195-.023.001-.005.067-.01.196-.015l.573-.008 2.199.001 8.089-.021c6.83-.033 16.266-.265 26.698-.195l5.033.074.21.004-.03.208-3.37 23.05-1.039 6.834-.296 1.841-.086.475c-.021.107-.035.162-.04.16" transform="translate(117.744 25.291)"/>
            <path fill="#1A2E35" d="M38.237 185.745c-.034.035-.597-.426-1.447-1.237-.85-.81-1.979-1.978-3.14-3.343-1.162-1.367-2.134-2.669-2.797-3.637-.664-.97-1.028-1.6-.988-1.627.045-.03.486.545 1.202 1.47.714.926 1.713 2.193 2.867 3.552 1.155 1.357 2.246 2.546 3.045 3.4.798.854 1.295 1.382 1.258 1.422" transform="translate(117.744 25.291)"/>
            <path fill="#FAFAFA" d="M80.415 124.402c-.092.046-1.416-2.396-2.957-5.455-1.542-3.06-2.716-5.577-2.624-5.623.092-.047 1.416 2.395 2.958 5.455 1.54 3.06 2.715 5.577 2.623 5.623M120.82 123.86c.032.033-.496.621-1.427 1.495-.929.876-2.271 2.024-3.845 3.176-1.575 1.15-3.077 2.081-4.192 2.702-1.115.622-1.836.947-1.859.905-.026-.049.65-.456 1.724-1.132 1.075-.675 2.543-1.634 4.107-2.777 1.56-1.143 2.92-2.251 3.89-3.07.97-.82 1.562-1.34 1.601-1.3M140.237 120.345c-.082.063-1.923-2.226-4.11-5.11-2.188-2.887-3.895-5.276-3.813-5.339.082-.062 1.922 2.226 4.11 5.112 2.188 2.885 3.895 5.275 3.813 5.337M138.904 145.58c.049.09-1.844 1.217-4.228 2.516-2.384 1.3-4.357 2.28-4.406 2.189-.05-.091 1.843-1.219 4.227-2.517 2.384-1.3 4.357-2.28 4.407-2.189M166.897 147.67c-.104-.003-.124-3.07-.045-6.85.079-3.781.226-6.843.33-6.841.102.002.122 3.068.044 6.85-.078 3.78-.225 6.843-.33 6.84M178.5 167.257c.007.104-3.298.386-7.379.631-4.083.247-7.396.362-7.402.259-.006-.103 3.297-.386 7.38-.632 4.08-.245 7.395-.361 7.401-.258M197.288 181.79c-.103.007-.39-3.142-.641-7.031-.252-3.892-.372-7.05-.269-7.057.103-.007.39 3.142.642 7.032.251 3.89.372 7.05.268 7.056M189.371 200.027c.071.075-2.27 2.427-5.23 5.252-2.96 2.828-5.417 5.058-5.489 4.983-.07-.075 2.27-2.426 5.23-5.253 2.96-2.826 5.418-5.057 5.49-4.982M158.124 205.878c-.019.042-.544-.149-1.333-.582-.79-.432-1.831-1.13-2.848-2.06-1.015-.933-1.801-1.91-2.3-2.659-.5-.748-.735-1.255-.696-1.278.1-.066 1.245 1.84 3.248 3.661 1.987 1.837 3.986 2.813 3.93 2.918M76.104 140.734c.067.078-2.053 2-4.734 4.293-2.682 2.294-4.91 4.089-4.978 4.01-.066-.078 2.053-2 4.735-4.293 2.682-2.293 4.91-4.088 4.977-4.01M95.997 150.553c-.074.06-1.121-1.195-1.929-3.026-.817-1.826-1.048-3.445-.954-3.458.11-.025.497 1.524 1.296 3.306.788 1.787 1.678 3.114 1.587 3.178M61.119 100.921c.064.08-2.609 2.344-5.97 5.054-3.364 2.711-6.141 4.843-6.206 4.762-.065-.08 2.608-2.342 5.97-5.053 3.363-2.71 6.141-4.843 6.206-4.763M47.317 138.68c-.107.036-.923-2.362-2.297-5.153-1.362-2.798-2.756-4.912-2.661-4.975.04-.028.44.468 1.01 1.323.568.855 1.296 2.078 1.987 3.487.69 1.41 1.21 2.734 1.536 3.71.326.973.471 1.593.425 1.608M41.6 154.519c.017.043-.656.36-1.794.753-1.135.392-2.742.838-4.554 1.14-1.814.3-3.479.4-4.68.395-1.203-.002-1.943-.085-1.941-.13.001-.058.742-.07 1.933-.134s2.832-.203 4.626-.5c1.792-.3 3.39-.699 4.538-1.024 1.148-.324 1.852-.553 1.872-.5M26.456 194.482c.055.087-2.723 1.933-6.203 4.122-3.482 2.19-6.348 3.895-6.403 3.808-.055-.088 2.722-1.933 6.204-4.124 3.48-2.19 6.347-3.893 6.402-3.806M46.102 208.978c-.097.035-1.547-3.727-3.237-8.402-1.69-4.677-2.982-8.495-2.885-8.53.097-.036 1.545 3.726 3.236 8.402 1.691 4.676 2.983 8.495 2.886 8.53M67.243 178.815c-.093.043-1.138-2.016-2.332-4.597-1.195-2.584-2.087-4.712-1.994-4.755.094-.044 1.138 2.014 2.333 4.597 1.194 2.583 2.087 4.712 1.993 4.755M147.14 165.784c.047.023-.195.635-.599 1.616-.403.981-.96 2.336-1.543 3.844s-1.08 2.885-1.442 3.883c-.361.997-.592 1.613-.644 1.597-.047-.013.095-.658.393-1.68.298-1.021.76-2.42 1.344-3.935.586-1.515 1.184-2.86 1.651-3.817.466-.957.795-1.53.84-1.508M80.006 224.123c-.006.057-.761.018-1.98.007-1.217-.013-2.9.026-4.744.222-1.846.2-3.498.517-4.687.786-1.187.269-1.917.466-1.934.413-.015-.044.689-.333 1.87-.669 1.18-.337 2.844-.7 4.711-.902 1.866-.198 3.569-.196 4.794-.114 1.225.079 1.975.211 1.97.257M99.361 225.514c-.102.057-1.21-1.96-3.064-4.078-1.84-2.13-3.683-3.508-3.612-3.6.027-.038.525.258 1.26.834.735.574 1.696 1.444 2.634 2.52.936 1.08 1.664 2.152 2.131 2.96.468.808.693 1.341.651 1.364M120.743 219.87c.053.088-1.914 1.369-4.392 2.86-2.479 1.492-4.532 2.629-4.585 2.54-.053-.088 1.913-1.368 4.393-2.86 2.477-1.492 4.53-2.629 4.584-2.54M143.423 224.504c-.01.103-1.44.037-3.19-.147-1.752-.183-3.163-.415-3.152-.518.011-.103 1.44-.037 3.19.146 1.752.184 3.164.416 3.152.519" transform="translate(117.744 25.291)"/>
            <path fill="#1A2E35" d="M116.007 42.861c-.292 1.205.196 2.562 1.19 3.303.992.742 2.432.825 3.504.204 2.036-1.182 2.138-4.09 1.595-6.38-.544-2.292-1.471-4.718-.622-6.914.65-1.68 2.2-2.81 3.381-4.169 2.058-2.37 3.036-5.71 2.33-8.768-.707-3.058-3.18-5.702-6.246-6.375-3.13-.687-6.873.475-9.292-1.625-1.754-1.522-2.007-4.165-3.402-6.021-2.167-2.881-6.415-3.117-9.953-2.428-3.54.69-7.105 2.04-10.647 1.369-2.959-.56-5.468-2.462-8.273-3.557-6.08-2.374-13.57-.477-17.787 4.506-4.216 4.982-4.848 12.684-1.5 18.287 1.203 2.012 2.942 3.805 5.162 4.559" transform="translate(117.744 25.291)"/>
            <path fill="#FFBF9D" d="M104.088 109.585c-9.84.81-18.483-6.495-19.329-16.333-.484-5.63-.88-10.37-.88-10.37s-14.374-1.215-15.547-15.419c-1.171-14.204-1.002-45.15-1.002-45.15l.007-1.87c15.96-8.228 35.221-5.613 50.182 4.317l.185 2.93 2.833 63.792c.127 9.42-7.06 17.33-16.45 18.103" transform="translate(117.744 25.291)"/>
            <path fill="#1A2E35" d="M74.278 44.519c1.751-.8 1.689-3.193-.12-3.894-.467-.182-1.007-.162-1.464.045-1.755.798-1.692 3.195.118 3.896.468.181 1.01.162 1.466-.047" transform="translate(117.744 25.291)"/>
            <path fill="#1A2E35" d="M69.173 41.545c.24.23 1.561-.942 3.517-1.089 1.957-.175 3.45.766 3.649.5.098-.12-.155-.548-.808-.976-.642-.427-1.718-.805-2.938-.705-1.219.1-2.219.65-2.782 1.175-.575.53-.753.993-.638 1.095M92.765 41.152c-.93.665-1.144 1.958-.478 2.887.666.93 1.959 1.143 2.887.478.93-.666 1.144-1.958.478-2.887-.665-.93-1.958-1.144-2.887-.478" transform="translate(117.744 25.291)"/>
            <path fill="#1A2E35" d="M90.035 41.875c.24.23 1.562-.942 3.517-1.089 1.957-.175 3.45.766 3.649.5.098-.12-.155-.549-.809-.976-.64-.426-1.717-.805-2.936-.705-1.22.1-2.22.65-2.782 1.175-.575.529-.754.993-.639 1.095M83.316 58.579c.002-.146-1.226-.298-3.213-.428-.514-.018-.94-.102-1.006-.392-.12-.318.044-.883.26-1.51l1.267-4.087c1.742-5.82 2.927-10.602 2.648-10.686-.279-.083-1.917 4.564-3.658 10.383l-1.188 4.111c-.15.606-.451 1.318-.135 2.13.168.406.583.678.923.744.342.078.63.058.876.053 1.99-.062 3.224-.173 3.226-.318" transform="translate(117.744 25.291)"/>
            <path fill="#FFF" d="M89.829 60.296c1.956-1.358-5.408 3.378-9.407 3.463 0 0 2.543 3.494 6.537 1.706 4.145-1.855 2.87-5.17 2.87-5.17" transform="translate(117.744 25.291)"/>
            <path fill="#FF9A6C" d="M83.841 82.678s9.035.101 18.164-6.566c0 0-3.663 10.538-17.939 10.252l-.225-3.686z" transform="translate(117.744 25.291)"/>
            <path fill="#FFBF9D" d="M117.485 37.175c.307-.119 10.54-1.537 9.674 10.569-.866 12.105-12.805 7.227-12.801 6.878.003-.35 3.127-17.447 3.127-17.447" transform="translate(117.744 25.291)"/>
            <path fill="#FF9A6C" d="M118.37 50.64c.056-.036.2.162.545.351.337.184.926.336 1.574.145 1.312-.377 2.534-2.33 2.749-4.508.11-1.1-.045-2.166-.373-3.063-.307-.911-.835-1.571-1.47-1.731-.631-.194-1.115.158-1.287.489-.186.326-.127.573-.193.59-.036.028-.245-.221-.112-.714.068-.237.23-.513.53-.725.308-.215.745-.305 1.19-.225.928.132 1.707 1.05 2.067 2.035.412.992.613 2.192.49 3.426-.251 2.434-1.663 4.627-3.45 5.008-.868.16-1.56-.147-1.906-.459-.353-.325-.398-.6-.354-.62" transform="translate(117.744 25.291)"/>
            <path fill="#1A2E35" d="M98.305 34.217c-.31.437-2.444-.632-5.232-.61-2.788-.055-4.934.988-5.239.548-.137-.202.255-.78 1.182-1.354.916-.574 2.394-1.072 4.069-1.064 1.674.012 3.144.527 4.055 1.112.92.586 1.303 1.168 1.165 1.368M76.026 35.046c-.119.512-1.64.587-3.429.643-1.79.038-3.313.041-3.458-.464-.149-.484 1.352-1.356 3.41-1.405 2.057-.058 3.6.734 3.477 1.226" transform="translate(117.744 25.291)"/>
            <path fill="#1A2E35" d="M64.293 28.344s8.743 3.839 19.714-2.157c7.199-3.934 15.683-6.04 17.623-4.636 1.94 1.405 2.619 8.947 9.968 10.884 0 0 .037 14.439 5.768 13.71 5.73-.728 1.305-22.93 1.305-22.93l-13.513-8.993-15.457-2.328-16.863 2.514-9.41 6.192.865 7.744zM119.25 11.106c0 .117-1.517-.036-3.166.705-1.663.712-2.576 1.932-2.662 1.854-.037-.025.138-.367.553-.82.415-.454 1.094-.995 1.959-1.377.866-.378 1.724-.512 2.337-.509.616 0 .986.104.98.147M113.122 5.659c.047-.008.184.481.313 1.29.126.809.24 1.95.122 3.21-.103 1.26-.468 2.368-.819 3.113-.36.746-.678 1.148-.713 1.126-.054-.032.182-.478.47-1.229.28-.752.59-1.823.69-3.045.115-1.22.046-2.337-.013-3.144-.06-.808-.104-1.312-.05-1.321" transform="translate(117.744 25.291)"/>
            <path fill="#375A64" d="M112.554 11.834s-.026.131-.094.385c-.063.254-.193.624-.402 1.09-.425.92-1.243 2.263-2.83 3.422-.784.58-1.766 1.086-2.917 1.396-1.145.32-2.482.372-3.84.067-1.357-.303-2.741-.963-3.937-2-1.188-1.032-2.2-2.456-2.655-4.166-.224-.85-.308-1.771-.155-2.69.15-.914.572-1.834 1.287-2.506.695-.674 1.674-1.153 2.715-1.095 1.043.045 2.013.673 2.61 1.535.606.862.929 1.944.844 3.036-.094 1.089-.555 2.13-1.21 3.019-1.329 1.789-3.312 3.043-5.456 3.885-2.161.839-4.573 1.152-6.986.943-2.41-.238-4.833-1.043-6.916-2.486-1.026-.733-1.973-1.647-2.603-2.795-.308-.573-.554-1.19-.648-1.851-.095-.659-.058-1.333.102-1.981.17-.645.463-1.265.887-1.796.429-.524 1.007-.942 1.663-1.162 1.335-.428 2.785-.028 3.904.724 1.126.775 1.971 1.905 2.442 3.157.475 1.252.617 2.613.423 3.918-.412 2.639-2.225 4.83-4.413 6.079-2.213 1.283-4.825 1.58-7.215 1.216-2.392-.379-4.671-1.305-6.458-2.811-.885-.757-1.624-1.684-2.08-2.737-.455-1.048-.646-2.202-.496-3.313.146-1.103.65-2.17 1.477-2.893.806-.726 1.901-1.161 2.975-1.01 1.073.145 1.976.835 2.532 1.676.568.855.783 1.877.723 2.845-.134 1.945-1.248 3.675-2.761 4.597-1.52.928-3.264 1.163-4.827 1.034-1.575-.139-3.013-.628-4.222-1.31-2.438-1.355-3.882-3.598-4.03-5.565-.186-1.975.56-3.452 1.207-4.22.327-.398.638-.642.85-.794.222-.142.339-.207.339-.207.027.031-.496.252-1.13 1.048-.619.772-1.325 2.231-1.123 4.157.168 1.913 1.592 4.087 3.99 5.399 1.188.66 2.6 1.128 4.138 1.255 1.527.117 3.215-.125 4.668-1.022 1.438-.883 2.494-2.545 2.613-4.39.052-.916-.154-1.87-.683-2.66-.521-.782-1.362-1.412-2.326-1.536-.963-.133-1.971.263-2.719.94-.764.673-1.228 1.66-1.365 2.7-.139 1.043.044 2.14.479 3.134.433.996 1.14 1.884 1.995 2.61 1.721 1.448 3.958 2.357 6.287 2.72 2.327.351 4.854.055 6.979-1.181 2.11-1.205 3.84-3.316 4.228-5.818.185-1.24.048-2.538-.403-3.727-.448-1.19-1.249-2.255-2.303-2.98-1.049-.708-2.394-1.064-3.58-.68-.582.196-1.099.566-1.49 1.043-.385.482-.657 1.054-.814 1.651-.149.601-.184 1.229-.096 1.835.084.604.315 1.19.606 1.73.591 1.081 1.498 1.963 2.49 2.672 2.019 1.401 4.384 2.194 6.737 2.43 2.358.207 4.718-.095 6.83-.91 2.096-.816 4.039-2.046 5.314-3.758.63-.85 1.066-1.836 1.156-2.85.083-1.008-.217-2.029-.778-2.83-.555-.806-1.434-1.372-2.373-1.417-.938-.056-1.847.377-2.499 1.005-.671.626-1.066 1.476-1.214 2.344-.15.871-.075 1.756.139 2.577.43 1.653 1.403 3.041 2.554 4.054 1.159 1.017 2.506 1.67 3.828 1.976 1.323.306 2.624.266 3.748-.037 1.128-.292 2.1-.78 2.877-1.341 1.576-1.122 2.405-2.435 2.847-3.336.218-.457.359-.82.433-1.07.081-.248.131-.373.131-.373M126.632 26.024c.005.005-.028.04-.096.102-.069.061-.167.161-.315.265-.285.221-.738.52-1.383.77-.643.248-1.483.453-2.472.42-.982-.027-2.122-.319-3.152-1.035-1.026-.703-1.947-1.81-2.41-3.214-.225-.69-.385-1.482-.176-2.277.106-.387.285-.796.65-1.071.357-.276.872-.35 1.3-.16.433.188.717.569.91.957.19.397.3.832.314 1.282.01.879-.188 1.77-.593 2.582-.77 1.63-2.42 2.957-4.354 3.18-1.908.252-3.887-.447-5.07-1.86-.586-.694-.938-1.648-.746-2.55.153-.88.856-1.705 1.763-1.804.879-.117 1.732.285 2.244.921.514.64.701 1.445.69 2.184-.035 1.507-.842 2.788-1.822 3.552-.982.791-2.165 1.081-3.15.999-.996-.076-1.792-.456-2.364-.838-.569-.4-.922-.816-1.128-1.114-.208-.297-.27-.48-.27-.48.04-.039.347.716 1.479 1.472.566.354 1.344.698 2.296.75.942.06 2.05-.233 2.971-.995.92-.737 1.661-1.956 1.677-3.35.006-.685-.178-1.414-.634-1.972-.443-.55-1.206-.894-1.94-.788-.744.085-1.324.76-1.462 1.532-.162.778.139 1.608.678 2.247 1.088 1.298 2.952 1.963 4.738 1.723 1.808-.208 3.342-1.437 4.076-2.97.382-.76.57-1.6.564-2.412-.026-.77-.366-1.627-1.005-1.931-.311-.143-.694-.09-.96.112-.275.2-.439.543-.533.884-.194.701-.058 1.433.15 2.1.428 1.336 1.296 2.407 2.269 3.092.975.698 2.059.996 3.009 1.042.955.053 1.777-.125 2.413-.347 1.278-.461 1.815-1.048 1.844-1" transform="translate(117.744 25.291)"/>
            <path fill="#EF4136" d="M73.424 170.28L133.791 171.318 134.469 212.394 71.986 210.286z" transform="translate(117.744 25.291)"/>
            <path fill="#EF4136" d="M73.424 170.28L104.672 146.235 133.791 171.318" transform="translate(117.744 25.291)"/>
            <path fill="#1A2E35" d="M71.986 210.286c-.074-.073 4.888-5.23 11.08-11.518 6.194-6.29 11.273-11.33 11.347-11.258.073.074-4.887 5.23-11.08 11.52-6.192 6.288-11.273 11.328-11.347 11.256M134.47 212.394c-.08.067-4.659-5.217-10.227-11.801-5.57-6.586-10.021-11.977-9.942-12.044.079-.067 4.657 5.217 10.227 11.803 5.568 6.583 10.02 11.975 9.941 12.042" transform="translate(117.744 25.291)"/>
            <path fill="#1A2E35" d="M133.791 171.318L102.891 194.788 73.423 170.28" transform="translate(117.744 25.291)"/>
            <path fill="#ECECEC" d="M76.408 172.596L76.75 155.037 129.644 155.037 129.75 174.26 102.895 194.472z" transform="translate(117.744 25.291)"/>
        </g>
        <text fill="#000" font-family="SVN-PoppinsMedium, SVN-Poppins" font-size="8.615" font-weight="400">
            <tspan x="199.376" y="194.642">Feedback</tspan>
        </text>
        <g>
            <path fill="#FFBF9D" d="M12.585.557s-.906 9.12 1.303 9.08c3.864-.066 18.67-3.868 19.71-1.02 1.038 2.847-3.784 5.523-3.784 5.523s4.728.891 2.4 3.354S21.953 32.086 16.85 32.337C9.51 32.697.056 30.224.056 30.224l3.862-26.74L12.585.557z" transform="translate(178.051 209.804)"/>
            <path fill="#FF9A6C" d="M31.608 12.792c.013.022-.211.18-.628.446-.416.269-1.034.63-1.811 1.053-1.554.848-3.77 1.897-6.319 2.803-2.55.901-4.934 1.484-6.674 1.805-.87.161-1.577.27-2.069.323-.492.056-.765.076-.769.05-.008-.059 1.068-.244 2.785-.631 1.717-.386 4.07-1.005 6.602-1.9 2.528-.899 4.746-1.902 6.323-2.684 1.577-.782 2.53-1.315 2.56-1.265M31.205 19.228c.017.019-.17.218-.524.564-.35.349-.89.82-1.586 1.368-1.385 1.1-3.457 2.443-5.948 3.512-2.494 1.063-4.896 1.632-6.649 1.875-.877.124-1.59.189-2.085.2-.494.018-.767.015-.769-.01-.004-.066 1.085-.14 2.812-.45 1.725-.308 4.083-.911 6.545-1.959 2.457-1.055 4.521-2.343 5.936-3.379 1.417-1.033 2.223-1.769 2.268-1.72" transform="translate(178.051 209.804)"/>
            <path fill="#FFBF9D" d="M73.707.348s.823 7.613-2.074 8.635c-3.644 1.285-18.67-3.869-19.708-1.022-1.04 2.848 3.784 5.524 3.784 5.524s-4.729.89-2.401 3.354C55.636 19.3 63.57 31.43 68.672 31.682c7.34.36 15.032-1.035 15.032-1.035l-2.1-27.818-7.897-2.48z" transform="translate(178.051 209.804)"/>
            <path fill="#FF9A6C" d="M53.915 12.137c.03-.051.983.482 2.56 1.264 1.576.783 3.794 1.786 6.322 2.685 2.53.895 4.885 1.513 6.602 1.9 1.718.386 2.794.572 2.785.63-.004.027-.276.007-.768-.05-.492-.052-1.2-.16-2.07-.322-1.74-.32-4.124-.903-6.674-1.806-2.548-.906-4.765-1.955-6.318-2.802-.778-.423-1.396-.785-1.811-1.053-.417-.267-.642-.424-.628-.446M54.741 18.573c.044-.047.836.672 2.215 1.7 1.377 1.028 3.377 2.329 5.77 3.396 2.397 1.061 4.706 1.662 6.396 1.967 1.693.308 2.76.38 2.756.446-.001.025-.27.028-.754.012-.485-.011-1.185-.076-2.044-.197-1.718-.24-4.074-.81-6.505-1.886-2.428-1.083-4.434-2.438-5.78-3.529-.675-.545-1.202-1.01-1.543-1.354-.346-.34-.528-.537-.51-.555" transform="translate(178.051 209.804)"/>
        </g>
        <g fill="#375A64">
            <path d="M6.857 61.63c0 .104-1.395.187-3.115.187-1.722 0-3.117-.083-3.117-.186 0-.105 1.395-.188 3.117-.188 1.72 0 3.115.083 3.115.188M10.166 51.723c.104 0 .188 1.655.188 3.695 0 2.041-.084 3.696-.188 3.696-.103 0-.186-1.655-.186-3.696 0-2.04.083-3.695.186-3.695M13.69 61.393c0-.104 1.396-.187 3.117-.187s3.116.083 3.116.187c0 .103-1.395.187-3.116.187s-3.116-.084-3.116-.187M10.382 71.3c-.104 0-.187-1.654-.187-3.695s.083-3.696.187-3.696c.103 0 .186 1.655.186 3.696 0 2.04-.083 3.695-.186 3.695M15.418 67.051c-.084.06-.648-.585-1.26-1.442-.611-.856-1.04-1.599-.955-1.659.084-.06.647.585 1.26 1.442.612.856 1.04 1.599.955 1.659M15.127 55.815c.08.067-.372.73-1.007 1.478-.636.749-1.214 1.302-1.293 1.235-.08-.067.372-.728 1.007-1.477.636-.749 1.215-1.302 1.293-1.236M7.984 58.678c-.071.074-.62-.343-1.225-.931-.605-.588-1.037-1.125-.965-1.199.072-.074.62.342 1.226.931.605.587 1.036 1.124.964 1.2M7.704 63.63c.081.063-.32.714-.897 1.453-.576.74-1.11 1.288-1.19 1.224-.083-.062.319-.714.895-1.453.577-.74 1.11-1.288 1.192-1.225M209.12 26.443c0 .103-.933.187-2.084.187s-2.085-.084-2.085-.187c0-.104.934-.187 2.085-.187 1.15 0 2.084.083 2.084.187M211.333 20.774c.104 0 .187.947.187 2.114 0 1.168-.083 2.115-.187 2.115s-.187-.947-.187-2.115c0-1.167.083-2.114.187-2.114M213.69 26.307c0-.103.933-.187 2.084-.187 1.152 0 2.084.084 2.084.187s-.932.187-2.084.187c-1.15 0-2.084-.084-2.084-.187M211.477 31.976c-.103 0-.187-.946-.187-2.114 0-1.169.084-2.115.187-2.115s.187.946.187 2.115c0 1.168-.084 2.114-.187 2.114M214.845 29.544c-.079.067-.475-.277-.884-.767-.41-.49-.677-.94-.597-1.007.08-.066.475.278.884.768.41.49.676.94.597 1.006M214.651 23.116c.073.073-.212.478-.637.907-.425.429-.828.717-.902.645-.073-.073.212-.48.637-.908.425-.428.828-.717.902-.644M209.874 24.753c-.066.08-.448-.129-.853-.465-.404-.337-.678-.674-.612-.753.066-.08.447.128.851.465.405.337.68.674.614.753M209.686 27.587c.076.07-.174.469-.56.892-.385.423-.76.71-.836.64-.077-.069.174-.469.56-.892.385-.423.76-.71.836-.64M238.56 21.6l.204.493c.357.857 1.043 1.537 1.905 1.887l.534.217-.513.208c-.874.355-1.567 1.049-1.92 1.923l-.144.359-.216-.45c-.393-.819-1.092-1.451-1.945-1.763l-.465-.17.608-.295c.766-.37 1.368-1.009 1.696-1.794l.255-.614zM38.227 30.635l.205.491c.357.858 1.043 1.538 1.904 1.887l.535.217-.513.208c-.875.355-1.567 1.05-1.92 1.924l-.144.359-.216-.45c-.394-.819-1.092-1.452-1.945-1.763l-.465-.17.608-.295c.765-.37 1.368-1.01 1.695-1.795l.256-.613zM12.806 99.301l.102.246c.18.429.522.77.952.944l.268.109-.257.103c-.437.178-.783.525-.96.962l-.072.18-.108-.226c-.197-.409-.546-.725-.972-.881l-.233-.085.304-.147c.383-.186.684-.505.848-.898l.128-.307zM186.857.338l.205.492c.357.858 1.043 1.538 1.904 1.887l.535.217-.513.208c-.874.354-1.567 1.05-1.92 1.924l-.144.358-.217-.45c-.393-.819-1.091-1.451-1.944-1.763l-.465-.17.607-.295c.766-.37 1.37-1.009 1.697-1.795l.255-.613z" transform="translate(94.051 113.599)"/>
        </g>
    </g>
</svg>
