<svg xmlns="http://www.w3.org/2000/svg" xmlns:xlink="http://www.w3.org/1999/xlink" width="385" height="314" viewBox="0 0 385 314">
    <defs>
        <path id="lmzawr6l5a" d="M0 0.399L18.534 0.399 18.534 11.394 0 11.394z"/>
        <path id="xa4nxfodhc" d="M0.049 0.444L23.456 0.444 23.456 2.562 0.049 2.562z"/>
        <path id="bgqrlfdfye" d="M0.01 0.224L21.82 0.224 21.82 30.305 0.01 30.305z"/>
        <path id="0mpao2ud1g" d="M0.12 0.047L15.671 0.047 15.671 19.092 0.12 19.092z"/>
        <path id="m9lgjx3nhi" d="M0.297 0.194L7.277 0.194 7.277 7.174 0.297 7.174z"/>
    </defs>
    <g fill="none" fill-rule="evenodd">
        <path fill="#E0E0E0" d="M275.262 313.068L283.34 313.068 283.34 217.379 275.262 217.379z"/>
        <path fill="#E0E0E0" d="M277.126 227.942L281.476 227.942 281.476 122.311 277.126 122.311z"/>
        <path fill="#EBEBEB" d="M291.271 125.666c0 6.758-5.475 12.235-12.229 12.235s-12.23-5.477-12.23-12.235c0-6.758 5.476-12.236 12.23-12.236 6.754 0 12.23 5.478 12.23 12.236"/>
        <path fill="#E0E0E0" d="M281.66 138.868h-5.43c-.413 0-.747-.335-.747-.747 0-.413.335-.747.746-.747h5.43c.412 0 .746.334.746.747 0 .412-.334.747-.746.747M285.01 217.162h-12.022c-.453 0-.821-.367-.821-.821 0-.454.368-.822.821-.822h12.023c.452 0 .82.368.82.822 0 .454-.368.821-.82.821"/>
        <path fill="#F5F5F5" d="M113.481 311.096L178.866 311.096 178.866 103.768 113.481 103.768z"/>
        <path fill="#EBEBEB" d="M146.174 310.526L178.866 310.526 178.866 103.769 146.174 103.769z"/>
        <path fill="#F5F5F5" d="M120.947 103.768L144.036 103.768 144.036 83.414 120.947 83.414z"/>
        <path fill="#EBEBEB" d="M138.533 103.768L144.036 103.768 144.036 83.414 138.533 83.414z"/>
        <path fill="#E0E0E0" d="M108.032 103.768L108.032 102.581 180.78 102.581 180.78 103.768"/>
        <path fill="#FAFAFA" d="M126.388 124.322L131.922 124.322 131.922 112.646 126.388 112.646z"/>
        <path fill="#E0E0E0" d="M146.174 128.904c0 .123-7.32.223-16.346.223-9.03 0-16.347-.1-16.347-.223s7.317-.223 16.347-.223c9.026 0 16.346.1 16.346.223M159.365 124.322L164.899 124.322 164.899 112.646 159.365 112.646zM179.15 128.904c0 .123-7.319.223-16.346.223-9.029 0-16.346-.1-16.346-.223s7.317-.223 16.346-.223c9.027 0 16.347.1 16.347.223M159.365 147.504L164.899 147.504 164.899 135.827 159.365 135.827zM179.15 152.086c0 .123-7.319.223-16.346.223-9.029 0-16.346-.1-16.346-.223s7.317-.223 16.346-.223c9.027 0 16.347.1 16.347.223M159.365 171.385L164.899 171.385 164.899 159.709 159.365 159.709zM179.15 175.967c0 .124-7.319.224-16.346.224-9.029 0-16.346-.1-16.346-.224 0-.123 7.317-.223 16.346-.223 9.027 0 16.347.1 16.347.223M159.365 195.266L164.899 195.266 164.899 183.59 159.365 183.59zM179.15 199.849c0 .123-7.319.223-16.346.223-9.029 0-16.346-.1-16.346-.223s7.317-.223 16.346-.223c9.027 0 16.347.1 16.347.223M159.365 218.465L164.899 218.465 164.899 206.788 159.365 206.788zM179.15 223.047c0 .123-7.319.223-16.346.223-9.029 0-16.346-.1-16.346-.223s7.317-.223 16.346-.223c9.027 0 16.347.1 16.347.223M159.365 241.756L164.899 241.756 164.899 230.08 159.365 230.08zM159.365 265.353L164.899 265.353 164.899 253.677 159.365 253.677zM179.15 246.339c0 .123-7.319.222-16.346.222-9.029 0-16.346-.099-16.346-.222 0-.124 7.317-.223 16.346-.223 9.027 0 16.347.1 16.347.223"/>
        <path fill="#FAFAFA" d="M126.388 147.857L131.922 147.857 131.922 136.181 126.388 136.181z"/>
        <path fill="#E0E0E0" d="M146.174 152.44c0 .123-7.32.223-16.346.223-9.03 0-16.347-.1-16.347-.223s7.317-.223 16.347-.223c9.026 0 16.346.1 16.346.223"/>
        <path fill="#FAFAFA" d="M126.388 171.393L131.922 171.393 131.922 159.716 126.388 159.716z"/>
        <path fill="#E0E0E0" d="M146.174 175.976c0 .123-7.32.223-16.346.223-9.03 0-16.347-.1-16.347-.223s7.317-.223 16.347-.223c9.026 0 16.346.1 16.346.223"/>
        <path fill="#FAFAFA" d="M126.388 194.929L131.922 194.929 131.922 183.252 126.388 183.252z"/>
        <path fill="#E0E0E0" d="M146.174 199.511c0 .123-7.32.223-16.346.223-9.03 0-16.347-.1-16.347-.223s7.317-.223 16.347-.223c9.026 0 16.346.1 16.346.223"/>
        <path fill="#FAFAFA" d="M126.388 218.465L131.922 218.465 131.922 206.788 126.388 206.788z"/>
        <path fill="#E0E0E0" d="M146.174 223.047c0 .123-7.32.223-16.346.223-9.03 0-16.347-.1-16.347-.223s7.317-.223 16.347-.223c9.026 0 16.346.1 16.346.223"/>
        <path fill="#FAFAFA" d="M126.388 242L131.922 242 131.922 230.324 126.388 230.324z"/>
        <path fill="#E0E0E0" d="M146.174 246.583c0 .123-7.32.222-16.346.222-9.03 0-16.347-.1-16.347-.222 0-.123 7.317-.223 16.347-.223 9.026 0 16.346.1 16.346.223"/>
        <path fill="#FAFAFA" d="M126.388 265.536L131.922 265.536 131.922 253.859 126.388 253.859z"/>
        <path fill="#E0E0E0" d="M177.526 311.096L225.596 311.096 225.596 219.817 177.526 219.817z"/>
        <path fill="#EBEBEB" d="M203.057 311.096L225.596 311.096 225.596 219.817 203.057 219.817z"/>
        <path fill="#F5F5F5" d="M187.605 238.912L191.927 238.912 191.927 228.406 187.605 228.406zM187.605 280.032L191.927 280.032 191.927 269.526 187.605 269.526zM203.057 243.036c0 .09-5.716.163-12.765.163-7.051 0-12.766-.073-12.766-.163 0-.09 5.715-.164 12.766-.164 7.05 0 12.765.073 12.765.164M187.605 259.628L191.927 259.628 191.927 249.122 187.605 249.122zM203.057 263.752c0 .09-5.716.163-12.765.163-7.051 0-12.766-.072-12.766-.163 0-.09 5.715-.164 12.766-.164 7.05 0 12.765.073 12.765.164"/>
        <path fill="#E0E0E0" d="M207.844 238.912L212.166 238.912 212.166 228.406 207.844 228.406zM217.22 238.912L221.543 238.912 221.543 228.406 217.22 228.406zM207.844 258.849L212.166 258.849 212.166 248.343 207.844 248.343zM217.22 258.849L221.543 258.849 221.543 248.343 217.22 248.343zM207.844 278.785L212.166 278.785 212.166 268.279 207.844 268.279zM217.22 278.785L221.543 278.785 221.543 268.279 217.22 268.279zM173.912 219.897L229.21 219.897 229.21 217.61 173.912 217.61z"/>
        <path fill="#EBEBEB" d="M225.932 220.112c0 .09-10.744.163-23.995.163-13.255 0-23.997-.073-23.997-.163 0-.09 10.742-.164 23.997-.164 13.251 0 23.995.073 23.995.164M68.65 311.096L124.77 311.096 124.77 164.125 68.65 164.125z"/>
        <path fill="#E0E0E0" d="M96.71 311.096L124.77 311.096 124.77 164.125 96.71 164.125z"/>
        <path fill="#EBEBEB" d="M75.058 164.125L94.876 164.125 94.876 146.656 75.058 146.656z"/>
        <path fill="#E0E0E0" d="M90.152 164.125L94.876 164.125 94.876 146.656 90.152 146.656z"/>
        <path fill="#E0E0E0" d="M63.972 164.125L126.413 164.125 126.413 163.106 63.972 163.106z"/>
        <path fill="#FFF" d="M79.728 181.767L84.478 181.767 84.478 171.745 79.728 171.745z"/>
        <path fill="#E0E0E0" d="M96.71 185.7c0 .105-6.282.191-14.03.191-7.75 0-14.03-.086-14.03-.191 0-.106 6.28-.191 14.03-.191 7.748 0 14.03.085 14.03.19"/>
        <path fill="#F5F5F5" d="M108.032 181.767L112.782 181.767 112.782 171.745 108.032 171.745z"/>
        <path fill="#EBEBEB" d="M125.015 185.7c0 .105-6.283.191-14.03.191-7.75 0-14.03-.086-14.03-.191 0-.106 6.28-.191 14.03-.191 7.747 0 14.03.085 14.03.19"/>
        <path fill="#F5F5F5" d="M108.032 201.664L112.782 201.664 112.782 191.642 108.032 191.642z"/>
        <path fill="#EBEBEB" d="M125.015 205.597c0 .106-6.283.192-14.03.192-7.75 0-14.03-.086-14.03-.192 0-.105 6.28-.19 14.03-.19 7.747 0 14.03.085 14.03.19"/>
        <path fill="#F5F5F5" d="M108.032 222.161L112.782 222.161 112.782 212.14 108.032 212.14z"/>
        <path fill="#EBEBEB" d="M125.015 226.095c0 .105-6.283.191-14.03.191-7.75 0-14.03-.086-14.03-.191 0-.106 6.28-.191 14.03-.191 7.747 0 14.03.085 14.03.19"/>
        <path fill="#F5F5F5" d="M108.032 242.659L112.782 242.659 112.782 232.637 108.032 232.637z"/>
        <path fill="#EBEBEB" d="M125.015 246.592c0 .106-6.283.191-14.03.191-7.75 0-14.03-.085-14.03-.19 0-.106 6.28-.192 14.03-.192 7.747 0 14.03.086 14.03.191"/>
        <path fill="#F5F5F5" d="M108.032 262.571L112.782 262.571 112.782 252.549 108.032 252.549z"/>
        <path fill="#EBEBEB" d="M125.015 266.504c0 .105-6.283.19-14.03.19-7.75 0-14.03-.085-14.03-.19 0-.106 6.28-.192 14.03-.192 7.747 0 14.03.086 14.03.192"/>
        <path fill="#F5F5F5" d="M108.032 282.562L112.782 282.562 112.782 272.541 108.032 272.541zM108.032 302.816L112.782 302.816 112.782 292.794 108.032 292.794z"/>
        <path fill="#EBEBEB" d="M125.015 286.496c0 .105-6.283.19-14.03.19-7.75 0-14.03-.085-14.03-.19 0-.106 6.28-.191 14.03-.191 7.747 0 14.03.085 14.03.19"/>
        <path fill="#FFF" d="M79.728 201.967L84.478 201.967 84.478 191.946 79.728 191.946z"/>
        <path fill="#E0E0E0" d="M96.71 205.9c0 .106-6.282.192-14.03.192-7.75 0-14.03-.086-14.03-.191 0-.106 6.28-.191 14.03-.191 7.748 0 14.03.085 14.03.19"/>
        <path fill="#FFF" d="M79.728 222.169L84.478 222.169 84.478 212.147 79.728 212.147z"/>
        <path fill="#E0E0E0" d="M96.71 226.102c0 .105-6.282.19-14.03.19-7.75 0-14.03-.085-14.03-.19 0-.106 6.28-.192 14.03-.192 7.748 0 14.03.086 14.03.192"/>
        <path fill="#FFF" d="M79.728 242.369L84.478 242.369 84.478 232.348 79.728 232.348z"/>
        <path fill="#E0E0E0" d="M96.71 246.303c0 .105-6.282.19-14.03.19-7.75 0-14.03-.085-14.03-.19 0-.106 6.28-.191 14.03-.191 7.748 0 14.03.085 14.03.19"/>
        <path fill="#FFF" d="M79.728 262.571L84.478 262.571 84.478 252.549 79.728 252.549z"/>
        <path fill="#E0E0E0" d="M96.71 266.504c0 .105-6.282.19-14.03.19-7.75 0-14.03-.085-14.03-.19 0-.106 6.28-.192 14.03-.192 7.748 0 14.03.086 14.03.192"/>
        <path fill="#FFF" d="M79.728 282.771L84.478 282.771 84.478 272.749 79.728 272.749z"/>
        <path fill="#E0E0E0" d="M96.71 286.705c0 .105-6.282.191-14.03.191-7.75 0-14.03-.086-14.03-.191 0-.105 6.28-.191 14.03-.191 7.748 0 14.03.086 14.03.19"/>
        <path fill="#FFF" d="M79.728 302.972L84.478 302.972 84.478 292.951 79.728 292.951z"/>
        <path fill="#E0E0E0" d="M35.122 311.096L83.192 311.096 83.192 219.817 35.122 219.817z"/>
        <path fill="#EBEBEB" d="M60.652 311.096L83.191 311.096 83.191 219.817 60.652 219.817z"/>
        <path fill="#F5F5F5" d="M45.201 238.912L49.523 238.912 49.523 228.406 45.201 228.406zM45.201 280.032L49.523 280.032 49.523 269.526 45.201 269.526zM60.652 243.036c0 .09-5.715.163-12.765.163-7.05 0-12.766-.073-12.766-.163 0-.09 5.715-.164 12.766-.164 7.05 0 12.765.073 12.765.164M45.201 259.628L49.523 259.628 49.523 249.122 45.201 249.122zM60.652 263.752c0 .09-5.715.163-12.765.163-7.05 0-12.766-.072-12.766-.163 0-.09 5.715-.164 12.766-.164 7.05 0 12.765.073 12.765.164"/>
        <path fill="#E0E0E0" d="M65.439 238.912L69.761 238.912 69.761 228.406 65.439 228.406zM74.816 238.912L79.138 238.912 79.138 228.406 74.816 228.406zM65.439 258.849L69.761 258.849 69.761 248.343 65.439 248.343zM74.816 258.849L79.138 258.849 79.138 248.343 74.816 248.343zM65.439 278.785L69.761 278.785 69.761 268.279 65.439 268.279zM74.816 278.785L79.138 278.785 79.138 268.279 74.816 268.279zM31.507 219.897L86.806 219.897 86.806 217.61 31.507 217.61z"/>
        <path fill="#EBEBEB" d="M83.528 220.112c0 .09-10.745.163-23.995.163-13.255 0-23.998-.073-23.998-.163 0-.09 10.743-.164 23.998-.164 13.25 0 23.995.073 23.995.164M3.53 310.841L46.566 310.841 46.566 254.05 3.53 254.05z"/>
        <path fill="#E0E0E0" d="M26.387 310.841L46.566 310.841 46.566 254.05 26.387 254.05z"/>
        <path fill="#F5F5F5" d="M12.554 271.144L16.424 271.144 16.424 261.738 12.554 261.738zM12.554 307.957L16.424 307.957 16.424 298.551 12.554 298.551zM26.387 274.835c0 .106-5.117.192-11.428.192-6.313 0-11.429-.086-11.429-.192 0-.104 5.116-.19 11.43-.19 6.31 0 11.427.086 11.427.19M12.554 289.691L16.424 289.691 16.424 280.284 12.554 280.284zM26.387 293.382c0 .105-5.117.19-11.428.19-6.313 0-11.429-.085-11.429-.19 0-.106 5.116-.191 11.43-.191 6.31 0 11.427.085 11.427.19M30.672 271.144L34.542 271.144 34.542 261.738 30.672 261.738zM39.067 271.144L42.937 271.144 42.937 261.738 39.067 261.738zM30.672 288.992L34.542 288.992 34.542 279.587 30.672 279.587zM39.067 288.992L42.937 288.992 42.937 279.587 39.067 279.587zM30.672 306.84L34.542 306.84 34.542 297.434 30.672 297.434zM39.067 306.84L42.937 306.84 42.937 297.434 39.067 297.434z"/>
        <path fill="#E0E0E0" d="M0.295 254.12L49.8 254.12 49.8 252.072 0.295 252.072z"/>
        <path fill="#EBEBEB" d="M46.866 254.313c0 .106-9.619.191-21.481.191-11.867 0-21.483-.085-21.483-.19 0-.106 9.616-.192 21.483-.192 11.862 0 21.48.086 21.48.191M194.948 142.422h39.245s-3.47-6.318-13.572-5.399c-9.647.879-10.139-3.108-15.044-3.6-4.906-.49-8.993 3.273-10.629 9"/>
        <path fill="#FFFBFB" d="M297 9.786h41.942s-3.71-6.839-14.505-5.844C314.126 4.894 313.6.578 308.359.046c-5.242-.53-9.611 3.543-11.359 9.74"/>
        <path fill="#F9F9F9" d="M331.806 129.054h39.392s-3.484-6.884-13.624-5.882c-9.683.957-10.176-3.386-15.1-3.921-4.924-.535-9.027 3.565-10.668 9.803M384.985 115.413s-2.395-4.733-9.366-4.044c-6.658.658-6.996-2.328-10.381-2.696-3.386-.368-6.207 2.45-7.335 6.74h27.082z"/>
        <g>
            <path fill="#E8505B" d="M85.257 77.98c-3.517-4.547-4.607-13.27-2.124-18.445 1.368 1.97 3.18 3.634 5.265 4.833-1.16-2.777-2.015-5.68-2.54-8.641l4.527-3.471c.61 1.286 1.06 3.934 2.245 5.253-1.213-1.946-.79-6.383.657-7.694 1.702-1.543 3.807-2.548 5.997-3.264 2.762-.904 5.59-1.639 8.477-1.999 1.911-.24 4.055-.246 5.512 1.006 2.068 1.777 1.606 5.266-.155 7.346-1.76 2.08-4.4 3.161-6.843 4.383-8.956 4.482-16.426 11.836-21.018 20.694" transform="translate(263.534 201.301)"/>
            <path fill="#FFC542" d="M65.733 57.01c3.517-4.547 4.607-13.27 2.124-18.446-1.368 1.97-3.18 3.634-5.265 4.833 1.162-2.776 2.015-5.68 2.54-8.641-1.509-1.157-3.017-2.314-4.527-3.47-.61 1.285-1.06 3.933-2.245 5.253 1.213-1.947.79-6.384-.656-7.695C56 27.3 53.896 26.296 51.707 25.58c-2.762-.904-5.591-1.638-8.477-1.999-1.911-.24-4.055-.245-5.512 1.006-2.07 1.778-1.607 5.266.154 7.346s4.4 3.161 6.843 4.383c8.956 4.482 16.426 11.837 21.018 20.694M75.03 47.922c1.97-2.542 4.903-4.15 7.333-6.269 2.43-2.12 4.474-5.257 3.695-8.363l-4.373 1.331c4.738-2.469 7.07-8.666 5.113-13.59l-1.49.266c1.83-.988 2.948-2.97 3.309-4.997.361-2.028.056-4.113-.383-6.126-.733-3.367-1.84-6.656-3.295-9.786-1.287.868-2.928.966-4.447 1.305-1.52.338-3.156 1.13-3.568 2.614-.653 2.345 2.153 4.506 1.81 6.915-1.274-1.679-3.04-2.99-5.027-3.731-.078 1.807-2.27 3.135-2.028 4.928.083.613.449 1.147.804 1.657l6.038 8.642c-3.705-1.404-7.292-3.108-10.715-5.09.628 10.567 2.379 20.852 7.224 30.294" transform="translate(263.534 201.301)"/>
            <path fill="#263238" d="M108.35 51.417c.002.005-.049.038-.148.1-.115.066-.262.153-.448.263-.391.236-.99.546-1.725 1.005-1.479.9-3.573 2.289-5.964 4.248-.61.477-1.2 1.031-1.841 1.578-.616.577-1.269 1.163-1.905 1.81-1.287 1.28-2.602 2.708-3.872 4.3-.64.79-1.228 1.653-1.846 2.524-.302.438-.632.867-.922 1.326-.285.463-.572.93-.863 1.4-.609.927-1.087 1.95-1.64 2.949-.28.498-.49 1.035-.742 1.556-.236.529-.5 1.05-.718 1.595-1.798 4.334-2.92 8.686-3.574 12.692-.657 4.01-.85 7.675-.854 10.746-.03 1.537.064 2.924.097 4.145l.233 3.124.211 1.97.047.512c.01.117.012.177.007.177-.004 0-.016-.058-.035-.172l-.075-.51-.263-1.966c-.09-.856-.18-1.906-.281-3.125-.049-1.223-.157-2.614-.14-4.155-.021-3.079.152-6.758.797-10.786.642-4.025 1.763-8.4 3.571-12.76.219-.547.484-1.07.722-1.602.253-.524.465-1.064.748-1.565.556-1.005 1.039-2.033 1.653-2.963l.87-1.408c.294-.461.624-.89.93-1.33.62-.87 1.214-1.736 1.863-2.533 1.285-1.597 2.612-3.026 3.912-4.303.642-.647 1.301-1.232 1.922-1.807.648-.545 1.246-1.097 1.861-1.57 2.418-1.948 4.535-3.315 6.035-4.189.745-.447 1.354-.742 1.753-.963l.462-.239c.105-.053.16-.077.162-.074M71.545 108.738c-.005 0-.011-.073-.018-.213l-.027-.628-.077-2.414c-.033-1.048-.066-2.33-.08-3.82-.016-1.49-.05-3.185-.04-5.06-.013-3.75.053-8.215.206-13.171.17-4.956.439-10.4.85-16.107.426-5.707.954-11.133 1.508-16.06.571-4.924 1.157-9.348 1.717-13.054.262-1.856.544-3.527.777-4.997.23-1.47.45-2.733.636-3.763l.427-2.374c.05-.26.09-.464.118-.617.028-.138.044-.209.049-.208.005.002-.003.074-.022.214-.023.153-.052.359-.092.62L77.1 29.47c-.17 1.034-.374 2.299-.59 3.77-.22 1.472-.488 3.145-.738 5.001-.535 3.708-1.101 8.133-1.658 13.055-.54 4.925-1.06 10.348-1.485 16.05-.412 5.703-.687 11.144-.872 16.096-.166 4.952-.251 9.414-.263 13.162-.023 1.875-.002 3.57 0 5.059 0 1.489.017 2.771.035 3.819l.025 2.414v.628c-.002.142-.005.215-.01.215" transform="translate(263.534 201.301)"/>
            <path fill="#263238" d="M55.923 40.233c.008-.005.103.113.278.345l.752 1.021c.326.443.719.991 1.149 1.644.432.65.943 1.38 1.454 2.223.525.832 1.095 1.747 1.664 2.755.594.994 1.168 2.088 1.785 3.233 1.194 2.31 2.416 4.899 3.546 7.678 1.115 2.786 2.03 5.496 2.773 7.985.35 1.25.695 2.436.956 3.561.288 1.118.511 2.17.71 3.132.216.958.353 1.835.492 2.602.143.767.24 1.43.31 1.975l.166 1.252c.035.287.048.438.04.439-.01.001-.043-.147-.096-.43l-.218-1.244c-.088-.541-.2-1.202-.358-1.964-.154-.763-.305-1.636-.532-2.59-.211-.956-.445-2.003-.743-3.115-.27-1.12-.623-2.3-.978-3.546-.754-2.477-1.674-5.176-2.786-7.953-1.126-2.77-2.337-5.353-3.515-7.663-.608-1.146-1.173-2.241-1.757-3.237-.559-1.01-1.117-1.929-1.63-2.766-.498-.846-.997-1.582-1.416-2.24-.417-.661-.795-1.217-1.107-1.669l-.708-1.05c-.16-.243-.24-.372-.231-.378" transform="translate(263.534 201.301)"/>
            <path fill="#696974" d="M85.257 77.98c-3.517-4.547-4.607-13.27-2.124-18.445 1.368 1.97 3.18 3.634 5.265 4.833-1.16-2.777-2.015-5.68-2.54-8.641l4.527-3.471c.61 1.286 1.06 3.934 2.245 5.253-1.213-1.946-.79-6.383.657-7.694 1.702-1.543 3.807-2.548 5.997-3.264 2.762-.904 5.59-1.639 8.477-1.999 1.911-.24 4.055-.246 5.512 1.006 2.068 1.777 1.606 5.266-.155 7.346-1.76 2.08-4.4 3.161-6.843 4.383-8.956 4.482-16.426 11.836-21.018 20.694" transform="translate(263.534 201.301)"/>
            <path fill="#E8505B" d="M48.932 72.542c-1.875.777-3.332 2.286-5.021 3.408-1.69 1.122-3.943 1.85-5.724.878l1.517-2.42c-2.274 2.456-6.45 2.862-9.159.889l.402-.855c-.899.943-2.294 1.298-3.596 1.188-1.303-.11-2.534-.63-3.698-1.219-1.95-.986-3.79-2.183-5.478-3.564.738-.636 1.061-1.61 1.512-2.47.451-.862 2.608-2.07 2.608-2.07l3.522 2.547c-.827-1.038-1.348-2.314-1.485-3.631 1.121.245 2.288-.863 3.349-.428.363.15 1.653.042 1.96.285 2.084 1.645 2.996 3.041 2.996 3.041-.269-2.46-.471-2.437-1.14-4.82 6.384 2.083 12.416 4.797 17.435 9.24" transform="translate(263.534 201.301)"/>
            <path fill="#696974" d="M48.932 72.542c-1.875.777-3.332 2.286-5.021 3.408-1.69 1.122-3.943 1.85-5.724.878l1.517-2.42c-2.274 2.456-6.45 2.862-9.159.889l.402-.855c-.899.943-2.294 1.298-3.596 1.188-1.303-.11-2.534-.63-3.698-1.219-1.95-.986-3.79-2.183-5.478-3.564.738-.636 1.061-1.61 1.512-2.47.451-.862 2.608-2.07 2.608-2.07l3.522 2.547c-.827-1.038-1.348-2.314-1.485-3.631 1.121.245 2.288-.863 3.349-.428.363.15 1.653.042 1.96.285 2.084 1.645 2.996 3.041 2.996 3.041-.269-2.46-.471-2.437-1.14-4.82 6.384 2.083 12.416 4.797 17.435 9.24" transform="translate(263.534 201.301)"/>
            <path fill="#263238" d="M34.252 70.942s.612-.419 1.87-.824c1.25-.404 3.184-.72 5.529-.386 2.343.312 5.028 1.353 7.645 3.062 2.625 1.704 5.25 3.944 7.829 6.47 2.578 2.531 4.76 5.224 6.532 7.814 1.776 2.592 3.077 5.124 4.014 7.31.942 2.188 1.456 4.054 1.809 5.335.152.649.254 1.156.327 1.498l.077.391c.016.09.022.134.017.136-.004 0-.02-.043-.044-.13l-.104-.384-.377-1.482c-.383-1.27-.923-3.117-1.884-5.285-.955-2.165-2.267-4.672-4.044-7.242-1.775-2.568-3.95-5.24-6.516-7.76-2.565-2.514-5.18-4.753-7.773-6.452-2.588-1.707-5.227-2.752-7.536-3.085-2.31-.354-4.222-.073-5.47.295-.627.183-1.1.373-1.416.511l-.358.162c-.081.035-.124.051-.127.046" transform="translate(263.534 201.301)"/>
            <path fill="#92929D" d="M109.748 110.835c-3.374-10.523-15.39-17.417-26.135-14.995-5.595-6.346-14.418-9.662-22.789-8.565-8.371 1.097-16.05 6.575-19.834 14.15-10.89-5.05-24.54-3.442-33.969 4.002L0 109.867l109.748.968z" transform="translate(263.534 201.301)"/>
        </g>
        <g>
            <path fill="#375A64" d="M71.264 36.184c4.528-.855 9.302-.357 13.556 1.414 1.904.792 3.787 1.915 4.816 3.702 1.217 2.113 1.016 4.717.885 7.152-.267 4.953-.095 9.93.515 14.853.508 4.099 1.319 8.18 1.305 12.31-.014 4.128-.938 8.412-3.527 11.629-3.99 4.959-11.101 6.348-17.411 5.506-3.322-.443-6.638-1.437-9.345-3.413-2.708-1.975-4.745-5.027-4.975-8.37" transform="matrix(-1 0 0 1 309 114)"/>
            <path fill="#1A2E35" d="M79.165 42.466c-.048.04.776.749 1.496 2.29.366.764.697 1.719 1.015 2.801.326 1.079.647 2.29 1.185 3.5.54 1.208 1.29 2.276 2.21 2.994.908.735 1.984 1.041 2.858 1.02.884-.009 1.571-.292 1.969-.571.203-.135.343-.265.428-.36.085-.096.125-.149.116-.157-.022-.023-.207.172-.614.405-.401.234-1.062.465-1.897.443-.83-.012-1.816-.316-2.666-1.023-.858-.692-1.572-1.718-2.095-2.888-.524-1.178-.853-2.376-1.196-3.455-.335-1.081-.696-2.049-1.099-2.815-.397-.769-.82-1.335-1.15-1.688-.33-.354-.548-.51-.56-.496" transform="matrix(-1 0 0 1 309 114)"/>
            <path fill="#1A2E35" d="M80.973 92.434c.012.001.038-.138.077-.404l.155-1.166c.129-1.013.296-2.48.488-4.296.386-3.63.85-8.653 1.246-14.21.394-5.559.643-10.597.774-14.246.067-1.825.108-3.3.124-4.322l.01-1.176c0-.268-.007-.41-.018-.41-.012 0-.028.14-.049.408l-.075 1.173-.23 4.316c-.193 3.644-.48 8.678-.874 14.233-.395 5.553-.821 10.576-1.146 14.211l-.381 4.305-.092 1.173c-.017.268-.02.41-.009.41" transform="matrix(-1 0 0 1 309 114)"/>
            <path fill="#1A2E35" d="M82.996 70.182c-.01.089 1.98.364 4.453.426 2.474.067 4.475-.105 4.47-.195-.004-.097-2.001-.077-4.46-.144-2.46-.06-4.454-.184-4.463-.087" transform="matrix(-1 0 0 1 309 114)"/>
            <path fill="#1A2E35" d="M84.609 70.375c-.042-.016-.222.32-.413.904-.095.292-.19.643-.267 1.046-.034.204-.065.442.01.696.072.26.295.499.604.552.155.027.34-.023.455-.13.121-.108.18-.25.209-.374.057-.255.025-.478.008-.678-.041-.408-.119-.77-.203-1.066-.17-.594-.363-.927-.403-.91-.047.018.064.377.17.965.052.293.102.645.125 1.036.01.198.026.401-.019.574-.042.176-.15.27-.29.249-.35-.061-.429-.493-.358-.866.056-.387.127-.74.19-1.032.128-.587.228-.949.182-.966M59.977 17.53c-1.331-3.22-1.401-8.82.635-11.765 2.036-2.944 5.845-4.888 9.345-5.64.585-.126 1.215-.21 1.766.022.551.232.963.89.727 1.44.703-.439 1.423-.885 2.23-1.07.809-.186 1.736-.066 2.33.512.594.578.688 1.67.058 2.209.976-.356 2.152-.08 2.867.675.714.754.928 1.943.52 2.899-.391.915-1.222 1.937-1.956 2.61-.734.672-.854 1.37-.734 2.358" transform="matrix(-1 0 0 1 309 114)"/>
            <path fill="#FFBF9D" d="M60.817 11.624L59.89 31.34c-.157 3.353 2.523 6.155 5.88 6.146 3.131-.007 5.706-2.475 5.85-5.604.069-1.484.128-2.722.145-2.874 0 0 5.042-.236 5.637-5.187.288-2.392.48-7.368.602-11.872.13-4.836-3.481-8.96-8.292-9.479l-.478-.051c-5.19-.255-8.306 4.01-8.417 9.205" transform="matrix(-1 0 0 1 309 114)"/>
            <path fill="#FF9A6C" d="M71.781 28.937s-3.16-.083-6.264-2.533c0 0 .989 3.102 5.983 3.189l.281-.656z" transform="matrix(-1 0 0 1 309 114)"/>
            <path fill="#1A2E35" d="M76.202 15.114c-.028.375-.367.662-.76.64-.392-.02-.688-.341-.66-.716.026-.375.366-.662.758-.641.393.02.689.342.662.717M76.677 14.268c-.098.082-.592-.372-1.354-.452-.76-.091-1.36.24-1.434.138-.036-.046.072-.203.334-.353.259-.151.686-.279 1.16-.225.475.053.855.27 1.065.475.215.205.276.38.229.417M68.702 14.567c-.027.375-.367.662-.759.64-.392-.02-.688-.341-.661-.716.027-.375.367-.662.759-.641.392.02.689.342.661.717M69.173 13.602c-.098.083-.592-.372-1.353-.452-.76-.091-1.361.24-1.434.139-.036-.046.07-.203.334-.354.259-.15.685-.278 1.16-.225.474.054.854.272 1.065.475.214.205.275.38.228.417M71.329 19.55c0-.044.483-.075 1.26-.09.197.001.385-.018.433-.147.06-.136.002-.354-.068-.59l-.415-1.544c-.571-2.195-.963-3.991-.874-4.014.088-.022.623 1.74 1.195 3.934l.39 1.55c.05.229.15.493.019.774-.069.14-.222.23-.35.25-.13.024-.24.015-.336.01-.777-.041-1.256-.09-1.254-.133M69.03 19.835c.124.006.037.833.681 1.496.643.665 1.535.667 1.529.784.006.053-.214.14-.587.11-.366-.028-.887-.202-1.28-.608-.394-.407-.528-.907-.52-1.249.006-.349.12-.544.177-.533M69.692 10.638c-.097.199-.848.019-1.753.03-.905-.007-1.655.177-1.753-.021-.044-.095.104-.276.417-.446.31-.168.791-.309 1.334-.31.543-.001 1.025.137 1.336.304.314.167.462.348.419.443M76.634 12.033c-.153.158-.658-.078-1.288-.155-.627-.098-1.178-.009-1.282-.203-.044-.094.059-.258.31-.397.248-.138.647-.23 1.079-.17.433.06.791.258.992.459.204.202.257.388.19.466" transform="matrix(-1 0 0 1 309 114)"/>
            <path fill="#FFBF9D" d="M60.826 15.338c-.08-.045-3.298-1.374-3.555 2.026-.257 3.4 3.21 2.958 3.224 2.86.013-.097.33-4.886.33-4.886" transform="matrix(-1 0 0 1 309 114)"/>
            <path fill="#FF9A6C" d="M59.553 18.858c-.014-.012-.062.037-.166.075-.1.037-.271.055-.443-.025-.35-.158-.609-.752-.58-1.366.016-.31.103-.6.231-.835.122-.241.296-.403.48-.422.183-.027.303.09.337.19.039.098.012.164.03.171.008.01.077-.051.06-.194-.009-.068-.043-.152-.118-.223-.076-.072-.194-.115-.32-.111-.265-.002-.519.221-.66.48-.155.26-.26.584-.276.933-.03.686.272 1.354.753 1.533.234.081.44.024.548-.048.112-.077.135-.151.124-.158" transform="matrix(-1 0 0 1 309 114)"/>
            <path fill="#1A2E35" d="M80.663 5.698c.061 4.44-5.51 5.864-7.704 3.217-1.015-1.225-1.868-2.723-3.328-3.351-.984-.423-2.138-.325-3.125.09l-.03.012c-1.456.621-2.408 2.18-2.744 3.727-.47 2.157-.267 4.106-.987 6.064-.103.281-.223.583-.478.74-.435.264-1.009-.041-1.319-.445-.496-.646-.624-1.496-.68-2.309-.13-1.85.026-3.737.625-5.493.598-1.756 1.654-3.379 3.125-4.51 1.838-1.413 4.262-1.987 6.564-1.703 2.3.284 4.467 1.393 6.157 2.98.784.737 1.486 1.6 1.822 2.622" transform="matrix(-1 0 0 1 309 114)"/>
            <path fill="#375A64" d="M77.248 2.998c0-.01.173-.028.47.056.293.081.705.296 1.075.71.364.412.681 1.034.713 1.778.032.744-.277 1.548-.822 2.191-.548.644-1.26 1.076-1.95 1.294-.69.226-1.346.277-1.886.27-.542-.011-.975-.076-1.27-.136-.295-.06-.453-.113-.45-.129.007-.048.66.098 1.72.08.526-.017 1.156-.086 1.81-.314.65-.22 1.313-.632 1.826-1.235.51-.6.797-1.339.78-2.014-.015-.678-.29-1.266-.613-1.665-.327-.401-.697-.628-.967-.734-.273-.11-.44-.126-.436-.152M75.092 1.266c0-.012.128-.028.32.082.186.11.415.37.475.767.06.399-.097.863-.359 1.282-.263.42-.604.85-1.031 1.23-.85.77-1.828 1.19-2.55 1.355-.725.177-1.191.134-1.19.11-.005-.047.452-.07 1.142-.289.687-.206 1.609-.634 2.422-1.37.41-.364.74-.772 1.003-1.165.259-.39.407-.794.378-1.132-.028-.34-.203-.585-.349-.704-.15-.122-.266-.144-.261-.166" transform="matrix(-1 0 0 1 309 114)"/>
            <path fill="#FFBF9D" d="M60.68 49.685l1.598-11.652-22.904 4.598-20.84-7.225-5.628 5.785 22.176 11.422c1.978.945 4.206 1.228 6.357.81l19.242-3.738z" transform="matrix(-1 0 0 1 309 114)"/>
            <g transform="matrix(-1 0 0 1 309 114) translate(0 30.505)">
                <mask id="ioqgc55m2b" fill="#fff">
                    <use xlink:href="#lmzawr6l5a"/>
                </mask>
                <path fill="#FFBF9D" d="M18.534 4.9S10.565 1.089 10.055.96C9.662.864 3.643.544.902.4-.186.346-.347 1.96.732 2.107c.034.005.069.009.103.012 1.53.127 4.9.893 4.9.893l-1.53 3.584c-.157.367-.041.793.28 1.03l4.637 3.43c1.237.56 2.679.42 3.783-.37l2.044.419 3.585-6.203z" mask="url(#ioqgc55m2b)"/>
            </g>
            <path fill="#FFBF9D" d="M4.182 37.31c.146.671 1.744 2.04 2.957 2.038.265-.001.54-.078.731-.262.192-.183.28-.485.17-.726-.072-.158-.214-.27-.35-.377l-2.715-2.108" transform="matrix(-1 0 0 1 309 114)"/>
            <path fill="#FF9A6C" d="M4.975 35.875c.022-.03.454.264 1.133.76l1.185.885c.223.177.45.325.699.55.12.114.228.302.228.496.006.192-.062.377-.177.527-.246.304-.626.396-.947.383-.328-.01-.626-.1-.89-.211-.53-.228-.948-.532-1.265-.82-.317-.288-.535-.564-.65-.778-.12-.213-.124-.357-.11-.358.023-.004.06.12.197.303.135.185.365.43.686.69.32.259.735.535 1.234.735.249.099.523.173.803.177.272.011.568-.079.731-.285.166-.216.17-.5-.027-.675-.196-.185-.454-.367-.663-.54l-1.15-.93c-.65-.534-1.04-.88-1.017-.909M10.62 39.379c-.023.021-.179-.091-.346-.347-.168-.253-.327-.66-.35-1.13-.02-.47.1-.89.245-1.158.143-.27.287-.396.313-.377.067.04-.342.66-.29 1.522.028.864.492 1.444.428 1.49" transform="matrix(-1 0 0 1 309 114)"/>
            <path fill="#FFBF9D" d="M7.433 37.538c.242.376.743.563 1.172.438.43-.125.75-.553.751-1 .002-.584-.466-1.049-.9-1.44l-1.995-1.8" transform="matrix(-1 0 0 1 309 114)"/>
            <path fill="#FF9A6C" d="M6.46 33.735c.025-.028.343.214.837.628l.858.736c.313.284.69.568 1.006.984.153.208.276.45.31.707.043.256-.016.52-.131.724-.23.419-.677.624-1.028.594-.354-.02-.6-.187-.73-.32-.132-.138-.161-.243-.149-.25.018-.012.078.07.218.17.136.1.368.218.664.212.29 0 .632-.18.808-.523.19-.338.108-.79-.177-1.156-.278-.37-.65-.665-.956-.96l-.82-.778c-.461-.45-.734-.74-.71-.768" transform="matrix(-1 0 0 1 309 114)"/>
            <path fill="#FFBF9D" d="M10.847 33.433c-1.605.381-3.147 1.026-4.546 1.901-.083.053-.172.114-.2.209-.036.132.065.263.173.349.411.328.978.384 1.503.34.525-.043 1.043-.172 1.57-.16.911.02 1.754.456 2.633.698.879.242 1.95.236 2.552-.448" transform="matrix(-1 0 0 1 309 114)"/>
            <path fill="#FF9A6C" d="M14.533 36.322c.006.006-.022.048-.084.123-.065.072-.17.172-.33.268-.316.198-.865.339-1.525.271-.67-.05-1.396-.37-2.2-.605-.403-.116-.832-.2-1.278-.173-.45.022-.919.134-1.427.167-.502.028-1.044-.037-1.459-.35-.101-.077-.212-.175-.256-.343-.02-.084-.005-.187.042-.259.046-.074.105-.119.157-.155.2-.127.384-.233.573-.341.75-.423 1.463-.733 2.073-.958.61-.224 1.118-.363 1.471-.444.354-.082.553-.106.557-.09.012.044-.77.225-1.96.71-.593.244-1.287.568-2.019.995-.18.106-.373.223-.55.337-.083.06-.105.1-.092.147.013.057.077.134.161.191.339.255.815.32 1.286.294.476-.03.95-.141 1.43-.162.485-.025.948.072 1.361.198.827.259 1.522.585 2.151.654.626.087 1.142-.017 1.454-.176.318-.154.444-.319.464-.299M39.73 46.662c-.066.017-.338-.892-.37-2.053-.037-1.16.182-2.084.25-2.07.077.012-.02.93.017 2.063.03 1.131.18 2.043.104 2.06" transform="matrix(-1 0 0 1 309 114)"/>
            <path fill="#005B94" d="M59.77 32.625l-6.5 7.324s-3.47 25.29-3.719 27.274c-.248 1.984-.907 8.337-.907 10.072 0 1.736-1.441 14.154-1.441 14.154s27.576 5.726 32.19 0l-1.435-10.632 1.25-26.378s2.068-18.307-7.588-22.557c0 0-6.103 3.68-11.85.743" transform="matrix(-1 0 0 1 309 114)"/>
            <path fill="#1A2E35" d="M76.048 34.478s-1.902-1.878-7.975-.305c-6.4 1.658-9.777 7.649-8.19 24.61 1.31 13.984 6.841 15.997 6.841 15.997s-3.029-21.096-2.508-29.92c.657-11.147 11.832-8.373 11.832-8.373 1.592-.514 0-2.009 0-2.009" transform="matrix(-1 0 0 1 309 114)"/>
            <path fill="#005B94" d="M59.77 32.625L54.152 34.173 41.515 41.909 45.113 53.337 52.534 52.524z" transform="matrix(-1 0 0 1 309 114)"/>
            <path fill="#1A2E35" d="M52.46 40.559c.073.007-.247 4.092-.715 9.123-.468 5.033-.906 9.107-.98 9.1-.073-.007.247-4.091.715-9.124.467-5.032.906-9.106.98-9.1M78.183 76.073s-1.795 5.765-8.136-3.754c-6.341-9.52-5.45-5.263-5.45-5.263l-1.299 1.546s6.974 15.71 14.8 13.247l.085-5.776z" transform="matrix(-1 0 0 1 309 114)"/>
            <path fill="#000" d="M52.204 43.307L47.203 53.108 51.335 52.655zM49.91 69.33c3.665 3.994 8.03 7.346 12.835 9.856 2.017 1.053 4.243 1.98 6.5 1.692 2.479-.317 4.604-2.115 5.775-4.322 1.172-2.208 1.004-3.273 1.283-5.756.307-2.736.308-6.388.452-8.883.026-.442.035-.954.035-1.44 0-1.083.707-2.037 1.745-2.349 0 0-1.512-.712-2.525-.567-1.013.144-1.78.988-2.31 1.863-2.811 4.636-1.587 11.434-6.953 14.32-1.75.942-3.792 1.165-5.754.845-4.39-.717-7.752-3.604-10.99-6.417" transform="matrix(-1 0 0 1 309 114)"/>
            <path fill="#FAFAFA" d="M58.409 52.415c0 4.043-1.09 7.32-2.432 7.32-1.343 0-2.432-3.277-2.432-7.32 0-4.041 1.089-7.318 2.432-7.318s2.432 3.277 2.432 7.318" transform="matrix(-1 0 0 1 309 114)"/>
            <path fill="#EF4136" d="M57.278 179.683l.558 12.047s-12.058 4.613-12.172 6.849l23.398-.243-.099-18.806-11.685.153z" transform="matrix(-1 0 0 1 309 114)"/>
            <path fill="#FFF" d="M65.06 190.641c.454.119.773.625.673 1.083-.1.46-.613.787-1.069.676-.456-.111-.856-.706-.705-1.15.15-.446.772-.798 1.189-.58" transform="matrix(-1 0 0 1 309 114)"/>
            <g transform="matrix(-1 0 0 1 309 114) translate(45.605 196.017)">
                <mask id="9mxppxae8d" fill="#fff">
                    <use xlink:href="#xa4nxfodhc"/>
                </mask>
                <path fill="#FFF" d="M23.456 2.32l-.01-1.876-22.475.922s-1.037.463-.912 1.196l23.397-.243z" mask="url(#9mxppxae8d)"/>
            </g>
            <path fill="#1A2E35" d="M57.456 191.615c.005.114.576.16 1.142.521.576.347.87.839.976.792.105-.022-.073-.704-.766-1.13-.689-.431-1.378-.288-1.352-.183M55.012 192.655c-.025.111.472.3.865.78.407.467.51.989.624.982.108.017.18-.653-.32-1.24-.495-.59-1.168-.631-1.169-.522M53.649 195.607c.104.023.257-.55-.043-1.172-.295-.625-.836-.866-.884-.77-.064.094.287.426.525.941.25.51.288.99.402 1M57.633 188.855c.05.104.571-.06 1.218-.023.647.025 1.152.236 1.21.138.066-.083-.43-.501-1.191-.534-.762-.04-1.294.33-1.237.419" transform="matrix(-1 0 0 1 309 114)"/>
            <path fill="#000" d="M57.392 182.068L57.488 184.216 68.986 183.992 68.981 182.056z" transform="matrix(-1 0 0 1 309 114)"/>
            <path fill="#1A2E35" d="M57.565 186.423c0 .047.452.113 1.172-.018.358-.067.78-.188 1.222-.39.221-.1.446-.222.67-.364.107-.07.234-.142.35-.28.126-.12.195-.424.046-.608-.121-.178-.334-.253-.502-.255-.173-.004-.313.032-.44.065-.26.066-.503.154-.726.257-.445.208-.805.47-1.073.72-.537.509-.718.938-.679.96.052.037.312-.324.86-.744.274-.21.624-.427 1.04-.6.208-.085.433-.16.67-.215.248-.067.458-.071.523.038.023.042.027.058-.024.131-.054.068-.153.135-.259.204-.205.138-.412.257-.615.361-.406.207-.795.349-1.128.446-.669.194-1.11.23-1.107.292" transform="matrix(-1 0 0 1 309 114)"/>
            <path fill="#1A2E35" d="M57.716 186.585c.04.017.263-.395.297-1.135.016-.368-.027-.812-.173-1.281-.074-.235-.175-.474-.305-.71-.14-.229-.31-.536-.754-.583-.232-.006-.422.177-.487.332-.075.16-.09.295-.115.431-.04.274-.033.542.007.79.079.496.287.908.513 1.205.464.6.942.732.951.694.038-.058-.363-.274-.719-.853-.175-.286-.333-.663-.382-1.098-.025-.216-.024-.446.015-.677.033-.249.125-.45.218-.426.117-.003.316.182.414.38.122.208.22.422.297.632.15.421.219.825.239 1.167.04.686-.079 1.115-.016 1.132" transform="matrix(-1 0 0 1 309 114)"/>
            <g transform="matrix(-1 0 0 1 309 114) translate(79.937 163.222)">
                <mask id="8u8r7wdihf" fill="#fff">
                    <use xlink:href="#bgqrlfdfye"/>
                </mask>
                <path fill="#EF4136" d="M.01 9.145l9.46 7.48s-4.424 12.128-2.81 13.68l15.16-17.822L7.559.224.01 9.145z" mask="url(#8u8r7wdihf)"/>
            </g>
            <path fill="#FFF" d="M93.324 173.679c.388-.265.979-.174 1.259.203.28.377.193.978-.19 1.25-.384.27-1.096.183-1.333-.223-.236-.405-.094-1.106.343-1.278" transform="matrix(-1 0 0 1 309 114)"/>
            <g transform="matrix(-1 0 0 1 309 114) translate(86.087 174.435)">
                <mask id="nxbcpzr6mh" fill="#fff">
                    <use xlink:href="#0mpao2ud1g"/>
                </mask>
                <path fill="#FFF" d="M15.671 1.27L14.25.047.205 17.62s-.33 1.087.306 1.472L15.671 1.27z" mask="url(#nxbcpzr6mh)"/>
            </g>
            <path fill="#1A2E35" d="M89.072 180.058c.09.072.5-.33 1.143-.52.64-.207 1.205-.107 1.238-.217.051-.094-.58-.407-1.356-.163-.777.237-1.12.851-1.025.9M88.255 182.585c.067.092.536-.159 1.156-.141.62-.001 1.081.263 1.151.173.084-.07-.375-.564-1.146-.571-.77-.014-1.242.467-1.16.54M89.59 185.55c.085-.063-.247-.554-.913-.736-.666-.187-1.203.064-1.161.162.03.11.51.064 1.055.222.548.144.936.431 1.018.352M87.105 178.115c.11.031.33-.47.782-.934.442-.473.933-.715.897-.824-.02-.104-.66-.004-1.185.55-.528.548-.599 1.192-.494 1.208" transform="matrix(-1 0 0 1 309 114)"/>
            <path fill="#000" d="M81.824 173.847L83.508 175.182 90.879 166.355 89.414 165.089z" transform="matrix(-1 0 0 1 309 114)"/>
            <path fill="#1A2E35" d="M85.224 176.57c.036.032.382-.266.755-.896.185-.313.37-.712.508-1.178.068-.232.125-.481.164-.744.016-.127.047-.269.019-.448-.009-.173-.193-.424-.429-.434-.215-.025-.41.086-.524.212-.115.128-.18.257-.238.375-.12.24-.213.481-.282.716-.134.473-.174.916-.16 1.283.032.74.237 1.157.28 1.142.061-.016-.04-.448.002-1.138.021-.344.086-.75.228-1.177.073-.214.164-.432.278-.648.111-.23.247-.392.372-.37.047.01.062.019.083.105.016.085.001.203-.015.329-.032.245-.077.48-.132.7-.11.443-.258.83-.403 1.145-.292.631-.554.988-.506 1.026" transform="matrix(-1 0 0 1 309 114)"/>
            <path fill="#1A2E35" d="M85.446 176.563c.04-.019-.126-.457-.662-.969-.267-.252-.63-.511-1.081-.709-.226-.097-.472-.179-.735-.233-.265-.045-.61-.12-.936.186-.156.17-.143.434-.067.584.07.162.163.261.249.37.18.21.388.38.6.512.428.267.875.38 1.247.403.758.045 1.171-.23 1.147-.262-.019-.067-.445.094-1.115-.017-.33-.055-.719-.183-1.08-.43-.18-.124-.352-.276-.501-.456-.165-.19-.258-.39-.178-.445.074-.09.345-.119.558-.063.238.044.463.11.672.19.417.162.767.376 1.038.585.543.42.79.79.844.754M53.717 128.713s.625-28.772 0-28.772c-.626 0-5.062-2.533-5.062-2.533l-5.542 42.762s-.5 4.801 5.44 8.184c5.942 3.384 32.503 27 32.503 27l8.988-10.946S72.566 146.19 65.426 140.17c-5.585-4.71-11.71-11.457-11.71-11.457" transform="matrix(-1 0 0 1 309 114)"/>
            <path fill="#1A2E35" d="M70 122.01l.605-4.556s4.379-9.207 5.004-13.152c.625-3.945.212-12.427.212-12.427H48.177s.119 31.21 3.455 39.966c0 0 1.693 16.758 1.942 18.162.528 2.98 2.37 33.49 2.37 33.49l13.94-.509s1.21-28.049.243-36.011c-.479-3.943-.706-8.145-.81-11.621-.133-4.46.096-8.919.683-13.342" transform="matrix(-1 0 0 1 309 114)"/>
            <path fill="#375A64" d="M48.933 100.977c.005 0 .01.046.018.137l.026.404.073 1.552c.053 1.348.152 3.298.29 5.706.278 4.816.794 11.462 1.555 18.784.76 7.325 1.576 13.942 2.166 18.732l.694 5.672.178 1.544.04.403c.007.09.008.137.004.137-.005.001-.016-.045-.031-.134l-.067-.4-.227-1.536-.778-5.663c-.638-4.783-1.484-11.399-2.244-18.727-.762-7.326-1.249-13.98-1.478-18.802-.115-2.41-.185-4.363-.206-5.713l-.023-1.554v-.404c.002-.091.005-.138.01-.138M69.29 137.917c.009-.001.037.154.08.452l.18 1.303c.14 1.134.314 2.78.471 4.816.33 4.073.578 9.715.67 15.947.074 6.235-.024 11.881-.246 15.962-.104 2.04-.235 3.689-.345 4.826l-.147 1.308c-.036.298-.06.454-.068.453-.01 0-.004-.159.015-.458l.096-1.312c.078-1.138.18-2.786.26-4.826.173-4.078.242-9.72.169-15.95-.093-6.227-.311-11.864-.592-15.936-.133-2.036-.278-3.682-.386-4.818l-.13-1.308c-.027-.3-.037-.458-.027-.46" transform="matrix(-1 0 0 1 309 114)"/>
            <path fill="#1A2E35" d="M74.727 33.835s4.525 1.207 5.488 7.95c.963 6.741-.822 8.668-.822 8.668s.736-12.552-4.887-14.265l.221-2.108M43.9 55.857L20.542 55.405 20.814 56.538 43.787 56.875z" transform="matrix(-1 0 0 1 309 114)"/>
            <path fill="#005B94" d="M72.22 35.952c-.87-.231-1.792-.119-2.621.23-1.894.797-5.357 3.088-5.604 9.55l-.398 10.441 14.938 1.955s1.268-20.16-6.316-22.176" transform="matrix(-1 0 0 1 309 114)"/>
            <path fill="#FFBF9D" d="M44.733 58.07l18.937 5.696.283-7.626 11.34 1.652-.632 12.399c-.133 3.637-2.683 6.736-6.226 7.567-1.982.466-4.066.165-5.835-.842L42.474 65.474l2.259-7.403z" transform="matrix(-1 0 0 1 309 114)"/>
            <path fill="#1A2E35" d="M78.535 58.128c-.003-.004-.007-.064-.013-.178l-.022-.504-.067-1.913-.223-6.979-.139-4.798-.036-1.315-.069-.661c-.046-.22-.08-.443-.136-.662-.227-.88-.647-1.734-1.235-2.49-1.179-1.491-3.076-2.627-5.169-2.665-1.04-.027-2.084.291-2.998.856-.917.561-1.693 1.367-2.314 2.283-.905 1.321-1.413 2.843-1.708 4.353-.295 1.516-.39 3.03-.463 4.498l-.234 8.223-.097-.114 10.797 1.474 3.036.425.806.118c.183.028.28.044.284.049.004.004-.085-.004-.261-.023l-.786-.09-3.016-.366-10.89-1.364-.1-.013.002-.102c.063-2.517.108-5.281.203-8.229.07-1.472.162-2.998.46-4.536.297-1.532.815-3.094 1.745-4.452.64-.943 1.44-1.776 2.397-2.36.95-.587 2.052-.922 3.141-.892 2.19.046 4.142 1.228 5.358 2.776.608.784 1.039 1.672 1.27 2.583.057.228.09.459.137.686l.068.687.029 1.329.098 4.848.122 6.99.025 1.885.003.485c0 .108-.002.161-.005.158" transform="matrix(-1 0 0 1 309 114)"/>
            <path fill="#FFBF9D" d="M45.113 58.291l-4.549-3.364c-.83-.613-2.123-.489-3.15-.58-2.039-.184-5.4 1.049-5.527 1.26l1.373 1.098-8.843-.272s.761 1.847 3.233 2.037c0 0 .286 1.996 2.852 2.376 0 0 .666 1.617 2.092 2.092 0 0 .285 1.807 2.567 1.712l7.744.878 2.208-7.237z" transform="matrix(-1 0 0 1 309 114)"/>
            <path fill="#FF9A6C" d="M33.184 58.798c-.005.074-1.259.06-2.8-.03-1.543-.091-2.79-.225-2.785-.298.004-.074 1.258-.06 2.8.03 1.542.092 2.789.225 2.785.298M35.418 60.926c0 .074-1.096.133-2.448.133-1.352 0-2.449-.06-2.449-.133 0-.074 1.097-.133 2.45-.133 1.35 0 2.447.06 2.447.133M37.824 62.938c0 .074-1.097.133-2.448.133-1.353 0-2.45-.06-2.45-.133 0-.074 1.097-.133 2.45-.133 1.351 0 2.448.06 2.448.133M64.92 67.633c-.067.028-.473-.793-.842-1.858-.37-1.064-.56-1.96-.491-1.98.073-.02.375.837.743 1.893.366 1.056.66 1.916.59 1.945M66.292 66.898c-.06.044-.673-.696-1.43-1.602-.755-.909-1.372-1.644-1.317-1.696.052-.05.76.609 1.523 1.525.763.915 1.283 1.73 1.224 1.773" transform="matrix(-1 0 0 1 309 114)"/>
        </g>
        <g>
            <g transform="matrix(-1 0 0 1 203 128) translate(109.162 177.591)"/>
            <path fill="#FFC542" d="M.54 57.028l14.89 19.146c.17.218.468.288.717.17l3.275-1.564c.293-.14.417-.49.277-.783-.018-.038-.04-.073-.065-.106L4.737 54.613c-.174-.224-.483-.293-.735-.162" transform="matrix(-1 0 0 1 203 128)"/>
            <path fill="#FFBA1C" d="M.844 57.42L15.45 76.2c.16.205.435.281.677.187l.932-.364L1.48 56.47" transform="matrix(-1 0 0 1 203 128)"/>
            <path fill="#FFBF9D" d="M83.12 92.69l-2.285-4.51c-.253-.506-.68-.903-1.202-1.12l-3.592-1.493-9.663-13.11-.903 10.037 6.165 6.351s3.856 8.126 7.008 7.713c0 0-.107-1.193-.632-2.099-1.027-1.769.067-1.769.209-1.761l2.616.005 2.278-.013z" transform="matrix(-1 0 0 1 203 128)"/>
            <path fill="#FF4F5B" d="M67.338 85.755c.293.437 2.685 3.672 2.685 3.672l6.767-4.923-2.46-2.402-6.992 3.653z" transform="matrix(-1 0 0 1 203 128)"/>
            <path fill="#FFBF9D" d="M78.016 94.46s1.76 1 1.979 1.855v.505l-2.11-.306.13-2.055z" transform="matrix(-1 0 0 1 203 128)"/>
            <path fill="#FFBF9D" d="M78.154 94.514c-.41-.487-.839-1.009-1.007-1.692-.168-.685.035-1.573.568-1.8.521-.22 1.053.258 1.46.726.515.593 1.005 1.22 1.467 1.88.382.546.77 1.236.632 1.947-.11.571-.564.971-1.024 1.006-.462.037-.912-.24-1.248-.645-.335-.403-.57-.925-.768-1.456" transform="matrix(-1 0 0 1 203 128)"/>
            <path fill="#FFBF9D" d="M80.438 93.811c-.479-.488-.978-1.008-1.175-1.692-.195-.684.04-1.573.663-1.798.608-.22 1.228.256 1.703.724.601.593 1.173 1.22 1.712 1.88.445.547.898 1.237.737 1.948-.13.57-.658.97-1.195 1.006-.538.037-1.064-.241-1.455-.646-.392-.403-.665-.924-.897-1.455" transform="matrix(-1 0 0 1 203 128)"/>
            <path fill="#FF9A6C" d="M76.79 87.571c-.006-.06.456-.037.98.42.25.258.412.611.614.996.189.388.385.863.348 1.405-.04.549-.338.973-.553 1.333-.225.35-.343.71-.421 1.017-.161.62-.037 1.01-.074 1.02-.03.023-.233-.389-.111-1.058.057-.327.166-.72.395-1.104.21-.374.469-.77.498-1.227.034-.46-.133-.9-.303-1.282-.184-.38-.338-.746-.53-.972-.205-.215-.442-.354-.591-.437-.156-.086-.25-.092-.252-.11" transform="matrix(-1 0 0 1 203 128)"/>
            <path fill="#EF4136" d="M16.454 165.926l-1.83 10.548s-11.334 1.682-11.863 3.598l20.323 4.282 3.525-16.317-10.155-2.11z" transform="matrix(-1 0 0 1 203 128)"/>
            <path fill="#FFF" d="M21.094 176.917c.37.19.549.69.374 1.068-.174.378-.681.565-1.055.38-.374-.183-.607-.776-.39-1.133.215-.356.823-.542 1.141-.274M23.084 184.354l.352-1.627-19.655-3.516s-.987.202-1.02.862l20.323 4.281z" transform="matrix(-1 0 0 1 203 128)"/>
            <path fill="#1A2E35" d="M14.317 176.301c-.018.1.469.249.89.671.432.411.594.894.693.874.095 0 .072-.624-.446-1.127-.514-.506-1.14-.514-1.137-.418M12 176.733c-.043.092.351.351.6.842.263.483.252.955.351.971.09.036.282-.531-.04-1.135-.314-.607-.89-.772-.912-.678M10.251 179.03c.086.04.329-.427.188-1.024-.135-.599-.559-.911-.618-.838-.073.07.166.425.274.917.12.49.06.913.156.944M15 173.944c.023.098.507.057 1.06.214.556.145.953.425 1.022.351.073-.06-.276-.517-.93-.692-.652-.18-1.184.038-1.152.127" transform="matrix(-1 0 0 1 203 128)"/>
            <path fill="#000" d="M16.094 168.016L15.765 169.895 25.773 171.909 26.14 170.23z" transform="matrix(-1 0 0 1 203 128)"/>
            <path fill="#1A2E35" d="M15.409 171.822c-.01.041.37.185 1.019.21.323.012.712-.013 1.133-.103.21-.046.43-.107.65-.187.107-.04.23-.078.358-.175.132-.08.25-.33.157-.518-.071-.178-.241-.284-.387-.319-.15-.036-.277-.031-.393-.028-.238.008-.466.039-.678.085-.426.094-.789.251-1.069.418-.563.337-.802.674-.773.7.038.042.334-.22.89-.48.276-.128.62-.25 1.015-.32.197-.034.405-.055.622-.057.227-.01.41.026.445.134.013.04.012.055-.046.109-.059.049-.157.087-.262.127-.205.08-.407.143-.603.194-.392.101-.756.15-1.064.17-.616.04-1.004-.014-1.014.04" transform="matrix(-1 0 0 1 203 128)"/>
            <path fill="#1A2E35" d="M15.508 171.992c.032.022.304-.292.476-.927.084-.315.132-.708.095-1.143-.019-.218-.06-.444-.129-.673-.077-.226-.165-.525-.54-.65-.2-.05-.4.071-.486.194-.095.123-.134.239-.182.35-.088.23-.133.464-.146.686-.027.446.074.843.214 1.143.286.61.675.816.69.785.044-.043-.261-.308-.459-.878-.098-.28-.161-.638-.12-1.024.02-.193.064-.392.142-.585.077-.209.196-.365.271-.326.101.019.24.218.286.408.066.204.11.408.136.605.05.394.031.757-.017 1.057-.097.602-.282.951-.23.978" transform="matrix(-1 0 0 1 203 128)"/>
            <path fill="#EF4136" d="M83.233 166.569l-4.396-5.739-.228-.297-7.487 5.568 6.933 7.616-.254 7.709c-3.861.998-4.441 2.928-4.441 2.928l8.027-.01 7.29-14.042-5.444-3.733z" transform="matrix(-1 0 0 1 203 128)"/>
            <path fill="#FFF" d="M88.677 170.302L81.387 184.345 73.36 184.354 74.263 183.146 80.79 182.781 87.518 169.508z" transform="matrix(-1 0 0 1 203 128)"/>
            <path fill="#1A2E35" d="M77.85 177.894c.06.082.523-.182 1.143-.164.621 0 1.077.275 1.138.195.076-.061-.377-.542-1.133-.548-.755-.014-1.221.454-1.147.517M77.979 175.982c.08.057.437-.417 1.077-.542.64-.132 1.152.167 1.204.083.027-.036-.065-.17-.29-.293-.222-.123-.588-.216-.983-.136-.396.08-.697.307-.853.505-.161.2-.194.36-.155.383M77.925 173.527c.088.044.361-.42.92-.614.558-.201 1.061-.012 1.102-.102.021-.04-.08-.152-.303-.235-.218-.083-.565-.12-.916.004-.352.125-.598.371-.716.573-.12.205-.129.356-.087.374M75.775 171.624c.096.033.321-.423.82-.746.488-.337.996-.371 1.002-.472.026-.093-.595-.23-1.199.179-.608.402-.719 1.028-.623 1.04M74.727 169.977c.041.026.306-.297.7-.841l.678-.965c.116-.19.278-.353.373-.65.041-.149.038-.327-.05-.487-.082-.17-.308-.277-.484-.253-.35.052-.546.232-.75.39-.196.169-.357.361-.487.557-.258.396-.38.81-.42 1.159-.078.71.154 1.114.182 1.096.062-.013-.07-.424.064-1.057.068-.311.2-.675.443-1.015.122-.169.268-.332.44-.475.169-.137.39-.288.554-.303.08-.003.118.018.152.073.033.059.043.146.021.227-.043.171-.197.37-.31.56L75.22 169c-.342.579-.532.95-.492.977" transform="matrix(-1 0 0 1 203 128)"/>
            <path fill="#1A2E35" d="M74.44 170.215c.038-.002.008-.424-.428-.907-.423-.456-1.35-.943-2.38-.427-.073.063-.13.176-.124.287.004.11.052.193.097.254.095.124.2.186.288.252.187.13.378.238.567.324.379.173.747.26 1.056.294.624.067 1-.054.993-.093-.006-.057-.38-.029-.952-.153-.284-.062-.616-.167-.956-.34-.169-.088-.34-.191-.506-.312-.085-.065-.17-.124-.208-.182-.04-.07-.03-.05-.016-.071.026-.03.133-.063.232-.087.1-.023.199-.039.298-.045.198-.016.391 0 .57.04.361.077.653.253.867.438.429.38.55.751.602.728" transform="matrix(-1 0 0 1 203 128)"/>
            <path fill="#FFF" d="M82.273 170.062c0 .526.427.952.952.952.527 0 .953-.426.953-.952 0-.525-.426-.952-.953-.952-.525 0-.952.427-.952.952" transform="matrix(-1 0 0 1 203 128)"/>
            <path fill="#000" d="M71.819 166.867L73.36 168.56 79.841 162.141 78.94 160.965z" transform="matrix(-1 0 0 1 203 128)"/>
            <path fill="#FF4F5B" d="M51.867 33.224c4.249-1.484 8.933-1.697 13.299-.604 1.954.489 3.936 1.3 5.188 2.876 1.483 1.865 1.667 4.408 1.894 6.78.462 4.822 1.352 9.604 2.656 14.27 1.086 3.885 2.462 7.709 3.049 11.7.586 3.99.315 8.26-1.717 11.744-3.135 5.37-9.8 7.744-16.017 7.847-3.273.055-6.62-.424-9.522-1.938s-5.313-4.166-6.02-7.361" transform="matrix(-1 0 0 1 203 128)"/>
            <path fill="#000" d="M51.867 33.224c4.249-1.484 8.933-1.697 13.299-.604 1.954.489 3.936 1.3 5.188 2.876 1.483 1.865 1.667 4.408 1.894 6.78.462 4.822 1.352 9.604 2.656 14.27 1.086 3.885 2.462 7.709 3.049 11.7.586 3.99.315 8.26-1.717 11.744-3.135 5.37-9.8 7.744-16.017 7.847-3.273.055-6.62-.424-9.522-1.938s-5.313-4.166-6.02-7.361" transform="matrix(-1 0 0 1 203 128)"/>
            <path fill="#E1E1E1" d="M60.41 38.143c-.04.046.86.61 1.779 1.995.464.685.922 1.559 1.387 2.558.471.994.957 2.117 1.653 3.208.696 1.088 1.576 2.01 2.569 2.571.984.578 2.068.717 2.91.569.852-.136 1.474-.51 1.817-.837.177-.16.294-.306.361-.41.068-.105.1-.162.09-.168-.024-.02-.174.196-.534.48-.354.284-.96.604-1.767.704-.805.109-1.801-.042-2.725-.602-.93-.543-1.767-1.43-2.443-2.485-.677-1.06-1.168-2.17-1.656-3.162-.482-.996-.971-1.878-1.47-2.56-.496-.685-.987-1.17-1.357-1.463-.37-.294-.603-.413-.614-.398" transform="matrix(-1 0 0 1 203 128)"/>
            <path fill="#E1E1E1" d="M69.416 86.142c.012 0 .017-.14.016-.402l-.02-1.148c-.023-.997-.074-2.44-.152-4.22-.155-3.563-.436-8.482-.861-13.906-.428-5.426-.919-10.33-1.322-13.872-.2-1.771-.376-3.204-.509-4.192l-.16-1.137c-.04-.26-.067-.395-.078-.394-.011.001-.007.14.012.402l.098 1.144.404 4.202c.344 3.547.798 8.45 1.225 13.873.425 5.42.742 10.334.957 13.892l.258 4.214.081 1.145c.023.262.04.4.051.399" transform="matrix(-1 0 0 1 203 128)"/>
            <path fill="#E1E1E1" d="M68.138 64.356c.003.087 1.965.064 4.363-.235 2.399-.296 4.306-.752 4.288-.838-.018-.093-1.944.216-4.329.51-2.384.297-4.327.467-4.322.563" transform="matrix(-1 0 0 1 203 128)"/>
            <path fill="#E1E1E1" d="M69.723 64.308c-.042-.009-.168.341-.267.933-.05.296-.09.649-.106 1.05-.004.202.001.435.11.67.108.24.358.44.664.446.154.003.325-.072.42-.193.102-.12.14-.267.149-.39.018-.255-.046-.466-.091-.657-.1-.388-.227-.725-.351-1-.252-.549-.485-.842-.52-.82-.044.024.114.355.302.907.094.276.193.608.272.983.039.19.084.384.065.557-.016.175-.105.282-.245.282-.346-.008-.485-.413-.47-.784-.002-.381.014-.733.033-1.025.039-.585.083-.949.035-.959" transform="matrix(-1 0 0 1 203 128)"/>
            <path fill="#1A2E35" d="M54.533 20.463l3.173-.314c-.844.233-1.558.834-2.036 1.567-.48.733-.74 1.591-.874 2.457-.568 3.65 1.372 7.58 4.496 9.554l-2.554.34s-7.328-6.547-2.205-13.604" transform="matrix(-1 0 0 1 203 128)"/>
            <path fill="#1A2E35" d="M50.931 27.183c1.63.45 3.463.085 4.795-.954 1.334-1.039 2.135-2.727 2.097-4.417-.036-1.578-.75-3.186-.26-4.686.338-1.03 1.201-1.833 1.491-2.877.431-1.559-.51-3.134-1.41-4.478-.578-.863-1.168-1.739-1.973-2.394-.805-.655-1.871-1.068-2.887-.853M36.382 6.662c.087 1.19-.7 2.255-1.491 3.149-.793.893-1.675 1.824-1.846 3.006-.304 2.095 1.747 4.04 1.324 6.113-.227 1.112-1.137 2.005-1.3 3.128-.156 1.085.426 2.148 1.147 2.975.722.827 1.6 1.516 2.239 2.409.672.94 1.042 2.056 1.524 3.106.483 1.05 1.132 2.093 2.148 2.644 1.527.83 3.667.44 4.838 1.723 1.132 1.24 2.52 1.437 3.914 2.373" transform="matrix(-1 0 0 1 203 128)"/>
            <path fill="#1A2E35" d="M54.688 8.483c.031-1.08-.968-1.914-1.974-2.31-1.005-.396-2.123-.545-3.02-1.148-.793-.534-1.326-1.368-1.999-2.049-1.648-1.67-4.222-2.363-6.485-1.745-2.265.617-4.13 2.52-4.701 4.797-.386 1.539-.123 3.357 1.09 4.38 1.407 1.186 3.494.922 5.297.554 1.803-.37 3.844-.734 5.35.325.908.639 1.428 1.678 1.984 2.64.555.96 1.251 1.942 2.3 2.304 1.05.361 2.475-.263 2.516-1.373" transform="matrix(-1 0 0 1 203 128)"/>
            <path fill="#FFBF9D" d="M50.428 8.705c.933.101 1.634.899 1.613 1.837l-1.078 24.411c-.045 2.883-4.26 4.503-7.346 4.431-3.117-.073-3.218-1.601-3.256-4.344-.066-4.583-.06-6.302-.062-6.276 0 0-3.937-.663-4.742-5.804-.4-2.557-.263-6.747-.04-10.171.202-3.083 2.253-6.861 5.324-6.53l9.587 2.446z" transform="matrix(-1 0 0 1 203 128)"/>
            <path fill="#1A2E35" d="M36.492 15.725c-.013.349.27.647.634.667.362.02.667-.245.68-.593.013-.348-.27-.646-.633-.666-.363-.021-.668.244-.681.592M36.422 14.97c.081.087.582-.282 1.291-.278.708-.007 1.228.359 1.305.272.038-.038-.045-.194-.271-.36-.223-.164-.604-.324-1.045-.323-.441 0-.814.163-1.028.33-.218.166-.292.32-.252.36M43.553 15.908c-.013.347.27.646.633.666.363.02.668-.245.681-.593.014-.348-.27-.646-.633-.666-.363-.02-.669.245-.681.593M43.393 15.118c.081.087.583-.282 1.291-.278.708-.007 1.228.359 1.305.272.038-.038-.044-.194-.271-.359-.223-.165-.603-.326-1.045-.325-.441.002-.814.164-1.027.33-.219.166-.293.322-.253.36M40.807 20.372c.004-.04-.437-.117-1.151-.21-.181-.02-.353-.056-.383-.18-.042-.13.034-.325.122-.536l.54-1.378c.747-1.961 1.289-3.575 1.21-3.604-.08-.03-.75 1.537-1.498 3.498l-.516 1.386c-.07.206-.188.439-.096.711.049.135.182.234.297.266.116.035.218.037.308.043.718.04 1.165.045 1.167.004" transform="matrix(-1 0 0 1 203 128)"/>
            <path fill="#FF9A6C" d="M40.299 28.764s3.457.23 6.886-1.821c0 0-1.677 3.526-6.82 3.034l-.066-1.213zM41.104 22.082c.255-.337.703-.521 1.146-.472.308.034.618.183.805.434.186.25.225.607.054.845-.192.27-.592.33-.93.233-.339-.097-.63-.32-.905-.542-.077-.062-.155-.126-.202-.21-.048-.085-.058-.195 0-.265" transform="matrix(-1 0 0 1 203 128)"/>
            <path fill="#1A2E35" d="M42.894 20.868c-.116-.008-.119.762-.78 1.307-.658.547-1.479.458-1.485.566-.01.049.183.15.529.16.34.013.836-.095 1.24-.428.403-.335.577-.781.604-1.098.03-.321-.056-.512-.108-.507M43.077 13.876c.07.193.778.103 1.61.205.833.085 1.504.33 1.614.158.05-.083-.067-.265-.337-.452s-.698-.365-1.197-.421c-.5-.056-.957.022-1.26.145-.306.122-.46.273-.43.365M36.687 12.919c.124.16.613-.006 1.201-.012.587-.027 1.085.11 1.2-.058.05-.081-.028-.242-.245-.396-.214-.152-.572-.277-.975-.266-.404.012-.755.158-.96.322-.207.165-.275.331-.221.41" transform="matrix(-1 0 0 1 203 128)"/>
            <path fill="#1A2E35" d="M54.017 25.613c-1.414.285-2.953-.15-4.009-1.13-1.056-.983-1.601-2.486-1.42-3.917.16-1.262.84-2.546.402-3.74-.578-1.58-2.792-2.066-3.38-3.642-.34-.916-.035-1.987-.422-2.885-.364-.844-1.252-1.33-2.116-1.644-.865-.312-1.792-.527-2.517-1.092-.726-.564-1.179-1.628-.71-2.42 3.833.46 7.612 1.378 11.229 2.729.839.313 1.72.69 2.216 1.435.524.789.5 1.808.455 2.755L53.1 25.905" transform="matrix(-1 0 0 1 203 128)"/>
            <path fill="#1A2E35" d="M56.787 29.884c-.04.006.07-.496-.267-1.28-.165-.388-.456-.826-.877-1.253-.422-.429-.99-.82-1.663-1.176-.668-.364-1.441-.695-2.231-1.148-.785-.452-1.595-1.069-2.127-1.98-.264-.45-.43-.988-.43-1.542-.003-.553.122-1.093.23-1.63.107-.535.215-1.087.108-1.614-.093-.531-.461-.97-.95-1.247-.484-.29-1.039-.466-1.562-.713-.52-.242-1.045-.587-1.33-1.111-.289-.514-.365-1.09-.385-1.625-.02-.538.015-1.058.008-1.559-.005-.499-.047-.986-.206-1.417-.155-.433-.427-.799-.779-1.054-.706-.52-1.542-.703-2.279-.893-.742-.185-1.427-.406-1.939-.77-.52-.36-.805-.855-.924-1.274-.12-.426-.063-.782.018-.995.088-.214.177-.3.177-.3.013.008-.058.106-.126.317-.062.21-.099.548.03.948.128.395.413.855.91 1.181.495.335 1.157.537 1.9.71.736.18 1.598.348 2.365.899.383.27.696.678.868 1.15.176.47.222.984.231 1.495.01.512-.021 1.032 0 1.553.022.518.1 1.05.357 1.503.252.46.714.766 1.216 1.002.506.238 1.063.414 1.587.724.26.154.506.347.698.591.193.244.315.537.375.833.118.6-.004 1.18-.11 1.718-.113.541-.234 1.066-.234 1.577 0 .508.145.999.39 1.422.49.856 1.263 1.461 2.024 1.91.77.452 1.54.794 2.211 1.173.675.372 1.255.786 1.679 1.238.424.449.71.91.866 1.317.16.406.2.748.201.975.006.114-.008.2-.014.258-.006.058-.012.088-.016.087M41.808 33.41c.002.01-.085.034-.254.075-.084.024-.19.042-.316.054-.126.019-.272.031-.438.03-.654.016-1.65-.158-2.641-.83-.488-.338-.978-.797-1.334-1.409-.371-.608-.55-1.353-.686-2.112-.142-.757-.262-1.566-.665-2.271-.401-.71-1.146-1.183-1.816-1.79-.698-.596-1.144-1.457-1.259-2.316-.125-.863.067-1.733.475-2.415.396-.68.862-1.247 1.074-1.884.223-.63.26-1.27.218-1.841-.104-1.15-.438-2.047-.65-2.659-.221-.613-.353-.95-.334-.959.009-.003.052.076.126.232.074.156.18.386.305.69.242.605.608 1.497.74 2.68.057.588.03 1.258-.197 1.93-.217.683-.697 1.277-1.068 1.932-.381.65-.549 1.45-.43 2.257.116.807.517 1.587 1.18 2.157.64.583 1.42 1.074 1.862 1.855.434.768.545 1.606.682 2.358.128.758.292 1.467.634 2.045.328.584.789 1.03 1.25 1.365.94.666 1.898.865 2.536.88.646.02 1-.084 1.006-.054" transform="matrix(-1 0 0 1 203 128)"/>
            <path fill="#375A64" d="M56.732 8.915s.06.06.086.21c.03.148-.011.393-.198.618-.182.22-.496.441-.92.465-.422.01-.86-.175-1.303-.39-.441-.222-.928-.42-1.499-.443-.565-.035-1.175.052-1.814.166-.64.111-1.32.258-2.052.264-.722.01-1.535-.207-2.105-.768-.576-.546-.904-1.242-1.212-1.88-.304-.642-.589-1.262-.98-1.763-.76-1.037-2.055-1.321-2.966-1.082-.94.237-1.506.878-1.79 1.324-.288.463-.35.77-.376.76-.008-.001.002-.077.039-.22.04-.141.112-.347.249-.593.265-.478.83-1.173 1.83-1.454.493-.133 1.075-.143 1.652.034.58.164 1.141.546 1.555 1.08.42.528.716 1.164 1.024 1.802.308.634.63 1.3 1.158 1.797.518.509 1.238.704 1.923.702.692-.001 1.363-.139 2.01-.246.644-.107 1.275-.19 1.871-.143.6.032 1.137.262 1.567.494.434.226.844.406 1.216.41.367-.006.67-.194.844-.384.18-.194.234-.407.223-.544-.006-.14-.047-.21-.032-.216" transform="matrix(-1 0 0 1 203 128)"/>
            <path fill="#1A2E35" d="M53.855 7.438c-1.677-.388-2.965-2.05-2.923-3.77.043-1.721 1.412-3.317 3.106-3.62.818-.147 1.765.034 2.257.705.47.641.439 1.598 1.04 2.121.641.56 1.627.318 2.46.498 1.289.278 2.151 1.691 2.005 3.002-.147 1.31-1.153 2.43-2.373 2.93-1.221.5-2.616.444-3.883.076-1.266-.368-2.426-1.028-3.548-1.724" transform="matrix(-1 0 0 1 203 128)"/>
            <path fill="#375A64" d="M60.03 3.722c.026.008-.058.395-.376.943-.314.547-.899 1.23-1.724 1.747-.826.514-1.698.738-2.327.779-.633.043-1.017-.05-1.013-.078.004-.046.39-.02.991-.11.602-.087 1.42-.328 2.208-.817.786-.493 1.363-1.12 1.706-1.622.345-.502.493-.859.536-.842" transform="matrix(-1 0 0 1 203 128)"/>
            <path fill="#FF4F5B" d="M57.31 9.405c-.066.056-.852-1.254-2.433-2.145-1.568-.917-3.095-.935-3.08-1.021 0-.03.376-.07.979.012.6.08 1.424.314 2.234.777.808.466 1.425 1.06 1.797 1.537.375.48.53.825.503.84" transform="matrix(-1 0 0 1 203 128)"/>
            <path fill="#FFBF9D" d="M19.973 65.213c-4.897-1.123-7.658-1.66-8.285-1.613-.627.048-.128.757 1.495 2.127l-3.56 1.776c-1.106-1.025-1.807-1.512-2.104-1.464-.445.073-.65.724 0 1.81.65 1.085 1.517 1.953 2.08 1.997 0 0 .183 1.009 1.101 1.988.548.584 1.988 1.504 3.743 1.036l5.58-2.015-.05-5.642z" transform="matrix(-1 0 0 1 203 128)"/>
            <path fill="#FF9A6C" d="M11.596 69.377c.05.049-.409.477-1.145.559-.736.089-1.28-.225-1.243-.283.029-.074.557.1 1.212.017.656-.07 1.132-.358 1.176-.293M12.679 71.147c.052.047-.304.45-.921.608-.616.163-1.122-.015-1.1-.08.015-.077.487-.031 1.033-.179.548-.138.938-.408.988-.349M14.779 64.87c.012.039-.284.16-.725.421-.444.256-1.016.675-1.674 1.124-.658.45-1.32.785-1.836.918-.516.14-.85.109-.85.077-.004-.042.315-.078.792-.257.48-.172 1.096-.516 1.745-.96.65-.443 1.255-.849 1.735-1.068.478-.227.803-.287.813-.255" transform="matrix(-1 0 0 1 203 128)"/>
            <path fill="#1A2E35" d="M65.161 79s.285.178.99 1.435c2.17 3.869 3.045 13.14-5.132 21.413-10.57 10.692-22.942 28.183-22.942 28.183l-9.716 41.075-14.676-3.178 7.563-42.694 20.74-38.47L65.16 79z" transform="matrix(-1 0 0 1 203 128)"/>
            <path fill="#1A2E35" d="M81.352 158.499L58.744 123.899 51.884 94.034 34.423 102.615 43.181 132.929 71.122 167.734z" transform="matrix(-1 0 0 1 203 128)"/>
            <path fill="#375A64" d="M28.361 171.106c-.005-.001.007-.07.034-.203l.126-.589.508-2.258 1.918-8.293 6.426-27.335.574-2.428.007-.028.018-.022c6.408-8.195 12.242-15.447 16.538-20.598 2.152-2.572 3.908-4.628 5.153-6.016.613-.703 1.113-1.226 1.444-1.586l.383-.406c.087-.09.133-.134.137-.131.003.003-.037.053-.118.15l-.363.422c-.319.371-.806.904-1.408 1.617-1.221 1.408-2.955 3.48-5.086 6.067-4.258 5.179-10.067 12.45-16.47 20.644l.024-.052-.573 2.428-6.503 27.318-2 8.273-.557 2.246c-.064.247-.115.44-.151.583-.036.131-.056.198-.06.197M54.873 89.922c.008.015-.117.09-.355.195-.238.105-.595.233-1.05.34-.905.216-2.242.3-3.628-.104-1.385-.404-2.47-1.191-3.116-1.86-.327-.334-.56-.633-.704-.85-.145-.217-.21-.346-.195-.356.037-.027.358.451 1.03 1.07.665.618 1.726 1.351 3.06 1.74 1.334.388 2.622.34 3.515.175.9-.162 1.426-.394 1.443-.35" transform="matrix(-1 0 0 1 203 128)"/>
            <path fill="#EF4136" d="M67.338 80.747c-8.84 4.657-23.197 7.44-27.784 5.55l-.16-17.035s-6.291-10.37-6.314-14.29c-.035-5.65 7-18.535 7-18.535l10.56-2.8c2.485-.01 4.495.559 6.113 1.419 4.067 2.16 6.284 6.703 5.826 11.285l-2.66 16.946 7.419 17.46z" transform="matrix(-1 0 0 1 203 128)"/>
            <path fill="#000" d="M56.007 35.04c.613-.094.842.91.402 1.346-.44.436-1.125.461-1.737.557-2.75.43-4.876 2.786-5.878 5.383-1.002 2.596-1.095 5.439-1.26 8.217-.163 2.778-.436 5.64-1.741 8.097-2.43-4.308-2.809-9.715-1.004-14.32 1.806-4.603 5.759-8.313 10.469-9.822" transform="matrix(-1 0 0 1 203 128)"/>
            <path fill="#1A2E35" d="M56.753 35.056s-1.52-2.507-6.618-1.419c-3.406.728-10.846 7.874-8.77 19.36 2.076 11.487 7.64 15.549 7.64 15.549s-5.12-17.58-2.276-25.253c2.843-7.673 10.024-8.237 10.024-8.237" transform="matrix(-1 0 0 1 203 128)"/>
            <path fill="#000" d="M39.587 72.903c2.105.678 4.125 1.522 6.317 1.816 2.192.293 4.485.181 6.52-.684 2.815-1.197 4.904-3.764 5.981-6.626 1.076-2.863 1.224-6.002.939-9.047-1.926 2.375-1.692 5.898-3.327 8.482-1.023 1.617-2.69 2.718-4.4 3.575-3.727 1.868-7.863 2.577-12.03 2.484" transform="matrix(-1 0 0 1 203 128)"/>
            <path fill="#1A2E35" d="M45.92 55.498s-.686 12.934 15.092 10.36l1.59 3.741s-16.59 3.503-18.94-10.233l2.257-3.868z" transform="matrix(-1 0 0 1 203 128)"/>
            <path fill="#EF4136" d="M60.297 39.419c1.378 1.965 1.737 4.471 1.17 6.803l-3.93 17.593c-1.688 4.95-6.498 7.954-9.488 8.357l-28.026 2.953V64.68l26.015-3.864 1.22-14.247c.107-1.916 1.052-5.36 2.27-6.843 1.364-1.658 3.46-3.913 6.88-3.34 2.1.352 2.988 1.747 3.89 3.033" transform="matrix(-1 0 0 1 203 128)"/>
            <path fill="#1A2E35" d="M61.11 46.907c.01.002 0 .139-.029.398-.026.259-.074.64-.14 1.13-.133.981-.341 2.4-.65 4.142-.307 1.744-.715 3.813-1.24 6.095-.265 1.14-.545 2.336-.885 3.567-.345 1.228-.76 2.494-1.374 3.713-.607 1.22-1.412 2.317-2.37 3.18-.953.869-2.016 1.535-3.084 2.032-2.144 1.006-4.266 1.375-6.023 1.565-1.766.18-3.202.191-4.191.2l-1.14-.004c-.26-.005-.397-.012-.397-.022 0-.009.137-.02.397-.032l1.138-.045c.987-.042 2.42-.08 4.172-.285 1.744-.212 3.837-.598 5.939-1.599 1.047-.494 2.086-1.152 3.013-2.003.931-.845 1.71-1.91 2.307-3.107.602-1.195 1.016-2.445 1.36-3.664.342-1.221.627-2.416.899-3.552.537-2.274.963-4.336 1.293-6.072.333-1.737.569-3.149.733-4.124l.19-1.123c.046-.256.074-.39.083-.39M46.793 63.815c-.07.022-.352-.659-.631-1.522-.28-.863-.448-1.58-.379-1.604.07-.022.353.659.633 1.522.278.863.448 1.581.377 1.604" transform="matrix(-1 0 0 1 203 128)"/>
            <path fill="#1A2E35" d="M48.387 63.414c-.041.057-.738-.38-1.43-1.111-.697-.73-1.097-1.449-1.037-1.485.064-.043.552.59 1.23 1.301.673.713 1.283 1.234 1.237 1.295" transform="matrix(-1 0 0 1 203 128)"/>
            <path fill="#1A2E35" d="M22.463 64.318c-.001-.005.039-.015.117-.03l.347-.065L24.271 64l4.984-.781c4.25-.642 10.134-1.533 16.763-2.534l-.112.118.29-3.04c.338-3.698.69-7.216.865-10.428.13-1.615.434-3.13.871-4.502.438-1.367 1.012-2.614 1.832-3.548 1.662-1.81 3.52-2.77 4.889-2.942.682-.1 1.219-.03 1.572.028.175.039.307.08.396.103.089.025.133.04.132.045-.002.053-.74-.28-2.084-.073-1.333.198-3.146 1.169-4.763 2.963-.783.909-1.34 2.138-1.763 3.49-.423 1.357-.715 2.86-.837 4.454-.16 3.213-.507 6.738-.845 10.435l-.291 3.04-.01.104-.103.015-16.775 2.448-4.997.7-1.35.178-.352.04c-.079.007-.12.009-.12.005" transform="matrix(-1 0 0 1 203 128)"/>
            <path fill="#FAFAFA" d="M38.503 72.843c-.073.008-.37-2.362-.663-5.293-.293-2.93-.472-5.312-.398-5.32.073-.007.37 2.363.663 5.294.293 2.93.472 5.312.398 5.32M59.017 56.959c-.001.037-.682.045-1.782.028-1.1-.018-2.62-.06-4.298-.123-1.679-.063-3.197-.134-4.296-.2-1.098-.065-1.776-.123-1.774-.16.002-.037.684-.045 1.784-.028 1.1.017 2.619.059 4.296.122 1.677.062 3.194.135 4.292.2 1.099.065 1.778.124 1.778.16M41.228 53.63c.002.035-.441.1-1.162.152-.72.053-1.719.088-2.821.067-1.104-.022-2.1-.097-2.818-.178-.718-.08-1.158-.163-1.154-.198.003-.038.45-.023 1.17.01.718.033 1.71.077 2.807.099 1.096.02 2.089.016 2.809.012.72-.005 1.166-.002 1.169.035M43.543 41.46c-.038.069-1.116-.497-2.512-1.023-1.395-.533-2.575-.824-2.559-.901.012-.068 1.236.11 2.653.652 1.42.536 2.454 1.214 2.418 1.272M63.896 73.432c.003.01-.076.048-.229.114l-.676.279c-.587.238-1.448.56-2.519.934-2.14.749-5.143 1.668-8.52 2.443-3.378.771-6.481 1.25-8.735 1.508-1.127.13-2.041.214-2.674.255l-.73.043c-.167.007-.255.006-.255-.003-.001-.01.085-.026.25-.05l.724-.094c.63-.072 1.54-.186 2.661-.338 2.244-.305 5.332-.812 8.7-1.58 3.366-.773 6.367-1.662 8.52-2.364 1.076-.35 1.944-.643 2.542-.852l.693-.23c.16-.051.245-.074.248-.065M62.225 42.786c-.003.074-3.023.035-6.747-.084-3.724-.12-6.74-.278-6.738-.352.002-.073 3.023-.035 6.747.085 3.723.12 6.74.277 6.738.351M26.118 74.364c-.074.003-.221-2.286-.33-5.112-.108-2.827-.136-5.12-.063-5.123.074-.003.222 2.285.33 5.112.109 2.827.137 5.12.063 5.123" transform="matrix(-1 0 0 1 203 128)"/>
        </g>
    </g>
</svg>
